<svg width="123" height="25" fill="none" xmlns="http://www.w3.org/2000/svg"><g clip-path="url(#clip0_16:90)"><path d="M11.644 15.582l-3.81 2.36 1.106-4.325-3.437-2.849 4.47-.327 1.634-4.108 1.708 4.106 4.396.328-3.363 2.85 1.031 4.325-3.735-2.36z" fill="#FCC21B"/><path d="M17.618 21.07a.505.505 0 00.199-.526l-1.502-6.282 4.885-4.136a.505.505 0 00-.29-.89l-6.382-.475-2.479-5.967a.51.51 0 00-.47-.31.512.512 0 00-.465.319L8.742 8.759l-6.486.477a.502.502 0 00-.443.658c.029.09.083.171.157.233l4.985 4.134-1.602 6.275a.501.501 0 00.47.629.5.5 0 00.284-.076l5.528-3.427 5.421 3.425a.499.499 0 00.562-.017zm-5.974-5.488l-3.81 2.362 1.106-4.327-3.436-2.851 4.47-.327 1.634-4.108 1.707 4.107 4.396.329-3.363 2.85 1.033 4.324-3.737-2.36z" fill="#F79329"/></g><g clip-path="url(#clip1_16:90)"><path d="M35.934 15.582l-3.81 2.36 1.107-4.325-3.438-2.849 4.47-.327 1.635-4.108 1.708 4.106 4.395.328-3.363 2.85 1.031 4.325-3.735-2.36z" fill="#FCC21B"/><path d="M41.909 21.07a.505.505 0 00.198-.526l-1.502-6.282 4.885-4.136a.505.505 0 00-.29-.89l-6.382-.475-2.478-5.967a.509.509 0 00-.47-.31.512.512 0 00-.466.319l-2.371 5.956-6.487.477a.502.502 0 00-.443.658c.03.09.083.171.157.233l4.985 4.134-1.601 6.275a.501.501 0 00.469.629c.1.004.2-.023.284-.076l5.528-3.427 5.422 3.425a.499.499 0 00.562-.017zm-5.975-5.488l-3.81 2.362 1.107-4.327-3.437-2.851 4.47-.327 1.634-4.108 1.707 4.107 4.396.329-3.363 2.85 1.033 4.324-3.737-2.36z" fill="#F79329"/></g><g clip-path="url(#clip2_16:90)"><path d="M61.124 15.582l-3.81 2.36 1.106-4.325-3.437-2.849 4.47-.327 1.634-4.108 1.708 4.106 4.396.328-3.363 2.85 1.031 4.325-3.735-2.36z" fill="#FCC21B"/><path d="M67.099 21.07a.505.505 0 00.198-.526l-1.502-6.282 4.885-4.136a.505.505 0 00-.29-.89l-6.382-.475-2.479-5.967a.51.51 0 00-.47-.31.512.512 0 00-.465.319l-2.371 5.956-6.487.477a.502.502 0 00-.443.658c.03.09.083.171.157.233l4.985 4.134-1.602 6.275a.502.502 0 00.47.629.5.5 0 00.284-.076l5.528-3.427 5.422 3.425a.499.499 0 00.561-.017zm-5.975-5.488l-3.81 2.362 1.106-4.327-3.436-2.851 4.47-.327 1.634-4.108 1.707 4.107 4.396.329-3.363 2.85 1.033 4.324-3.737-2.36z" fill="#F79329"/></g><g clip-path="url(#clip3_16:90)"><path d="M85.414 15.582l-3.81 2.36 1.107-4.325-3.438-2.849 4.47-.327 1.635-4.108 1.708 4.106 4.395.328-3.363 2.85 1.032 4.325-3.736-2.36z" fill="#FCC21B"/><path d="M91.389 21.07a.505.505 0 00.198-.526l-1.502-6.282 4.885-4.136a.504.504 0 00.152-.542.505.505 0 00-.441-.348l-6.383-.475-2.478-5.967a.509.509 0 00-.47-.31.512.512 0 00-.466.319l-2.371 5.956-6.487.477a.502.502 0 00-.443.658c.03.09.083.171.157.233l4.985 4.134-1.601 6.275a.501.501 0 00.469.629c.1.004.2-.023.284-.076l5.529-3.427 5.42 3.425a.499.499 0 00.563-.017zm-5.975-5.488l-3.809 2.362 1.106-4.327-3.437-2.851 4.47-.327L85.38 6.33l1.706 4.107 4.396.329-3.363 2.85 1.033 4.324-3.737-2.36z" fill="#F79329"/></g><g clip-path="url(#clip4_16:90)"><path d="M109.704 15.582l-3.809 2.36 1.106-4.325-3.438-2.849 4.471-.327 1.634-4.108 1.708 4.106 4.395.328-3.362 2.85 1.031 4.325-3.736-2.36z" fill="#FCC21B"/><path d="M115.679 21.07a.506.506 0 00.198-.526l-1.501-6.282 4.884-4.136a.5.5 0 00.153-.542.507.507 0 00-.442-.348l-6.383-.475-2.478-5.967a.512.512 0 00-.47-.31.513.513 0 00-.466.319l-2.371 5.956-6.486.477a.502.502 0 00-.444.658c.03.09.084.171.158.233l4.985 4.134-1.602 6.275a.5.5 0 00.191.531.497.497 0 00.563.022l5.528-3.427 5.421 3.425a.5.5 0 00.562-.017zm-5.975-5.488l-3.809 2.362 1.106-4.327-3.437-2.851 4.471-.327 1.634-4.108 1.707 4.107 4.395.329-3.362 2.85 1.032 4.324-3.737-2.36z" fill="#F79329"/></g><defs><clipPath id="clip0_16:90"><path fill="#fff" transform="rotate(-18 19.308 3.058)" d="M0 0h19.792v19.792H0z"/></clipPath><clipPath id="clip1_16:90"><path fill="#fff" transform="rotate(-18 31.453 -73.623)" d="M0 0h19.792v19.792H0z"/></clipPath><clipPath id="clip2_16:90"><path fill="#fff" transform="rotate(-18 44.048 -153.144)" d="M0 0h19.792v19.792H0z"/></clipPath><clipPath id="clip3_16:90"><path fill="#fff" transform="rotate(-18 56.193 -229.826)" d="M0 0h19.792v19.792H0z"/></clipPath><clipPath id="clip4_16:90"><path fill="#fff" transform="rotate(-18 68.338 -306.507)" d="M0 0h19.792v19.792H0z"/></clipPath></defs></svg>