<svg width="20" height="20" fill="none" xmlns="http://www.w3.org/2000/svg"><path fill-rule="evenodd" clip-rule="evenodd" d="M6.22.888C7.199.843 7.51.833 10 .833c2.49 0 2.802.011 3.778.055.977.045 1.644.2 2.227.426a4.51 4.51 0 011.623 1.059c.467.457.827 1.01 1.057 1.622.227.583.382 1.25.427 2.225.045.98.055 1.29.055 3.78 0 2.49-.011 2.802-.055 3.78-.044.974-.2 1.64-.427 2.224a4.496 4.496 0 01-1.057 1.624 4.494 4.494 0 01-1.623 1.057c-.583.227-1.25.382-2.225.427-.978.045-1.29.055-3.78.055-2.49 0-2.802-.011-3.78-.055-.974-.044-1.64-.2-2.224-.427a4.496 4.496 0 01-1.624-1.057 4.492 4.492 0 01-1.058-1.623c-.226-.583-.38-1.25-.426-2.225C.843 12.8.833 12.49.833 10c0-2.49.011-2.802.055-3.778.045-.977.2-1.644.426-2.227a4.497 4.497 0 011.059-1.623 4.493 4.493 0 011.622-1.058c.583-.226 1.25-.38 2.225-.426zm7.484 1.65c-.966-.044-1.257-.053-3.704-.053s-2.737.01-3.704.053c-.894.041-1.38.19-1.703.316a2.846 2.846 0 00-1.054.685 2.843 2.843 0 00-.685 1.054c-.126.324-.275.809-.316 1.703-.044.967-.053 1.257-.053 3.704s.01 2.738.053 3.704c.041.894.19 1.38.316 1.703.147.397.381.758.685 1.054.296.304.657.538 1.054.685.324.126.809.275 1.703.316.967.044 1.256.053 3.704.053 2.448 0 2.738-.01 3.704-.053.894-.041 1.38-.19 1.703-.316a2.844 2.844 0 001.054-.685c.304-.296.538-.657.685-1.054.126-.324.275-.809.316-1.703.044-.966.053-1.257.053-3.704s-.01-2.737-.053-3.704c-.041-.894-.19-1.38-.316-1.703a2.845 2.845 0 00-.685-1.054 2.844 2.844 0 00-1.054-.685c-.324-.126-.809-.275-1.703-.316zM8.83 12.826a3.057 3.057 0 102.2-5.706 3.058 3.058 0 00-2.2 5.705zM6.67 6.668a4.712 4.712 0 116.663 6.664 4.712 4.712 0 01-6.664-6.664zm9.088-.678a1.114 1.114 0 10-1.529-1.62 1.114 1.114 0 001.529 1.62z" fill="#000"/></svg>