<svg width="30" height="31" fill="none" xmlns="http://www.w3.org/2000/svg"><path d="M21.539.512H7.994C3.586.512 0 4.096 0 8.502V22.04c0 4.405 3.586 7.99 7.994 7.99H21.54c4.408 0 7.994-3.585 7.994-7.99V8.502c0-4.406-3.586-7.99-7.994-7.99zm6.263 21.528a6.27 6.27 0 01-6.263 6.26H7.994a6.268 6.268 0 01-6.263-6.26V8.502c0-3.452 2.81-6.26 6.263-6.26H21.54a6.268 6.268 0 016.263 6.26V22.04z" fill="#fff"/><path d="M14.767 7.2c-4.453 0-8.076 3.62-8.076 8.07 0 4.451 3.623 8.072 8.076 8.072 4.452 0 8.075-3.62 8.075-8.071 0-4.45-3.623-8.071-8.075-8.071zm0 14.411c-3.498 0-6.344-2.844-6.344-6.34s2.846-6.34 6.344-6.34a6.35 6.35 0 016.343 6.34 6.35 6.35 0 01-6.343 6.34zm8.268-17.278a2.388 2.388 0 00-2.386 2.385 2.388 2.388 0 002.386 2.385 2.388 2.388 0 002.386-2.385 2.388 2.388 0 00-2.386-2.385zm0 3.04a.655.655 0 11.001-1.311.655.655 0 01-.001 1.31z" fill="#fff"/></svg>