<svg width="358" height="60" fill="none" xmlns="http://www.w3.org/2000/svg"><path fill-rule="evenodd" clip-rule="evenodd" d="M30.38 52.227H18.039L4.89 32.241l3.34-5.076c1.191-1.811 4.532-1.811 5.723 0L24.21 42.753l10.253-15.587c1.191-1.811 4.532-1.811 5.724 0l3.34 5.075L30.38 52.227zm-16.47.031H6.304L.715 43.722c-.954-1.445-.953-3.156 0-4.6l2.312-3.502L13.91 52.258zm28.481-.031l5.808-8.853c.944-1.44.944-3.145 0-4.585l-2.575-3.924-11.389 17.362h8.156zm73.517-26.42L103.14 47.76 90.365 25.807h-4.288v26.451h4.019V34.226c0-.198-.015-.483-.037-.831a9.353 9.353 0 00-.08-.973v-.4c.232.523.632 1.256 1.2 2.193l10.326 18.043h3.088l10.254-18.015c.073-.133.211-.378.422-.739.195-.354.342-.686.414-.983.08-.296.131-.465.175-.5v.401a8.761 8.761 0 00-.08.973c-.03.348-.037.633-.037.83v18.033h4.244V25.807h-4.077zm39.147 20.713c-2.159 1.96-4.935 2.94-8.308 2.94-3.372 0-6.148-.98-8.327-2.94-2.173-1.961-3.269-4.456-3.269-7.49 0-3.057 1.096-5.563 3.269-7.507 2.179-1.944 4.955-2.924 8.327-2.924 3.373 0 6.149.985 8.308 2.94 2.161 1.961 3.237 4.456 3.237 7.49 0 3.035-1.076 5.53-3.237 7.49zm2.893-16.98c-2.944-2.489-6.68-3.733-11.201-3.733-4.521 0-8.263 1.244-11.22 3.734-2.971 2.488-4.456 5.65-4.456 9.488 0 3.84 1.485 7 4.456 9.49 2.957 2.489 6.699 3.74 11.22 3.74 4.521 0 8.257-1.251 11.201-3.74 2.952-2.49 4.424-5.65 4.424-9.49 0-3.838-1.472-7-4.424-9.488zm10.292-3.733l2.393 2.956h11.037v23.495h4.434V28.763h11.044l2.393-2.956H168.24zm42.387 26.451h3.912V25.807h-3.912v26.451zm38.61-23.495l2.472-2.956h-22.172v26.451h4.581V39.783h11.71l2.471-2.95h-14.181v-8.07h15.119zm40.14-2.956l-10.816 13.638-10.809-13.638h-4.958l13.378 16.519v9.932h4.559v-9.932l13.364-16.52h-4.718z" fill="#fff"/><path d="M297.746 56.774a2.2 2.2 0 01-1.147-.296c-.331-.197-.495-.506-.495-.926l.025-.217c.191-1.354.418-2.76.679-4.22.277-1.472.511-2.602.703-3.39l-2.034.433-.313.04c-.331 0-.59-.1-.782-.296a.94.94 0 01-.287-.67l.026-.178a.97.97 0 01.313-.611c.174-.158.504-.316.991-.474.504-.157 1.252-.328 2.243-.512l1.096-.197c.4-.066.729-.099.99-.099.504 0 .879.099 1.122.296.261.197.392.473.392.828 0 .158-.027.329-.079.513-.279 1.025-.808 3.943-1.591 8.754-.139.815-.756 1.222-1.852 1.222zm17.201-4.524c.207 0 .365.08.476.239.127.159.191.377.191.655 0 .529-.152.939-.453 1.23a9.639 9.639 0 01-2.235 1.726c-.808.45-1.735.674-2.782.674-3.235 0-4.852-1.898-4.852-5.694 0-.582.025-1.17.072-1.765h-.927c-.476 0-.802-.073-.976-.219-.159-.145-.237-.377-.237-.694 0-.74.356-1.111 1.069-1.111h1.356c.269-1.455.682-2.784 1.237-3.988.554-1.203 1.221-2.162 1.997-2.877.793-.714 1.641-1.071 2.545-1.071.666 0 1.189.245 1.57.734.38.49.57 1.104.57 1.845 0 2.05-1.03 3.836-3.091 5.357h2.663c.254 0 .437.046.547.139.111.092.167.264.167.516 0 .912-.897 1.369-2.688 1.369h-2.901a33.826 33.826 0 00-.047 1.547c0 1.376.189 2.341.57 2.897.396.555 1.014.833 1.855.833.681 0 1.284-.172 1.808-.516.523-.344 1.14-.86 1.854-1.547a.899.899 0 01.642-.278zm-4.161-10.99c-.238 0-.508.25-.809.754-.286.489-.563 1.177-.832 2.063a24.585 24.585 0 00-.642 2.916c.936-.674 1.633-1.428 2.093-2.262.476-.846.714-1.613.714-2.3 0-.781-.175-1.171-.524-1.171z" fill="#fff" fill-opacity=".88"/><path d="M318.797 56.774c-.96 0-1.781-.185-2.463-.555-.667-.383-1.172-.88-1.513-1.493a3.987 3.987 0 01-.511-1.97c0-.97.227-1.831.682-2.584a4.864 4.864 0 011.902-1.78c.798-.433 1.692-.65 2.684-.65.959 0 1.78.191 2.464.574.683.37 1.195.86 1.536 1.473.343.613.513 1.27.513 1.971 0 .97-.236 1.837-.707 2.603a5.021 5.021 0 01-1.928 1.78c-.797.42-1.683.631-2.659.631zm.269-2.067c.553 0 1.016-.236 1.391-.708.389-.472.585-1.16.585-2.066 0-.702-.162-1.231-.488-1.589-.326-.357-.716-.536-1.171-.536-.586 0-1.073.236-1.464.708-.374.46-.561 1.149-.561 2.067 0 .727.163 1.263.488 1.608a1.61 1.61 0 001.22.516zm11.285 2.067c-.434 0-.817-.099-1.147-.296-.331-.197-.496-.506-.496-.926l.026-.217c.191-1.354.418-2.76.679-4.22a72.79 72.79 0 01.704-3.39l-2.034.433-.313.04c-.331 0-.592-.1-.783-.296a.94.94 0 01-.288-.67l.027-.178a.98.98 0 01.313-.611c.173-.158.504-.316.992-.474.504-.157 1.251-.328 2.242-.512l1.095-.197c.401-.066.731-.099.992-.099.504 0 .878.099 1.121.296.261.197.391.473.391.828 0 .158-.026.329-.078.513-.277 1.025-.808 3.943-1.591 8.754-.139.815-.756 1.222-1.852 1.222z" fill="#fff" fill-opacity=".88"/></svg>