<svg width="146" height="112" fill="none" xmlns="http://www.w3.org/2000/svg"><path d="M20.38 92.968l-8.76 15.345-8.7-15.345H0v18.534h2.737V98.299c0-.25 0-.499-.06-.698v-.299c.182.349.425.897.79 1.545l7.057 12.605h2.13l6.995-12.605c.061-.1.122-.25.304-.498.122-.25.244-.499.305-.698.06-.2.06-.349.121-.349v.3c0 .198-.06.448-.06.697v13.203h2.92V92.968h-2.86zm31.39 2.242c-2.252-1.843-5.11-2.74-8.578-2.74-3.468 0-6.327.897-8.578 2.74-2.25 1.843-3.406 4.185-3.406 7.025 0 2.84 1.155 5.181 3.406 7.025 2.251 1.843 5.11 2.74 8.578 2.74 3.467 0 6.326-.947 8.577-2.74 2.251-1.844 3.407-4.185 3.407-7.025 0-2.84-1.156-5.182-3.407-7.025zm-2.19 12.555c-1.643 1.445-3.773 2.192-6.388 2.192-2.616 0-4.684-.747-6.388-2.192-1.642-1.445-2.494-3.288-2.494-5.53 0-2.242.852-4.135 2.494-5.53 1.643-1.445 3.772-2.143 6.388-2.143 2.615 0 4.684.748 6.387 2.192 1.643 1.445 2.494 3.289 2.494 5.531 0 2.242-.851 4.035-2.494 5.48zm10.767-14.797l1.642 2.092h7.483v16.442h3.041V95.06h7.483l1.642-2.092H60.347zm29.261 0v18.534h3.041V92.968h-3.041zm28.834 2.092l1.643-2.092h-14.6v18.534h3.042v-8.719h7.665l1.642-2.043h-9.307v-5.63h9.915v-.05zm24.455-2.092l-7.178 9.566-7.178-9.566h-3.285l8.881 11.558v6.976h3.042v-6.976L146 92.968h-3.103z" fill="#fff"/><path d="M48.18 74.982H29.99L12.35 46.633l9.185-14.697L48.18 74.982zm39.724 0H58.157L26.402 24.014 41.367 0 73 50.819 104.633 0l14.965 24.014-31.694 50.968zm45.747-28.349l-17.642 28.35H96.36l27.436-44.143 9.855 15.793z" fill="#97E545"/></svg>