<svg width="788" height="201" fill="none" xmlns="http://www.w3.org/2000/svg"><path fill-rule="evenodd" clip-rule="evenodd" d="M202.335 125.117h18.233c7.113 0 9.818 2.929 9.818 10.103 0 6.907-2.706 9.833-9.818 9.833h-18.233v-19.936zm-28.245 72.559h28.247v-29.505h30.255c20.031 0 27.243-14.08 27.243-32.284 0-21.131-7.416-33.088-27.447-33.088H174.09v94.877zm95.061-94.877h76.022v23.116h-47.776v12.758h44.376v23.126h-44.376v12.756h47.776v23.121h-76.022v-94.877zm116.092 22.318h18.23c7.113 0 9.819 2.929 9.819 10.103 0 6.907-2.706 9.833-9.819 9.833h-18.23v-19.936zm-28.247 72.559h28.247v-29.505h30.249c20.037 0 27.251-14.08 27.251-32.284 0-21.131-7.416-33.088-27.452-33.088h-58.295v94.877zm113.087-40.264c-13.82-2.795-19.526-13.425-19.526-26.71 0-24.587 18.131-31.226 41.364-31.226 31.849 0 44.974 11.026 45.977 31.094h-32.857c0-3.855-1.703-6.252-4.303-7.579-2.505-1.458-5.708-1.988-8.817-1.988-8.413 0-11.316 2.787-11.316 6.777 0 2.653.898 4.387 3.703 4.916l33.755 6.641c14.226 2.79 23.042 11.561 23.042 27.636 0 23.129-14.225 34.025-45.98 34.025-21.734 0-45.475-3.985-45.574-31.891h34.056c.096 3.185 1.002 5.31 3.008 6.773 2.097 1.331 5.205 1.997 9.611 1.997 8.813 0 11.221-3.192 11.221-7.711 0-2.79-1.306-5.579-5.104-6.372l-32.26-6.382zm80.233-54.613h28.245v94.877h-28.245v-94.877zm132.927 57.935c-1.803 12.492-5.013 22.591-12.026 29.499-6.907 6.911-17.728 10.765-34.953 10.765-17.128 0-48.882-1.598-48.882-50.758 0-49.17 31.754-50.765 48.882-50.765 17.024 0 43.27 2.92 46.979 40.531H651.39c-.802-6.783-4.213-16.615-15.126-16.615-11.525 0-18.836 7.574-18.836 26.847 0 19.269 7.114 26.837 17.43 26.837 8.917 0 14.226-4.915 16.53-16.342l31.855.001zm36.958-10.493c0-19.274 7.315-26.847 18.836-26.847 11.517 0 18.833 7.574 18.833 26.847 0 19.269-7.316 26.838-18.833 26.838-11.521-.002-18.836-7.571-18.836-26.838zm-30.052 0c0 49.159 31.753 50.759 48.887 50.759 17.129 0 48.882-1.598 48.882-50.759 0-49.17-31.753-50.765-48.882-50.765-17.134 0-48.887 1.594-48.887 50.765zm-558.74-46.502c1.823-45.52-31.075-96.78-75.926-103.117L55.56 0c44.215 0 78.112 48.842 78.112 87.374-.043 8.02-.574 12.99-1.521 16.599l-.742-.234zm-2.68 5.786c-2.941 4.289-6.641 8.607-10.976 12.707C109.779 67.508 76.077 19.655 52.25 5.688l-.51.425c23.962 23.465 52.543 69.04 63.657 118.266-5.669 4.969-11.793 9.154-18.254 12.473C74.531 106.084 53.45 46.744 46.657 9.089l-.691.248c.153 36.551 21.902 98.601 48.424 128.878-6.083 2.873-12.407 4.958-18.863 6.219-25.424-12.018-43.52-50.509-43.52-89.938 0-25.74 6.577-41.664 7.85-44.922l-.542-.257C37.775 12.097 28.14 28.011 28.14 55.8c0 44.569 18.42 78.636 42.877 89.364a70.81 70.81 0 01-26.205-1.468l-.182.679c2.616 1.15 11.492 5.595 25.033 5.595 30.626 0 51.329-22.705 59.663-39.963l-.597-.482z" fill="#fff"/><path fill-rule="evenodd" clip-rule="evenodd" d="M66.474 0c-23.221 0-50.45 18.987-50.45 36.342 0 6.714 5.421 12.385 16.64 12.385 26.045 0 50.241-20.272 50.241-36.035C82.905 4.397 75.874 0 66.474 0zm9.27 12.202c0 13.287-22.522 29.53-41.348 29.53-8.318 0-12.812-3.71-12.812-9.829C21.584 18.425 44.36 2.46 62.02 2.46c11.514 0 13.724 6.637 13.724 9.743z" fill="#0096D6"/><path fill-rule="evenodd" clip-rule="evenodd" d="M6.774 44.379c-.653 1.279-3.267 7.077-3.267 13.019 0 11.018 9.827 21.248 27.903 21.248 34.772 0 74.946-28.998 74.946-55.915 0-12.082-10.096-18.651-17.105-20.01l-.131.472c2.18.781 10.166 4.988 10.166 15.75 0 21.448-35.47 50.67-70.802 50.67-13.527 0-22.048-7.564-22.048-18.583 0-3.486.64-5.782.81-6.447l-.472-.204z" fill="#EB7B30"/><path fill-rule="evenodd" clip-rule="evenodd" d="M120.693 24.743c.954.82 6.681 6.228 6.681 16.455 0 34.87-48.224 69.157-90.857 69.157-25.424 0-37.014-14.222-36.5-26.85h.455c.996 6.558 9.251 18.293 31.503 18.293 42.687 0 90.348-35.478 90.348-66.563 0-5.332-1.279-8.655-2.001-10.132l.371-.36z" fill="#00984A"/><path fill-rule="evenodd" clip-rule="evenodd" d="M136.811 57.295c.2.742 1.239 4.08 1.239 9.308 0 38.789-48.803 71.996-91.247 71.996-21.845 0-33.253-12.022-35.662-16.904l.389-.326c6.045 5.99 17.95 10.54 31.845 10.54 37.486 0 93.421-32.31 92.922-74.473l.514-.141z" fill="#DF002C"/></svg>