<svg width="196" height="48" fill="none" xmlns="http://www.w3.org/2000/svg"><path fill-rule="evenodd" clip-rule="evenodd" d="M50.307 31.048h4.536c1.77 0 2.443.644 2.443 2.222 0 1.519-.674 2.162-2.443 2.162h-4.536v-4.384zm-7.028 15.955h7.028v-6.487h7.527c4.984 0 6.779-3.096 6.779-7.1 0-4.646-1.845-7.275-6.83-7.275H43.28v20.862zM66.93 26.141h18.915v5.083H73.958v2.805h11.04v5.085h-11.04v2.805h11.887v5.084H66.93V26.141zm28.884 4.907h4.536c1.769 0 2.443.644 2.443 2.222 0 1.519-.674 2.162-2.443 2.162h-4.536v-4.384zm-7.028 15.955h7.028v-6.487h7.526c4.985 0 6.78-3.096 6.78-7.1 0-4.646-1.845-7.275-6.83-7.275H88.786v20.862zm28.137-8.853c-3.439-.615-4.859-2.952-4.859-5.873 0-5.407 4.511-6.867 10.292-6.867 7.924 0 11.189 2.425 11.439 6.837h-8.175c0-.847-.424-1.374-1.071-1.666-.623-.32-1.42-.437-2.193-.437-2.094 0-2.816.613-2.816 1.49 0 .583.224.965.922 1.08l8.398 1.461c3.539.614 5.733 2.542 5.733 6.077 0 5.086-3.539 7.482-11.44 7.482-5.408 0-11.314-.876-11.339-7.013h8.473c.024.7.25 1.168.749 1.49.521.292 1.295.439 2.391.439 2.192 0 2.792-.702 2.792-1.696 0-.613-.325-1.227-1.27-1.401l-8.026-1.403zm19.961-12.01h7.028v20.863h-7.028V26.141zm33.073 12.74c-.449 2.747-1.248 4.968-2.992 6.487-1.719 1.52-4.411 2.367-8.697 2.367-4.261 0-12.161-.352-12.161-11.161 0-10.812 7.9-11.163 12.161-11.163 4.236 0 10.766.642 11.689 8.912h-7.925c-.2-1.491-1.049-3.653-3.764-3.653-2.867 0-4.686 1.665-4.686 5.903 0 4.237 1.77 5.901 4.337 5.901 2.218 0 3.539-1.08 4.112-3.593h7.926zm9.195-2.307c0-4.238 1.82-5.903 4.686-5.903 2.866 0 4.686 1.665 4.686 5.903 0 4.237-1.82 5.901-4.686 5.901-2.866 0-4.686-1.664-4.686-5.901zm-7.477 0c0 10.81 7.9 11.161 12.163 11.161 4.262 0 12.162-.351 12.162-11.161 0-10.812-7.9-11.163-12.162-11.163-4.263 0-12.163.35-12.163 11.163zM32.66 26.348c.454-10.01-7.731-21.281-18.89-22.675l.019-.136c11 0 19.434 10.74 19.434 19.212-.01 1.764-.142 2.857-.378 3.65l-.185-.051zm-.666 1.272a18.39 18.39 0 01-2.731 2.794C27.279 18.381 18.893 7.859 12.965 4.787l-.127.094c5.962 5.16 13.073 15.181 15.838 26.005a22.834 22.834 0 01-4.541 2.743c-5.626-6.766-10.871-19.814-12.561-28.094l-.172.055c.038 8.037 5.45 21.681 12.048 28.339a21.831 21.831 0 01-4.693 1.367C12.43 32.654 7.929 24.19 7.929 15.52c0-5.66 1.636-9.162 1.953-9.878l-.135-.057c-.383.611-2.78 4.11-2.78 10.221 0 9.8 4.583 17.291 10.668 19.65a19.882 19.882 0 01-6.52-.322l-.045.15c.65.252 2.859 1.23 6.228 1.23 7.62 0 12.77-4.993 14.844-8.788l-.149-.106z" fill="#28458E"/><path fill-rule="evenodd" clip-rule="evenodd" d="M16.536 0c-5.777 0-12.55 4.396-12.55 8.415 0 1.554 1.349 2.868 4.14 2.868 6.478 0 12.497-4.694 12.497-8.344 0-1.92-1.749-2.939-4.087-2.939zm2.306 2.825c0 3.077-5.603 6.838-10.286 6.838-2.069 0-3.187-.859-3.187-2.276C5.37 4.267 11.035.57 15.428.57c2.864 0 3.414 1.537 3.414 2.256z" fill="#0096D6"/><path fill-rule="evenodd" clip-rule="evenodd" d="M1.685 10.276c-.162.296-.813 1.639-.813 3.014 0 2.552 2.445 4.92 6.941 4.92 8.65 0 18.644-6.714 18.644-12.947 0-2.797-2.512-4.318-4.255-4.633l-.033.11c.542.18 2.53 1.154 2.53 3.646 0 4.966-8.824 11.733-17.613 11.733-3.365 0-5.485-1.752-5.485-4.303 0-.807.16-1.339.201-1.493l-.117-.047z" fill="#EB7B30"/><path fill-rule="evenodd" clip-rule="evenodd" d="M30.023 5.73c.237.19 1.662 1.441 1.662 3.81 0 8.073-11.996 16.012-22.601 16.012-6.325 0-9.208-3.293-9.08-6.217h.113c.248 1.519 2.302 4.236 7.837 4.236 10.619 0 22.475-8.215 22.475-15.412 0-1.235-.318-2.004-.498-2.346l.092-.084z" fill="#00984A"/><path fill-rule="evenodd" clip-rule="evenodd" d="M34.033 13.267c.05.172.308.944.308 2.155 0 8.981-12.14 16.67-22.698 16.67-5.435 0-8.272-2.783-8.872-3.914l.097-.075c1.504 1.387 4.465 2.44 7.922 2.44 9.325 0 23.239-7.481 23.115-17.244l.128-.032z" fill="#DF002C"/></svg>