<svg width="167" height="31" fill="none" xmlns="http://www.w3.org/2000/svg"><path d="M21.539.512H7.994C3.586.512 0 4.096 0 8.502V22.04c0 4.405 3.586 7.99 7.994 7.99H21.54c4.408 0 7.994-3.585 7.994-7.99V8.502c0-4.406-3.586-7.99-7.994-7.99zm6.263 21.528a6.27 6.27 0 01-6.263 6.26H7.994a6.268 6.268 0 01-6.263-6.26V8.502c0-3.452 2.81-6.26 6.263-6.26H21.54a6.268 6.268 0 016.263 6.26V22.04z" fill="#fff"/><path d="M14.767 7.2c-4.453 0-8.076 3.62-8.076 8.07 0 4.451 3.623 8.072 8.076 8.072 4.452 0 8.075-3.62 8.075-8.071 0-4.45-3.623-8.071-8.075-8.071zm0 14.411c-3.498 0-6.344-2.844-6.344-6.34s2.846-6.34 6.344-6.34a6.35 6.35 0 016.343 6.34 6.35 6.35 0 01-6.343 6.34zm8.268-17.278a2.388 2.388 0 00-2.386 2.385 2.388 2.388 0 002.386 2.385 2.388 2.388 0 002.386-2.385 2.388 2.388 0 00-2.386-2.385zm0 3.04a.655.655 0 11.001-1.311.655.655 0 01-.001 1.31zm56.277-2.991a1.117 1.117 0 00-1.215-.318l-27.534 9.545c-.55.192-.936.657-1.008 1.214-.07.554.184 1.092.662 1.401l3.935 2.578c.382.25.872.276 1.28.07l8.537-4.32-6.653 4.767c-.313.224-.5.58-.5.955v4.415c0 .455.261.872.68 1.089.42.216.927.195 1.326-.057l2.99-1.903 2.94 1.923a1.596 1.596 0 001.188.228 1.566 1.566 0 001.002-.671L79.399 5.592c.242-.38.207-.865-.087-1.21zM65.56 24.227l-3.046-1.992a1.276 1.276 0 00-1.386-.008l-2.552 1.624v-3.328l11.748-8.416c.525-.376.657-1.06.307-1.591a1.263 1.263 0 00-1.63-.418L54.888 17.24l-3.328-2.18 25.354-8.79L65.56 24.227zM124.908 4.25A14.23 14.23 0 00114.781.058h-.001c-1.892 0-3.736.366-5.481 1.088a14.252 14.252 0 00-4.645 3.104 14.217 14.217 0 00-4.195 10.122c0 2.28.551 4.546 1.594 6.565l-2.407 6.874c-.17.485-.05 1.012.314 1.375a1.317 1.317 0 001.375.314l6.878-2.406a14.369 14.369 0 006.568 1.593c3.826 0 7.422-1.49 10.127-4.193a14.217 14.217 0 004.195-10.122c0-3.823-1.489-7.418-4.195-10.122zm-1.225 19.02a12.507 12.507 0 01-8.902 3.685c-2.057 0-4.101-.508-5.91-1.47a1.334 1.334 0 00-1.064-.083l-6.248 2.185 2.187-6.244a1.33 1.33 0 00-.083-1.064 12.607 12.607 0 01-1.472-5.907 12.5 12.5 0 013.688-8.898 12.51 12.51 0 018.901-3.685h.001a12.51 12.51 0 018.902 3.685 12.493 12.493 0 013.688 8.898c0 3.361-1.309 6.521-3.688 8.898z" fill="#fff"/><path d="M120.104 15.65a1.693 1.693 0 00-2.39 0l-.721.72a10.485 10.485 0 01-4.212-4.209l.721-.72a1.69 1.69 0 000-2.389l-1.942-1.94a1.693 1.693 0 00-2.39 0l-1.553 1.552c-.89.89-.934 2.418-.125 4.305.702 1.639 1.988 3.44 3.62 5.07 1.632 1.632 3.434 2.917 5.073 3.619.897.384 1.713.576 2.418.576.779 0 1.422-.234 1.889-.701l1.554-1.553c.319-.319.495-.743.495-1.194 0-.451-.176-.875-.495-1.194l-1.942-1.941zm-.837 4.659c-.254.253-1.034.342-2.4-.242-1.441-.618-3.05-1.773-4.53-3.252-1.48-1.479-2.635-3.087-3.253-4.528-.585-1.364-.496-2.145-.242-2.399l1.523-1.523 1.882 1.881-.902.902a1.321 1.321 0 00-.245 1.539 12.215 12.215 0 005.368 5.364 1.322 1.322 0 001.539-.245l.902-.901 1.882 1.881-1.524 1.523zM159.62 30h-4.799a1.456 1.456 0 01-1.454-1.455V17.709h-2.8a1.456 1.456 0 01-1.453-1.456V11.61c0-.802.652-1.455 1.453-1.455h2.8V7.83c0-2.306.723-4.267 2.091-5.673C156.832.746 158.752 0 161.011 0l3.66.006c.8.001 1.451.654 1.451 1.455v4.311c0 .803-.651 1.456-1.453 1.456h-2.464c-.752 0-.943.151-.984.198-.067.076-.148.293-.148.892v1.837h3.411c.257 0 .506.063.719.182.461.258.748.746.748 1.273l-.002 4.644c0 .802-.652 1.454-1.453 1.454h-3.423v10.837c0 .802-.652 1.455-1.453 1.455zm-4.496-1.759h4.192v-11.32c0-.536.436-.971.971-.971h3.905l.002-4.036h-3.907a.973.973 0 01-.971-.972V8.318c0-.688.07-1.469.588-2.056.626-.71 1.613-.792 2.301-.792l2.161-.001V1.764l-3.356-.005c-3.63 0-5.886 2.326-5.886 6.07v3.113a.973.973 0 01-.971.972h-3.283v4.036h3.283c.535 0 .971.435.971.971v11.32zm9.544-26.476z" fill="#fff"/></svg>