<svg width="14" height="14" fill="none" xmlns="http://www.w3.org/2000/svg"><g clip-path="url(#clip0_17:111)"><path d="M3.197 1.162a.593.593 0 00-.888-.055l-.905.905c-.422.424-.578 1.023-.393 1.55a15.372 15.372 0 003.647 5.781 15.373 15.373 0 005.782 3.647c.525.185 1.125.03 1.548-.393l.905-.905a.594.594 0 00-.055-.888l-2.019-1.57a.593.593 0 00-.507-.107l-1.916.479a1.527 1.527 0 01-1.45-.402l-2.15-2.15a1.527 1.527 0 01-.402-1.45l.48-1.916a.593.593 0 00-.107-.507l-1.57-2.019zM1.648.447A1.527 1.527 0 013.934.59l1.57 2.017c.288.37.39.853.275 1.308L5.301 5.83a.593.593 0 00.155.563l2.15 2.15a.593.593 0 00.564.155l1.915-.478a1.527 1.527 0 011.307.275l2.018 1.57c.726.564.792 1.636.143 2.285l-.905.904c-.647.648-1.615.932-2.517.615a16.305 16.305 0 01-6.134-3.868A16.305 16.305 0 01.129 3.87C-.187 2.968.097 2 .745 1.352l.904-.905z" fill="#9174CE"/></g><defs><clipPath id="clip0_17:111"><path fill="#fff" d="M0 0h14v14H0z"/></clipPath></defs></svg>