<svg width="35" height="35" fill="none" xmlns="http://www.w3.org/2000/svg"><path d="M34.385 7.43a1.817 1.817 0 00-1.815-.312L9.134 16.174a1.77 1.77 0 00-.867.707 1.727 1.727 0 00.19 2.095c.259.282.603.473.982.545l6.157 1.212v7.519c0 .345.104.681.298.968.194.287.47.51.793.643.218.088.45.134.686.138a1.778 1.778 0 001.257-.512l3.465-3.41 5.18 4.484c.32.283.737.439 1.168.437.185.002.37-.028.545-.087.293-.092.557-.258.764-.482a1.72 1.72 0 00.417-.793l4.786-20.497a1.72 1.72 0 00-.045-.933c-.1-.302-.282-.57-.526-.778zM9.54 17.822a.222.222 0 01.03-.152.228.228 0 01.123-.098l19.613-7.581-13.126 9.33-6.436-1.274a.23.23 0 01-.146-.074.223.223 0 01-.058-.15zm8.01 10.605a.242.242 0 01-.279.05.252.252 0 01-.152-.225v-6.483l3.821 3.323-3.39 3.335zm11.146.874a.249.249 0 01-.168.189.258.258 0 01-.25-.051L17.577 20.17 33.445 8.904 28.697 29.3z" fill="#fff"/></svg>