<svg width="420" height="268" fill="none" xmlns="http://www.w3.org/2000/svg"><path d="M16.76 233.527H0v-11.809h45.726v11.833h-16.76v32.609H16.76v-32.633zm75.831-11.809v44.255H80.794v-25.737l-20.341 25.807H50.038v-44.255h11.798v25.808l20.34-25.808 10.415-.07zm20.321 44.325h-11.798v-44.255h11.798v16.305h18.957v-16.305h11.798v44.255h-11.798v-16.491h-18.957v16.491zm39.257 0v-44.255h11.798v11.926h12.205a22.163 22.163 0 018.624 1.211c2.682 1.033 4.997 3.037 6.597 5.709 1.6 2.672 2.397 5.868 2.272 9.105.102 3.509-.853 6.953-2.704 9.752-1.852 2.799-4.488 4.783-7.467 5.621a23.63 23.63 0 01-7.404 1.024l-23.921-.093zm11.798-10.714h10.171a9.8 9.8 0 004.637-.652c.901-.425 1.669-1.149 2.206-2.079a6.18 6.18 0 00.805-3.139 5.49 5.49 0 00-.858-3.065c-.574-.885-1.389-1.528-2.315-1.826a12.093 12.093 0 00-4.557-.559h-10.17l.081 11.32zm46.845 10.714h-11.798v-44.255h11.798v16.677h3.255l14.238-16.677h14.808l-18.876 21.243 19.608 23.105h-15.703l-14.075-16.77h-3.255v16.677z" fill="#fff"/><path d="M293.701 243.962c0 13.23-9.52 23.479-25.304 23.479-15.785 0-25.386-10.249-25.386-23.479 0-13.23 9.52-23.455 25.487-23.455 15.968 0 25.203 10.225 25.203 23.455zm-12.368 0c0-7.267-5.125-12.578-12.936-12.578s-12.937 5.311-12.937 12.578c0 7.267 5.044 12.671 12.937 12.671 7.892 0 12.936-5.404 12.936-12.671zm75.017-.093c0 12.671-8.868 19.286-23.758 19.659V268h-11.797v-4.472c-14.808-.373-23.677-6.988-23.677-19.659s8.869-19.845 23.677-20.218v-4.448h11.797v4.402c14.89.419 23.758 7.593 23.758 20.264zm-35.555-10.621c-8.137.373-11.717 4.658-11.717 10.621s3.58 9.783 11.717 10.155v-20.776zm23.514 10.621c0-5.963-3.499-10.248-11.717-10.621v20.776c8.218-.372 11.717-4.192 11.717-10.155zm74.711 0c0 12.671-8.868 19.286-23.758 19.659V268h-11.797v-4.472c-14.808-.373-23.677-6.988-23.677-19.659s8.869-19.845 23.677-20.218v-4.448h11.797v4.402c14.869.419 23.758 7.593 23.758 20.264zm-35.555-10.621c-8.137.373-11.717 4.658-11.717 10.621s3.58 9.783 11.717 10.155v-20.776zm23.514 10.621c0-5.963-3.499-10.248-11.717-10.621v20.776c8.198-.372 11.696-4.192 11.696-10.155h.021z" fill="#fff"/><path fill-rule="evenodd" clip-rule="evenodd" d="M174.483 125.662c2.034-1.934 3.885-2.889 3.804-7.547-3.193 1.863-12.204 1.77-16.008-4.193-1.078-1.7 0-2.539 1.098-1.211 2.584 3.354 7.364 1.84 9.113.862a8.271 8.271 0 00-1.627-3.308c.651-.745 2.502-1.84 2.888-3.726a20.478 20.478 0 00-4.922-1.048 3.922 3.922 0 001.027-1.908c.167-.74.135-1.52-.092-2.238-3.926 1.374-8.767-.49-9.865-2.143-1.098-1.654 0-3.168.936-2.097 2.034 2.33 11.574 5.055 15.154.955-1.272-.387-2.373-1.3-3.092-2.562 3.315-.373 5.96-2.609 6.102-5.404a13.07 13.07 0 01-6.468-1.164 3.93 3.93 0 001.964-1.187 4.837 4.837 0 001.127-2.19c-6.102-.42-6.549-5.567-6.57-6.43 3.946 2.61 10.903 1.445 9.093-4.96-3.275-.21-6.591-6.29 2.441-11.88 8.136-5.077 17.533-10.574 16.72-19.588-.55-5.777-8.849-9.713-9.906-12.648-3.458 1.887-4.068 4.076-2.604 7.756 0 0-7.729.886-8.34-4.658a9.37 9.37 0 01.704-3.585 8.291 8.291 0 011.981-2.89c-.874 0-6.692-1.794-8.441 3.657-3.275-2.54-6.102-2.47-8.258.232 3.498 2.33 5.675 10.552 11.472 12.974-4.068 2.562-10.801 1.491-14.686-6.382-3.682 6.359-5.797 12.648 2.034 19.356-14.381 7.5-14.239 21.801-26.769 28.626 1.282 3.89 3.946 3.89 7.343 3.284-5.41 8.036-.793 16.468-9.356 19.892.793 3.284 2.4 5.893 5.573 4.938-.895 1.607-1.485 1.56-2.888 3.331 4.678 3.377 10.17.931 11.492-9.9.224-1.933 2.543-.722 1.749 1.165-5.329 12.624 8.137 22.128 3.377 31.398 4.211-.21 7.404-.582 9.174-2.213a11.644 11.644 0 011.179 5.777c.872-.092 1.686-.536 2.298-1.254.611-.717.979-1.66 1.038-2.659 1.526 5.077 6.957 10.504 15.683 10.504-4.617-7.523-.325-15.186-6.855-23.804l.183.07zm-8.787 9.247l-1.871 3.633a50.15 50.15 0 00-2.645-6.615c-1.484 3.541-3.864 3.61-6.102 3.61.651-8.408-8.624-16.91-4.556-26.553.211-.458.341-.959.382-1.475a4.474 4.474 0 00-.145-1.53 4.1 4.1 0 00-.649-1.348 3.531 3.531 0 00-1.053-.957c-6.224-3.611-3.336 11.39-9.56 11.832a20.745 20.745 0 001.81-5.567c-1.322.396-4.495 2.702-5.919-.256 1.455-.91 2.694-2.213 3.609-3.796a12.78 12.78 0 001.639-5.288 39.155 39.155 0 011.75-8.106 45.9 45.9 0 014.617-7.453c-.631 0-7.628 1.793-9.194.955 12.103-8.502 9.377-19.333 27.806-28.952-4.841-4.123-9.784-7.384-6.245-15.257 5.045 6.988 14.666 4.659 19.832 1.305-5.126-1.165-11.736-6.336-13.303-12.089 2.035-.35 4.435 2.05 5.879 3.168.692-2.12.976-4.659 3.214-5.124-2.99 7.36 2.929 11.18 8.584 11.203.874 0 4.536-.42 4.536-.42-.59-1.373-2.95-5.123-1.221-6.66 1.383 1.49 3.031 2.678 4.536 3.982 10.984 9.736-5.227 18.75-11.858 22.85-10.415 6.429-7.628 14.092-3.275 16.048 0 .862-.489 1.258-1.2 1.514-3.031 1.165-5.899-1.328-8.32-2.911.143 4.798-.142 9.317 4.495 12.065l-3.193 1.351c2.746 2.33 3.58 3.657 6.895 4.146a13.295 13.295 0 01-5.105 1.025 15.09 15.09 0 001.627 4.332c-6.773.932-9.479-3.517-11.574-3.33-4.475.372-4.19 10.015 6.814 10.015l-1.139 2.166a11.543 11.543 0 004.069 1.654c-.733.675-1.445 1.584-2.035 2.329l1.75 1.724c-4.496.931-5.757-4.659-8.665-1.91-4.435 4.029 5.349 12.531 14.747 11.273a31.902 31.902 0 01-3.946 3.75c7.648 8.269 3.885 16.072 7.017 21.779-2.952-.201-5.771-1.478-8.044-3.644-2.273-2.167-3.88-5.11-4.588-8.399" fill="#DEE0E1"/><path fill-rule="evenodd" clip-rule="evenodd" d="M153.817 104.815c1.587 1.887 3.519 2.096 7.16 1.817-4.068-.559-6.265-1.677-7.668-4.659a50.465 50.465 0 01-.407-5.054c.123-5.945 1.565-11.756 4.19-16.887.099 2.754 1.035 5.38 2.647 7.427 1.613 2.046 3.799 3.382 6.181 3.777-5.492-2.749-8.726-8.945-6.957-14.93a88.668 88.668 0 013.885-6.453c.733-1.071 1.424-2.073 2.034-3.028-.732 3.052 2.482 6.22 4.658 6.732-1.179-1.305-3.681-5.567 2.035-12.671a26.065 26.065 0 00-4.76 3.33c10.536-13.043 19.202-13.416 23.188-19.984-5.776 4.519-21.032 6.988-27.887 4.821 3.783 2.889 12.917 2.632 15.134 2.097-7.445 8.292-23.677 16.84-26.443 24.456 2.568-3.537 6.051-6.05 9.946-7.173a78.975 78.975 0 00-6.794 13.37c-4.312 10.737-10.17 10.877-10.475 19.751 2.034-6.988 5.98-8.618 8.746-13.114a50.553 50.553 0 00-.63 9.76 34.266 34.266 0 001.912 10.691c-.285 4.379 0 11.856 4.455 16.817-2.425-4.112-3.604-9.022-3.357-13.975 3.438 7.593 13.222 18.074 17.961 25.109-4.739-9.061-16.272-19.636-18.835-31.864M262.213 68.34c3.895 1.126 7.377 3.638 9.947 7.173-2.807-7.616-19.06-16.165-26.443-24.457 2.237.536 11.37.816 15.154-2.096-6.855 2.143-22.131-.303-27.888-4.821 4.069 6.568 12.652 6.987 23.189 19.984a25.977 25.977 0 00-4.76-3.33c5.797 7.104 3.295 11.343 2.034 12.67 2.156-.535 5.391-3.68 4.658-6.73.692.954 1.404 1.979 2.034 3.027a87.85 87.85 0 013.865 6.452c1.749 5.986-1.485 12.182-6.956 14.93 2.379-.395 4.563-1.732 6.172-3.778 1.609-2.047 2.541-4.674 2.635-7.425 2.629 5.129 4.071 10.941 4.19 16.887a50.792 50.792 0 01-.406 5.054c-1.404 3.051-3.662 4.169-7.649 4.658 3.641.257 5.553 0 7.16-1.816-2.502 12.205-14.096 22.803-18.835 31.863 4.739-6.987 14.523-17.515 17.961-25.109.246 4.954-.933 9.863-3.357 13.976 4.374-4.938 4.72-12.415 4.435-16.817a34.632 34.632 0 001.912-10.691 49.384 49.384 0 00-.631-9.76c2.767 4.519 6.774 6.243 8.747 13.114-.366-8.875-6.102-9.014-10.476-19.752a78.054 78.054 0 00-6.794-13.37" fill="#DEE0E1"/><path fill-rule="evenodd" clip-rule="evenodd" d="M281.008 88.51c3.397.606 6.102.606 7.343-3.284-12.51-6.824-12.408-21.126-26.768-28.626 7.892-6.708 5.776-13.02 2.034-19.356-3.885 7.873-10.578 8.944-14.686 6.382 5.797-2.329 7.973-10.598 11.472-12.973-2.075-2.702-4.923-2.865-8.177-.373-1.77-5.427-7.567-3.657-8.442-3.657a8.28 8.28 0 011.982 2.89 9.369 9.369 0 01.703 3.585c-.61 5.45-8.319 4.659-8.319 4.659 1.546-3.68.875-5.87-2.604-7.756-1.057 2.934-9.356 6.87-9.885 12.647-.834 9.037 8.502 14.511 16.7 19.589 9.031 5.59 5.715 11.646 2.44 11.879-1.81 6.428 5.147 7.57 9.093 4.961 0 .862-.509 6.01-6.57 6.429a4.837 4.837 0 001.127 2.19 3.928 3.928 0 001.965 1.187 13.163 13.163 0 01-6.469 1.165c.224 2.795 2.868 5.03 6.102 5.403-.701 1.286-1.797 2.224-3.071 2.633 3.58 4.076 13.201 1.397 15.154-.955.895-1.072 2.034.465.935 2.073-1.098 1.607-5.939 3.54-9.865 2.166a4.347 4.347 0 00-.096 2.233 3.946 3.946 0 001.012 1.913 20.468 20.468 0 00-4.821 1.048c.366 1.887 2.237 2.981 2.888 3.727a8.216 8.216 0 00-1.708 3.307c1.749.978 6.549 2.492 9.112-.862 1.038-1.327 2.177-.489 1.119 1.212-3.783 5.962-12.815 6.056-16.008 4.192 0 4.659 1.668 5.614 3.803 7.57-6.529 8.618-2.217 16.305-6.834 23.805 8.706 0 14.239-5.427 15.683-10.505.059 1 .427 1.943 1.038 2.66.612.717 1.426 1.161 2.298 1.253a11.827 11.827 0 011.179-5.776c1.77 1.63 4.984 2.003 9.174 2.212-4.76-9.317 8.726-18.75 3.377-31.398-.794-1.886 1.525-3.097 1.749-1.164 1.241 10.807 6.814 13.276 11.492 9.899-1.403-1.77-2.034-1.724-2.888-3.331 3.153.955 4.76-1.654 5.573-4.938-8.563-3.447-3.946-11.855-9.356-19.891l.02-.024zm.692 21.522a20.054 20.054 0 001.79 5.591c-6.225-.466-3.336-15.466-9.561-11.856a3.54 3.54 0 00-1.052.957 4.11 4.11 0 00-.649 1.348 4.474 4.474 0 00-.145 1.53c.041.516.171 1.017.382 1.475 4.068 9.643-5.207 18.145-4.678 26.6-2.299 0-4.679 0-6.103-3.61a50.283 50.283 0 00-2.644 6.615l-1.871-3.634c-.71 3.287-2.319 6.228-4.591 8.394-2.272 2.166-5.09 3.445-8.041 3.648 3.133-5.706-.631-13.486 7.018-21.778a31.413 31.413 0 01-3.947-3.75c9.398 1.281 19.182-7.244 14.727-11.273-2.909-2.632-4.19 2.841-8.665 1.91l1.749-1.724c-.61-.699-1.322-1.607-2.034-2.329a11.468 11.468 0 004.068-1.654l-1.139-2.166c11.005 0 11.269-9.643 6.814-10.016-2.034-.186-4.82 4.24-11.573 3.331a15.741 15.741 0 001.627-4.332c-1.741 0-3.469-.347-5.106-1.025 3.316-.49 4.068-1.77 6.896-4.146l-3.194-1.351c4.638-2.656 4.353-7.267 4.475-12.066-2.42 1.608-5.288 4.077-8.299 2.912-.712-.28-1.2-.652-1.2-1.514 4.353-1.957 7.119-9.62-3.275-16.048-6.712-4.17-22.944-13.16-11.94-22.803 1.505-1.305 3.133-2.493 4.516-3.983 1.729 1.514-.631 5.264-1.221 6.661 0 0 3.662.42 4.516.42 5.655 0 11.594-3.867 8.604-11.204 2.258.536 2.523 3.005 3.194 5.124 1.444-1.118 3.946-3.517 5.878-3.168-1.566 5.754-8.136 10.924-13.303 12.09 5.187 3.237 14.788 5.636 19.833-1.305 3.539 7.85-1.384 11.133-6.245 15.256 18.449 9.643 15.723 20.45 27.826 28.952-1.566.839-8.584-.838-9.194-.955a45.284 45.284 0 014.638 7.454 39.377 39.377 0 011.79 8.106c.17 1.886.737 3.697 1.65 5.279.914 1.582 2.148 2.887 3.598 3.805-1.424 2.958-4.577.652-5.899.256m-87.832 23.571l2.624-2.562-.406-.931c-.285-.653-.143-.699.162-.955l1.383-1.188c.15-.128.326-.21.511-.239a.974.974 0 01.547.076l4.068 1.118h-4.292a1.538 1.538 0 00-1.049.355 1.947 1.947 0 00-.639 1.019l-.305.722-1.139 2.655a3.386 3.386 0 00-.289 1.839c.077.632.328 1.22.716 1.678l.793 1.072-1.586 3.796h1.363l1.118-2.608c.938-.984 1.638-2.227 2.034-3.611-.467-.442-.813-.745-.549-1.374l.509-1.234c.162-.42.224-.583.712-.466l4.373 1.095c.327.187.702.234 1.057.131.355-.102.665-.347.875-.69.611-1.049.692-.932 2.034-.769l2.238.279c2.517.371 5.072-.201 7.282-1.63a33.58 33.58 0 001.627 2.772c.143.303 0 .745-.285 1.304l-2.42 6.801h3.865l2.196-6.265a3.69 3.69 0 01.733-1.305l-1.261 7.57h3.742l.997-7.5c.224-1.653 0-2.189-.61-2.888-1.567-1.514-1.526-4.658-2.034-6.615.283-.184.612-.258.935-.21.814 0 1.424 2.493 2.401 4.007 1.912 3.098 4.536 6.498 7.546 1.7a11.246 11.246 0 00-.976-1.514l-.834-1.118c-.489-.629-2.807-3.657-3.784-4.658-.898-1.023-2.07-1.67-3.327-1.839-1.258-.169-2.529.15-3.609.907-3.051-1.817-6.265 0-7.038 0l-5.248-.373a.938.938 0 01-.492-.166 1.127 1.127 0 01-.362-.416l.976-.373c-.915-4.355-3.214-8.012-7.221-8.618 0 0-.244-1.374-.834-1.654l-1.2 1.631c-.35.057-.692.167-1.017.326l-5.126-2.19 3.845 4.449s-1.912 3.168-2.543 3.82a1.282 1.282 0 00-.292.827c0 .309.104.605.292.827l.753 1.118c.386.582.813.559 1.424.186l.834-.489c.366-.349 1.606.35 2.034-.209a20.145 20.145 0 00-.346 3.47l-3.458-.466a1.542 1.542 0 00-.828-.008 1.66 1.66 0 00-.738.428l-2.95 2.585c-.48.429-.811 1.039-.934 1.722a3.311 3.311 0 00.263 2.005l1.159 2.841zm28.478.746l-2.34 6.591h-1.444l2.339-6.382c.244-.815-.223-1.211-.793-2.119a16.093 16.093 0 002.543 1.397 3.364 3.364 0 00-.285.513h-.02zm-22.518-14.302l-.671.396c-.468.303-.692.443-1.098-.139l-.285-.42a.965.965 0 01-.114-.556.92.92 0 01.216-.515l2.868-3.843-2.645-2.493 3.377 1.421 1.241-1.77c.366.349.244 1.374.244 1.374 1.578.367 2.992 1.361 3.994 2.805 1.001 1.445 1.524 3.248 1.477 5.091.469.82 1.199 1.396 2.034 1.607l5.838.396c.956 0 3.377-2.119 6.489 0a5.784 5.784 0 012.482-1.094 6.856 6.856 0 013.593 1.16c1.094.724 2.013 1.75 2.672 2.986 1.098 1.584 2.603 4.029 2.603 4.029-.651.885-1.281 1.165-1.81.955a2.877 2.877 0 01-.904-.984 3.356 3.356 0 01-.418-1.345c-.428-1.207-1.131-2.261-2.034-3.051.43 1.115.731 2.289.895 3.494-2.279-2.586-2.706-5.754-4.313-6.173a2.076 2.076 0 00-1.297.199 2.444 2.444 0 00-1.001.966c.813 2.143.773 4.658 1.586 6.265.631 1.235.753 1.351 1.038 1.631.671.559.285 1.537.183 2.329l-.875 6.196h-1.464l.956-6.08c.284-1.84-4.252-1.84-6.57-5.38-2.034 2.655-7.526 1.98-9.927 1.56a1.794 1.794 0 00-1.378-.002 2.129 2.129 0 00-1.063 1.004c-.305.629-.834.443-1.159.349l-4.373-1.071a.954.954 0 00-.438-.104.954.954 0 00-.437.113 1.08 1.08 0 00-.356.309 1.26 1.26 0 00-.213.451l-.875 2.073a1.042 1.042 0 00-.126.653c.03.228.133.435.289.581l.427.513a4.19 4.19 0 01-1.038 1.746l-.956-1.234a2.392 2.392 0 01-.354-1.144 2.454 2.454 0 01.232-1.185l1.424-3.378a1.27 1.27 0 01.428-.565c.188-.137.407-.207.63-.203h5.411l-1.668-3.098c-1.241-2.329.813-6.452.508-8.409-.163 2.609-2.909 1.421-3.356 1.771l.081-.187zm-5.899 7.803l2.563-2.329c.162-.201.361-.358.583-.459a1.4 1.4 0 01.699-.123l3.62.535c.163.704.424 1.372.773 1.98l-3.844-.931a1.157 1.157 0 00-.652.008c-.213.065-.408.19-.568.364l-1.831 1.584c-.163.166-.27.393-.3.641-.029.248.019.5.137.71l.305.722-1.281 1.095-.488-1.048c-.489-1.118-.529-2.143.284-2.865m11.168-79.496a25.844 25.844 0 003.885 2.329v-1.887l-5.472-2.329s0 .769 1.587 2.003m3.885-2.399v-1.887l-6.204-2.539c.71.8 1.486 1.517 2.319 2.143a25.434 25.434 0 003.885 2.33m0-4.333v-1.91l-6.794-2.865s1.322 1.235 2.909 2.469a25.837 25.837 0 003.885 2.33" fill="#DEE0E1"/><path fill-rule="evenodd" clip-rule="evenodd" d="M228.102 67.547h6.956c-.261-.764-.736-1.407-1.351-1.829a2.901 2.901 0 00-2.046-.5 3.522 3.522 0 00-2.068.587 4.243 4.243 0 00-1.491 1.742m-7.282-30.606l-6.794 2.865v1.91a25.227 25.227 0 003.885-2.33c1.586-1.233 2.909-2.468 2.909-2.468m-1.323 9.364l-5.471 2.329v1.886a25.961 25.961 0 003.885-2.329c1.586-1.234 1.586-2.003 1.586-2.003m.753-4.612l-6.102 2.54v1.886c1.35-.65 2.649-1.43 3.885-2.33a15.638 15.638 0 002.319-2.142m-28.986 23.711a2.885 2.885 0 00-2.049.495c-.615.422-1.09 1.068-1.348 1.835h6.957a4.268 4.268 0 00-1.493-1.74 3.544 3.544 0 00-2.067-.59" fill="#DEE0E1"/><path fill-rule="evenodd" clip-rule="evenodd" d="M225.315 31.84c0-4.471-6.57-8.478-13.811-8.478-7.242 0-13.812 4.007-13.812 8.479l.163 1.094 2.888 19.007-13.608 9.154a8.83 8.83 0 00-2.405 2.783 10.185 10.185 0 00-1.195 3.669h2.502c.177-1.587.871-3.039 1.941-4.066 1.071-1.028 2.44-1.555 3.836-1.478 3.153.186 5.024 2.33 6.895 5.544l.488.838.692 1.235h-20.137c1.688 3.336 2.677 7.075 2.888 10.924v47.888c0 12.345 8.279 18.215 17.249 18.215 6.916 0 7.852-.349 11.676 4.006 3.803-4.379 4.739-4.006 11.675-4.006 8.95 0 17.229-5.87 17.229-18.215V80.475c.203-3.847 1.185-7.587 2.868-10.924h-20.158l.692-1.235.488-.838c1.851-3.145 3.722-5.334 6.895-5.544 1.398-.063 2.766.48 3.829 1.52 1.063 1.04 1.745 2.503 1.908 4.094h2.501a10.19 10.19 0 00-1.167-3.66 8.869 8.869 0 00-2.372-2.792l-13.689-9.13 2.888-19.007.163-1.118zm-24.816 2.19l10.171 3.983v18.308l-7.526-4.542-2.645-17.749zm2.502 38.852c1.504 2.24 3.677 3.765 6.102 4.285.255 1.296.877 2.46 1.77 3.308a6.729 6.729 0 00-.078 2.317c.109.77.349 1.509.709 2.172a5.66 5.66 0 001.386 1.69 4.856 4.856 0 001.848.948 4.94 4.94 0 00.955 2.186 4.063 4.063 0 001.791 1.331l-2.136 2.819c-.328.466-.754.83-1.237 1.057a2.756 2.756 0 01-1.529.247l-9.54-1.235c.407-1.21-.692-2.632-3.702-2.026l3.742-11.995-2.298-5.59-4.333 4.239-.325 12.6-1.831-1.047c-2.42-1.188-3.132 3.82-.834 3.843h.916a1.35 1.35 0 00.042.705c.076.225.211.417.385.553a.812.812 0 00-.262.313.957.957 0 000 .84.81.81 0 00.262.314.947.947 0 00-.313.322 1.157 1.157 0 00-.103.93c.048.153.128.291.233.402a2.57 2.57 0 00-.295.995c-.03.353.01.709.118 1.042.108.332.281.632.505.877.225.244.495.426.79.533 1.363.419 2.218-1.281 2.502-2.33l14.849 5.265a4.462 4.462 0 002.861.181c.949-.256 1.813-.821 2.489-1.625l3.865-3.89a5.287 5.287 0 00.115 3.225c.373 1.025 1.053 1.864 1.919 2.365a26.28 26.28 0 00-.163 3.308h-38.648V80.405a24.832 24.832 0 00-1.444-7.617l18.917.094zm15.968 10.62c-.4.892-.59 1.887-.551 2.888a6.37 6.37 0 00.774 2.82l-.63.721c-2.787-.396-3.885-5.147-3.885-5.147a9.106 9.106 0 000 1.258c-.822-.335-1.522-.976-1.987-1.821a4.965 4.965 0 01-.576-2.838 6.036 6.036 0 002.034.815l.183-1.397a4.016 4.016 0 01-2.201-1.117 4.978 4.978 0 01-1.318-2.307h-.264 1.037a10.26 10.26 0 003.214-.512 5.7 5.7 0 001.62 1.658c.633.42 1.335.688 2.061.787a7.645 7.645 0 00.489 4.146v.047zm4.068 12.532a4.92 4.92 0 00-.651 1.467l-1.546 1.63a9.678 9.678 0 00-.589-3.841 8.597 8.597 0 00-2.015-3.146l1.648-1.863.325.372a4.997 4.997 0 00-.067 1.717 4.8 4.8 0 00.515 1.613c.263.494.608.923 1.017 1.263.408.34.872.584 1.363.718v.07zm-7.425-.792l1.282-1.42c.884.84 1.573 1.918 2.006 3.136a9.052 9.052 0 01.475 3.851l-1.383 1.467a4.954 4.954 0 01-.874.769 9.95 9.95 0 00.079-4.096 9.288 9.288 0 00-1.564-3.684l-.021-.023zm-2.725 1.234a2.36 2.36 0 001.403-.232 8.771 8.771 0 011.105 3.668 9.054 9.054 0 01-.535 3.832 6.137 6.137 0 01-1.912-.326l-.488-.163a10.92 10.92 0 00.386-6.778h.041zm-3.275-.465l1.81.256c.328 2.17.028 4.402-.854 6.359l-2.034-.699c.924-1.79 1.33-3.87 1.159-5.94l-.081.024zm-3.743-.513l2.177.303a11.12 11.12 0 01-1.017 5.683l-2.218-.745c.856-1.562 1.229-3.407 1.058-5.24zm-8.848-.675a.889.889 0 01-1.024-.103 1.13 1.13 0 01-.332-.48 1.29 1.29 0 01-.068-.605 3.09 3.09 0 011.746-.465 3.137 3.137 0 011.712.605c.529.396.976 1.49 1.709 2.166a20.908 20.908 0 01-.672 3.19 1.874 1.874 0 01-1.074-.428 2.3 2.3 0 01-.705-1.023 2.64 2.64 0 01-.115-1.297c.07-.436.247-.84.511-1.164a1.352 1.352 0 00-.788-.565 1.209 1.209 0 00-.92.145l.02.024zm-1.444 4.635a4.3 4.3 0 001.383.373c-.01.126-.042.249-.095.36a.9.9 0 01-.215.285.758.758 0 01-.297.161.704.704 0 01-.329.009.738.738 0 01-.274-.183.861.861 0 01-.184-.295.979.979 0 01.011-.71zm-2.034-6.685a.618.618 0 01-.264-.315.742.742 0 01-.032-.435.657.657 0 01.215-.36.52.52 0 01.365-.124c.611 0 1.424.815 2.238 1.21a6.837 6.837 0 01-2.522 0v.024zm2.034 4.845c.427.489 1.749.303 1.749.303v.302c-.569.886-2.176.49-1.81-.605h.061zm1.708-1.002c-.956.443-1.912-.163-1.607-.862.428.466 1.668.233 1.668.233l-.061.63zm1.384-12.578l-1.811 7.547.61-12.182 2.807-2.748 1.424 3.587-3.6 11.832.956-7.966c0-.559-.305-.629-.386 0v-.07zm.284 9.131c.863-.065 1.73-.018 2.584.14.427.21.142 1.001-.407.931a10.78 10.78 0 01-2.177-1.071zm3.153 1.84l2.197.303a9.335 9.335 0 01-.895 4.845l-2.034-.7a17.58 17.58 0 00.854-4.657l-.122.21zm35.535 33.285c.098 2.578-.437 5.136-1.544 7.384-1.108 2.248-2.743 4.095-4.72 5.333l1.403-3.261h-1.363l-1.79 4.193a15.744 15.744 0 01-6.326 1.258c-7.139 0-9.031.326-11.675 3.354-2.665-3.005-4.536-3.354-11.676-3.354a15.956 15.956 0 01-6.306-1.235l1.79-4.192h-1.383l-1.586 3.68c-.367-.21-.733-.42-1.099-.652l1.302-3.005h-1.342l-.977 2.329c-1.568-1.351-2.829-3.114-3.675-5.142a15.716 15.716 0 01-1.186-6.504v-18.378h52.031l.122 18.192zm1.445-55.552a24.318 24.318 0 00-1.465 7.616v27.951h-2.848a20.503 20.503 0 01-2.379-6.196 8.834 8.834 0 00-.145 3.201 8.472 8.472 0 00.999 2.995h-3.661a27.16 27.16 0 01-1.689-6.359c-1.098 1.421-.407 5.288.285 6.359h-2.421a15.96 15.96 0 01.346-4.146c-1.261-.28-2.624-1.048-2.624-2.655.221.282.503.492.817.611.314.118.649.14.973.064l1.038-.932c-3.438.117-3.58-4.169-.875-6.195-2.705 0-4.739-1.747-3.743-5.055a4.385 4.385 0 01-1.156-1.282 5.039 5.039 0 01-.632-1.694 5.354 5.354 0 01-.008-1.843 5.049 5.049 0 01.617-1.703 6.045 6.045 0 01-.919-2.676 6.3 6.3 0 01.369-2.844c-1.4.017-2.75-.593-3.763-1.7h-.223c1.616-.748 3.023-1.988 4.068-3.587l19.039.07zm-10.354-13.463c-2.827.559-5.248 4.519-7.241 8.082l-.224.42h-2.034v.419c-.224 2.748-2.502 6.475-7.526 6.475-1.898.07-3.759-.613-5.268-1.933-.948-.849-1.656-2-2.034-3.308a6.488 6.488 0 01-.224-1.234v-.42h-2.034l-.509-.232c-2.034-3.564-4.414-7.5-7.221-8.083l7.669-5.1 9.458 5.822 9.418-5.87 7.77 4.962zm-8.807-7.64l-7.526 4.542V38.013l10.17-3.983-2.644 17.609zm-8.381-15.652l-11.187-5.031c.936-2.563 5.329-4.659 11.167-4.659s10.17 2.19 11.167 4.659l-11.147 5.03z" fill="#DEE0E1"/><path fill-rule="evenodd" clip-rule="evenodd" d="M236.34 90.84v-1.398c-3.743 0-4.618-5.171-4.618-5.171a5.9 5.9 0 00-.079 2.44 5.53 5.53 0 00.907 2.21 4.65 4.65 0 001.691 1.486 4.02 4.02 0 002.099.432m-4.74 8.711l-.386-1.327c-3.194.932-4.841-4.868-4.841-4.868a5.62 5.62 0 00-.061 2.586 5.184 5.184 0 001.089 2.265 4.248 4.248 0 001.941 1.325 3.784 3.784 0 002.258.02m2.319-5.404c-3.824.699-5.39-4.402-5.39-4.402a5.67 5.67 0 00.012 2.016c.125.664.367 1.292.712 1.845a4.631 4.631 0 001.295 1.367 3.98 3.98 0 001.663.665 4.376 4.376 0 00.126 2.18 3.847 3.847 0 001.145 1.748 3.107 3.107 0 001.791.752 3.019 3.019 0 001.86-.488l-.366-1.258a2.186 2.186 0 01-1.589.072 2.51 2.51 0 01-1.301-1.048 3.122 3.122 0 01-.478-1.737 3.105 3.105 0 01.54-1.712m-2.4-14.557v-1.398c-5.044-1.188-4.617-5.171-4.617-5.171a5.888 5.888 0 00-.08 2.434c.143.807.452 1.563.902 2.205a4.65 4.65 0 001.683 1.489 4.022 4.022 0 002.092.44m-31.996 58.301l-1.811 4.192h1.363l1.811-4.192h-1.363zm2.726 0l-1.811 4.192h1.383l1.79-4.192h-1.362zm10.943 0l-1.81 4.192h1.362l1.811-4.192h-1.363zm2.746 0l-1.81 4.192h1.362l1.79-4.192h-1.342zm-5.472 0l-1.81 4.192h1.363l1.81-4.192h-1.363zm15.968 4.192h1.363l1.81-4.192h-1.363l-1.81 4.192zm-21.439-4.192l-1.811 4.192h1.363l1.81-4.192h-1.362zm2.725 0l-1.81 4.192h1.383l1.79-4.192h-1.363zm-6.183-22.593a.504.504 0 00-.34.049.6.6 0 00-.253.262.73.73 0 00.051.744.57.57 0 00.286.214.503.503 0 00.342-.012.589.589 0 00.274-.234.71.71 0 00.107-.371.666.666 0 00-.118-.435.51.51 0 00-.349-.217m10.007-94.777c4.501-.14 8.917 1.415 12.571 4.426a31.334 31.334 0 013.254-9.573l-4.515.582-2.36-5.753-4.536 2.702-4.414-5.008-4.393 5.008-4.577-2.702-2.38 5.753-4.495-.582a31.062 31.062 0 013.254 9.573c3.66-3.016 8.084-4.571 12.591-4.426zm-10.536-2.329l2.156-5.217 4.068 2.329 4.312-4.845 4.414 4.985 4.068-2.33 2.034 5.218 2.645-.466a25.681 25.681 0 00-1.668 4.519c-3.519-2.25-7.483-3.431-11.513-3.431-4.031 0-7.994 1.18-11.513 3.43a25.489 25.489 0 00-1.668-4.518l2.665.326z" fill="#DEE0E1"/><path fill-rule="evenodd" clip-rule="evenodd" d="M216.141 10.226c.158.015.317-.005.468-.06.151-.054.291-.142.412-.26.121-.116.22-.26.293-.42.072-.162.116-.338.129-.518a9.34 9.34 0 00-.895-2.749s-1.444 1.77-1.485 2.516c-.023.357.077.71.279.984.201.274.488.448.799.483m7.384 3.098c.281.164.607.195.908.086.3-.109.552-.349.699-.668a9.636 9.636 0 00.102-2.912s-1.912.978-2.218 1.654a1.582 1.582 0 00-.067 1.037c.094.342.301.63.576.803m-16.618-3.074c.314-.03.606-.2.812-.476.206-.274.308-.63.286-.992 0-.768-1.485-2.515-1.485-2.515a9.439 9.439 0 00-.895 2.748c.026.36.175.695.415.93.24.236.551.354.867.328m-7.405 3.051a1.35 1.35 0 00.572-.806 1.55 1.55 0 00-.083-1.034c-.305-.676-2.217-1.654-2.217-1.654a9.573 9.573 0 00.122 2.912c.07.16.169.303.288.419.12.116.259.204.408.258a1.04 1.04 0 00.91-.095m88.768 46.584c1.541-.76 2.761-2.181 3.397-3.96-4.069-.675-14.666-5.776-23.433-1.607 3.275-3.563 6.224-4.03 6.509-9.153a3.1 3.1 0 001.246.823c.465.162.956.2 1.436.11.479-.09.935-.305 1.33-.629a3.52 3.52 0 00.951-1.236c-.895-3.051-3.193-.582-3.498-1.42-.306-.84 2.868.372 3.6-3.611-2.583-1.025-3.356 1.397-3.824.838-.468-.559 1.647-1.56.122-4.658-2.685 1.793-1.282 3.843-1.851 4.053-.57.21-.142-2.166-3.133-2.05-.284 3.657 2.807 3.773 2.279 4.356-.529.582-1.404-2.097-3.662-.676a4.293 4.293 0 00.275 1.798c.218.565.552 1.06.975 1.444a3.14 3.14 0 001.451.755c.53.113 1.076.076 1.591-.107-.346 5.613-4.841 4.658-8.136 10.9 7.099 4.17 10.292 11.437 14.666 16.445a29.154 29.154 0 003.905-6.382 5.757 5.757 0 001.865 1.434 5.112 5.112 0 002.203.504c.756 0 1.505-.172 2.203-.504a5.757 5.757 0 001.865-1.434c-1.627-1.91-1.688-3.354-4.17-5.963l-.162-.07zm-6.713 1.095a10.35 10.35 0 01.576 4.552 9.968 9.968 0 01-1.43 4.299c-2.106-5.227-5.247-9.82-9.174-13.416-.651-.466.346-1.328 2.156-1.584 5.472-1.188 11.859 1.467 14.91 2.33-1.165 1.083-2.576 1.762-4.068 1.956a26.959 26.959 0 014.963 5.916c-2.156.605-3.356-.932-7.973-4.123m-45.686 93.634v-6.848c-5.757 2.912-11.908 4.669-18.185 5.194l-.345 2.446c.651 0 1.464.186 2.542.28a54.113 54.113 0 01-16.842 0c1.078 0 1.892-.163 2.543-.28l-.346-2.446c-6.236-.537-12.345-2.294-18.063-5.194v6.848l-6.102 2.958a70.168 70.168 0 0016.273 6.848l-.733 2.865c9.897 3.192 20.371 3.192 30.267 0l-.732-2.865a70.168 70.168 0 0016.273-6.848l-6.55-2.958zm-51.543 3.121l4.23-1.956v-5.59a64.324 64.324 0 0011.412 3.61l-2.401 8.967a64.118 64.118 0 01-13.241-5.077v.046zm27.256 10.319a50.448 50.448 0 01-13.445-1.933l2.543-9.317a57.794 57.794 0 0021.785 0l2.542 9.317a50.61 50.61 0 01-13.445 1.933h.02zm13.974-5.241l-2.42-9.014a64.324 64.324 0 0011.411-3.657v5.59l4.231 1.957a63.257 63.257 0 01-13.242 5.077m-86.855-96.871a29.275 29.275 0 003.905 6.382c4.374-5.008 7.587-12.275 14.666-16.445-3.356-6.312-7.852-5.264-8.136-10.9a2.93 2.93 0 001.581.084 3.156 3.156 0 001.436-.76c.419-.38.752-.872.97-1.431.218-.56.316-1.171.284-1.783-2.258-1.42-3.051 1.397-3.661.675-.61-.722 2.583-.698 2.278-4.355-2.97 0-2.42 2.329-3.132 2.05-.712-.28.834-2.33-1.851-4.053-1.526 3.214.549 4.216.122 4.658-.428.443-1.241-1.863-3.824-.838.691 3.96 4.068 2.329 3.58 3.61-.489 1.28-2.604-1.63-3.499 1.42.228.49.551.913.945 1.237.394.323.847.538 1.325.628.478.09.968.053 1.432-.109a3.091 3.091 0 001.241-.824c.284 5.148 3.234 5.567 6.509 9.154-8.767-4.17-19.426.955-23.433 1.607.639 1.771 1.858 3.185 3.397 3.937-2.481 2.632-2.543 4.076-4.068 5.963 0 0 3.315 4.169 8.136 0l-.203.093zm-4.76-.885a26.32 26.32 0 014.984-5.917c-1.493-.205-2.904-.892-4.069-1.98 3.052-.931 9.459-3.563 14.91-2.329 1.79.28 2.807 1.118 2.156 1.584-3.934 3.592-7.082 8.186-9.194 13.416a10.012 10.012 0 01-1.427-4.298c-.15-1.549.048-3.116.573-4.553-4.617 3.191-5.817 4.659-7.974 4.123m73.837-2.981v3.028c.354-.38.775-.666 1.236-.84a2.92 2.92 0 011.429-.162v4.356a7.242 7.242 0 01-.712 3.074h3.804a7.262 7.262 0 01-.732-3.074v-4.38a2.9 2.9 0 011.43.16c.46.174.882.461 1.234.843V61.98h-7.689v.024z" fill="#DEE0E1"/><path d="M294.718 63.285a9.866 9.866 0 01-1.119-1.724l-.651-1.118a12.317 12.317 0 001.648-3.004l1.708-4.426-4.17-.699c-.711-.116-1.851-.466-3.173-.861a55.537 55.537 0 00-9.438-2.19c1.278-.666 2.329-1.796 2.99-3.214l.692-1.421s-.183-1.98-.854-2.609a9.759 9.759 0 00.589-2.026l.57-3.168-2.665-1.048a6.63 6.63 0 00-1.24-.35 10.473 10.473 0 00-.672-1.84l-1.627-3.307-2.868 1.91a7.907 7.907 0 00-1.79 1.63 6.495 6.495 0 00-1.363-.14 7.455 7.455 0 00-3.437.536l-2.299-2.725-2.726-3.33c-1.16-1.518-2.707-2.58-4.422-3.035a7.416 7.416 0 00-5.138.495 8.958 8.958 0 00-3.103-2.2 8.006 8.006 0 00-3.609-.618c-.885.009-1.769.087-2.645.233-2.559.556-4.961 1.82-6.997 3.68l-3.051-1.677c-1.334 2.277-3.285 3.988-5.553 4.868a9.346 9.346 0 00-1.241-3.005l.204-1.304a27.27 27.27 0 012.786-8.199l3.641-6.498-5.166.745c.038-.698.038-1.398 0-2.096l-.468-5.055-4.068 2.097a20.18 20.18 0 00-1.18.675l-.793-1.956-1.851 1.094a17.963 17.963 0 00-.753-1.793L217.219 0l-3.03 3.75c-.306.396-.57.745-.814 1.071l-1.851-2.096-1.851 2.12c-.224-.35-.488-.699-.793-1.072L205.828 0l-2.156 4.519c-.279.581-.531 1.18-.752 1.793l-1.851-1.095-.814 1.957-1.18-.675-4.068-2.097-.447 5.078a18.32 18.32 0 000 2.096l-5.187-.675 3.661 6.498a27.029 27.029 0 012.746 8.222l.183 1.305a9.42 9.42 0 00-1.241 3.028c-2.15-1.14-4.048-2.82-5.553-4.915l-3.132 1.7c-2.735-2.504-6.12-3.896-9.621-3.96a7.702 7.702 0 00-3.59.61 8.651 8.651 0 00-3.062 2.232 7.413 7.413 0 00-5.112-.49c-1.707.452-3.248 1.503-4.407 3.006 0 0-1.587 2.143-2.726 3.308a14.667 14.667 0 01-2.624 2.329 9.958 9.958 0 00-4.495 0 7.887 7.887 0 00-1.912-1.63l-2.767-1.864-1.586 3.354a10.114 10.114 0 00-.671 1.817 6.695 6.695 0 00-1.241.35l-2.644 1.047.549 3.145c.118.71.316 1.398.59 2.05a8.05 8.05 0 00-.407 1.07l-.448 1.538.692 1.421c.655 1.43 1.707 2.569 2.99 3.238a55.451 55.451 0 00-9.438 2.189c-1.322.396-2.461.745-3.173.862l-4.191.699.956 2.469.773 1.956a12.637 12.637 0 001.709 3.075 33.61 33.61 0 01-1.77 2.841l-2.034 2.47 2.034 2.562a8.908 8.908 0 002.847 2.236c1.068.523 2.216.8 3.378.815a7.945 7.945 0 003.01-.606 16.9 16.9 0 003.214 4.426c-2.005 2.813-4.526 5.088-7.384 6.661l-2.664 1.444 1.139 3.47a8.699 8.699 0 001.934 3.334c.867.919 1.912 1.589 3.049 1.954a40.595 40.595 0 00-1.281 5.66c-.61 4.123-.855 5.823-4.068 6.988l-2.848 1.141.814 3.308c.412 2.167 1.333 4.164 2.664 5.776l-1.892 2.329c2.625 2.205 5.661 3.681 8.869 4.309.997.097 2-.045 2.946-.418a7.067 7.067 0 002.546-1.748 52.343 52.343 0 002.705 7.687c2.034 4.775 3.052 7.616 1.709 10.202l-2.99 5.823 5.899-.28a31.972 31.972 0 007.16-.862c.006.125.006.249 0 .373l-.509 5.031 5.167-1.258a7.427 7.427 0 001.525-.722c2.019 2.529 4.496 4.523 7.257 5.842 2.762 1.32 5.741 1.933 8.731 1.798h.427l-8.441 3.96 6.102 3.657a69.399 69.399 0 0013.649 6.149l-.712 2.818 3.092 1.025c10.486 3.402 21.591 3.402 32.077 0l3.072-1.025-.753-2.818a69.462 69.462 0 0013.73-6.196l6.102-3.657-8.441-3.959h.427c2.987.133 5.963-.482 8.72-1.801 2.758-1.32 5.232-3.312 7.247-5.839a7.9 7.9 0 001.526.722l5.167 1.258-.468-5.008v-.373a32.15 32.15 0 007.038.885l5.899.28-2.97-5.8c-1.343-2.585-.265-5.427 1.708-10.202a51.72 51.72 0 002.706-7.686 8.6 8.6 0 003.58 1.886 7.303 7.303 0 001.851.35c2.056.104 4.079-.621 5.715-2.05l3.255-2.329-1.912-2.33c1.319-1.555 2.253-3.484 2.705-5.59l.814-3.33-2.848-1.142c-3.173-1.281-3.417-2.981-4.068-6.987a40.445 40.445 0 00-1.139-5.73 7.26 7.26 0 003.049-1.955 8.685 8.685 0 001.934-3.333l1.14-3.47-2.665-1.444c-2.858-1.574-5.379-3.848-7.384-6.662a17.037 17.037 0 003.234-4.425c.96.395 1.971.6 2.99.605a7.867 7.867 0 003.379-.813 8.885 8.885 0 002.846-2.238l2.034-2.562-2.034-2.702z" fill="#fff"/><path fill-rule="evenodd" clip-rule="evenodd" d="M185.508 108.472V80.521a24.682 24.682 0 00-1.444-7.593h18.937c1.039 1.427 2.339 2.576 3.808 3.364a9.907 9.907 0 004.695 1.197 9.906 9.906 0 004.694-1.197c1.47-.788 2.77-1.937 3.808-3.364h18.958a24.257 24.257 0 00-1.445 7.593v27.951h-52.011zm26.036 38.269c-2.644-3.028-4.536-3.354-11.675-3.354-8.523 0-14.239-5.73-14.239-14.884v-18.401h52.011v18.331c0 9.154-5.776 14.884-14.238 14.884-7.14 0-9.031.326-11.676 3.354" fill="#FCE527"/><path d="M188.518 150.142v5.59l-4.23 1.956a63.74 63.74 0 0013.241 5.078l2.401-9.037a65.075 65.075 0 01-11.412-3.657m23.026 7.616a49.946 49.946 0 01-10.902-1.048l-2.543 9.317a47.502 47.502 0 0026.87 0l-2.542-9.317a50.02 50.02 0 01-10.883 1.048zm22.965-7.546a64.974 64.974 0 01-11.411 3.587l2.4 8.944a63.339 63.339 0 0013.222-5.078l-4.231-1.956.02-5.497zM179.67 60.07c6.631-4.169 22.823-13.113 11.839-22.802-1.506-1.328-3.153-2.516-4.536-3.983-1.709 1.514.651 5.264 1.24 6.638 0 0-3.661.42-4.536.42-5.654 0-11.574-3.867-8.563-11.204-2.258.535-2.522 3.004-3.214 5.124-1.444-1.118-3.946-3.517-5.878-3.168 1.566 5.753 8.136 10.924 13.302 12.089-5.186 3.238-14.787 5.637-19.832-1.328-3.539 7.85 1.404 11.134 6.224 15.257-18.428 9.62-15.723 20.427-27.805 28.952 1.566.838 8.563-.839 9.194-.955a46.162 46.162 0 00-4.719 7.407 39.524 39.524 0 00-1.79 8.105 12.763 12.763 0 01-1.64 5.288c-.915 1.583-2.153 2.887-3.608 3.796 1.423 2.958 4.576.653 5.898.257a20.772 20.772 0 01-1.81 5.59c6.204-.466 3.336-15.466 9.56-11.856.406.232.768.554 1.065.948.297.393.523.85.664 1.343a4.47 4.47 0 01-.203 3.02c-4.068 9.643 5.187 18.144 4.699 26.599 2.278 0 4.637 0 6.102-3.61a51.298 51.298 0 012.644 6.615l1.851-3.61c.708 3.286 2.316 6.225 4.59 8.388 2.273 2.163 5.091 3.435 8.042 3.63-3.153-5.706.63-13.486-7.018-21.754a31.35 31.35 0 003.946-3.727c-9.377 1.258-19.181-7.244-14.726-11.274 2.908-2.632 4.169 2.842 8.665 1.91l-1.75-1.723c.611-.699 1.323-1.607 2.035-2.33a11.46 11.46 0 01-4.069-1.653l1.139-2.143c-10.984 0-11.268-9.643-6.814-10.016 2.034-.186 4.801 4.24 11.574 3.331a15.09 15.09 0 01-1.627-4.332 13.158 13.158 0 005.105-1.025c-3.295-.49-4.068-1.747-6.895-4.146l3.193-1.351c-4.413-2.632-4.19-7.267-4.413-12.066 2.42 1.608 5.268 4.077 8.319 2.912.732-.28 1.18-.652 1.2-1.514-4.353-1.957-7.119-9.62 3.275-16.048h.081zm-8.014.746c-5.797 7.104-3.295 11.367-2.034 12.671-2.156-.536-5.39-3.68-4.658-6.731a44.809 44.809 0 00-2.034 3.028 88.203 88.203 0 00-3.865 6.451c-1.749 5.987 1.465 12.182 6.957 14.93-2.384-.39-4.573-1.724-6.185-3.771-1.613-2.047-2.549-4.677-2.643-7.432-2.622 5.131-4.058 10.944-4.17 16.887a51.07 51.07 0 00.407 5.054c1.403 3.052 3.661 4.17 7.668 4.659-3.641.256-5.573 0-7.16-1.84 2.482 12.205 14.076 22.803 18.815 31.864-4.719-6.988-14.523-17.516-17.961-25.109-.248 4.953.931 9.863 3.357 13.975-4.394-4.938-4.719-12.415-4.435-16.794a34.284 34.284 0 01-1.912-10.69c-.105-3.27.106-6.544.631-9.76-2.766 4.518-6.774 6.242-8.747 13.113.387-8.85 6.103-8.99 10.476-19.752a78.916 78.916 0 016.794-13.37c-3.885 1.124-7.36 3.628-9.927 7.151 2.807-7.616 19.039-16.164 26.443-24.433-2.237.536-11.35.815-15.133-2.096 6.855 2.12 22.131-.303 27.887-4.822-4.068 6.545-12.632 6.988-23.188 19.962a26.672 26.672 0 014.78-3.331m110.531 39.993a39.452 39.452 0 00-1.79-8.106 44.908 44.908 0 00-4.637-7.454c.63 0 7.628 1.794 9.194.955-12.103-8.501-9.377-19.309-27.806-28.952 4.841-4.123 9.784-7.407 6.245-15.256-5.045 6.987-14.666 4.658-19.833 1.328 5.126-1.165 11.717-6.36 13.303-12.09-2.034-.349-4.434 2.05-5.878 3.169-.692-2.12-.956-4.659-3.194-5.125 3.011 7.36-2.929 11.18-8.584 11.204-.874 0-4.515-.42-4.515-.42.59-1.374 2.949-5.124 1.22-6.638-1.383 1.491-3.01 2.679-4.515 3.983-10.984 9.736 5.227 18.75 11.858 22.85 10.394 6.429 7.628 13.975 3.275 16.048 0 .862.488 1.235 1.2 1.514 3.031 1.165 5.879-1.327 8.299-2.911-.142 4.798.143 9.317-4.475 12.065l3.194 1.351c-2.746 2.33-3.58 3.657-6.875 4.146a13.21 13.21 0 005.105 1.025 15.78 15.78 0 01-1.627 4.332c6.773.932 9.499-3.494 11.574-3.33 4.454.372 4.19 10.015-6.814 10.015l1.139 2.143a11.413 11.413 0 01-4.068 1.654c.732.675 1.444 1.584 2.034 2.329l-1.75 1.724c4.475.931 5.757-4.659 8.665-1.91 4.435 4.029-5.349 12.531-14.726 11.273a31.635 31.635 0 003.946 3.727c-7.648 8.269-3.885 16.071-7.018 21.778 2.951-.207 5.766-1.487 8.038-3.653 2.272-2.165 3.881-5.104 4.594-8.389l1.851 3.61a52.718 52.718 0 012.644-6.615c1.485 3.541 3.865 3.611 6.102 3.611-.508-8.456 8.747-16.957 4.679-26.6a4.382 4.382 0 01-.376-1.476 4.482 4.482 0 01.147-1.527c.136-.493.356-.951.646-1.347a3.59 3.59 0 011.047-.961c6.225-3.61 3.336 11.39 9.561 11.856a20.184 20.184 0 01-1.811-5.59c1.322.396 4.475 2.702 5.899-.256-1.449-.918-2.684-2.223-3.597-3.805a12.898 12.898 0 01-1.651-5.279h.081zm-11.716-12.252a49.62 49.62 0 01.631 9.76 34.62 34.62 0 01-1.912 10.69c.284 4.379 0 11.856-4.435 16.794 2.421-4.114 3.599-9.022 3.357-13.975-3.438 7.593-13.222 18.075-17.961 25.109 4.739-9.061 16.272-19.635 18.815-31.864-1.607 1.91-3.519 2.096-7.16 1.84 4.068-.559 6.245-1.677 7.648-4.658a50.49 50.49 0 00.407-5.055c-.119-5.945-1.561-11.758-4.19-16.886-.095 2.754-1.03 5.384-2.643 7.431-1.613 2.047-3.802 3.382-6.185 3.772 5.472-2.748 8.706-8.944 6.956-14.93a93.396 93.396 0 00-3.864-6.452c-.712-1.048-1.424-2.073-2.034-3.028.732 3.051-2.482 6.196-4.658 6.731 1.179-1.304 3.681-5.567-2.035-12.67a26.39 26.39 0 014.781 3.33c-10.537-13.044-19.202-13.393-23.189-19.961 5.777 4.518 21.032 6.987 27.887 4.821-3.783 2.888-12.916 2.632-15.133 2.096 7.424 8.27 23.697 16.84 26.443 24.434-2.567-3.524-6.042-6.027-9.927-7.15a78.42 78.42 0 016.794 13.369c4.333 10.738 10.171 10.877 10.496 19.752-2.034-6.988-5.98-8.618-8.746-13.114" fill="#fff"/><path d="M220.026 72.905c-1.001 1.483-2.291 2.677-3.767 3.486a9.377 9.377 0 01-4.735 1.172 10.963 10.963 0 01-2.421-.28c.246 1.295.87 2.454 1.77 3.285a6.729 6.729 0 00-.078 2.317c.109.77.349 1.509.709 2.172a5.66 5.66 0 001.386 1.69 4.853 4.853 0 001.848.948 4.94 4.94 0 00.955 2.186 4.063 4.063 0 001.791 1.332l-2.034 2.818a3.241 3.241 0 01-1.241 1.049 2.809 2.809 0 01-1.526.255l-9.54-1.234c.407-1.212-.691-2.609-3.702-2.003l3.743-12.02-2.38-5.543-4.332 4.24-.326 12.6-1.871-1.048c-2.4-1.188-3.112 3.82-.814 3.844h.916c-.052.24-.036.492.044.722.08.23.221.425.403.559a.789.789 0 00-.276.308.926.926 0 00-.102.425c0 .15.035.297.102.426a.79.79 0 00.276.308.982.982 0 00-.304.327 1.189 1.189 0 00-.102.923c.046.153.123.29.223.404a2.638 2.638 0 00-.177 2.037c.108.332.281.632.505.877.225.244.495.426.791.533 1.383.419 2.237-1.281 2.522-2.33l14.849 5.265a4.462 4.462 0 002.861.181c.949-.256 1.813-.821 2.488-1.625l3.865-3.89a5.294 5.294 0 00.116 3.225c.373 1.025 1.053 1.864 1.918 2.365a22.51 22.51 0 00-.162 3.284h13.363v-27.95a24.284 24.284 0 011.445-7.617h-18.958l-.041-.023zm-22.232 47.05l.285.419c.406.559.63.443 1.098.14l.671-.419c.427-.373 3.194.838 3.336-1.794.305 1.957-1.729 6.103-.508 8.409l1.647 3.121h-5.41a1.032 1.032 0 00-.634.212 1.278 1.278 0 00-.424.58l-1.424 3.354a2.627 2.627 0 00.122 2.329l.956 1.234a4.307 4.307 0 001.037-1.77l-.427-.489a.972.972 0 01-.288-.581c-.03-.228.014-.461.126-.653l.874-2.073c.04-.168.111-.324.208-.458.098-.134.219-.242.356-.317a.936.936 0 01.88-.017l4.374 1.071c.325 0 .834.28 1.159-.349a2.129 2.129 0 011.063-1.004 1.794 1.794 0 011.378.002c2.4.419 7.953 1.072 9.926-1.584 2.319 3.541 6.855 3.541 6.57 5.381l-.996 6.265h1.444l.875-6.195c0-.722.488-1.724-.204-2.33-.285-.256-.407-.372-1.037-1.63-.834-1.654-.773-4.123-1.587-6.266.244-.422.588-.758.99-.968a2.1 2.1 0 011.288-.22c1.607.443 2.034 3.611 4.313 6.196a15.223 15.223 0 00-.916-3.494c.903.783 1.605 1.829 2.034 3.028.049.479.193.939.423 1.343.229.404.537.742.9.987.528.232 1.179 0 1.81-.955l-2.604-4.03c-.652-1.236-1.567-2.264-2.658-2.989a6.803 6.803 0 00-3.586-1.157 5.665 5.665 0 00-2.482 1.071c-3.112-2.003-5.533 0-6.489 0l-5.817-.395c-.834-.216-1.562-.792-2.034-1.608.046-1.843-.477-3.646-1.478-5.091-1.001-1.444-2.416-2.438-3.994-2.805 0 0 .122-1.025-.224-1.374l-1.22 1.747-3.377-1.421 2.645 2.492-2.868 3.89a.991.991 0 00-.102 1.072" fill="#fff"/><path d="M193.97 127.874c-.814.722-.773 1.724-.285 2.865l.488 1.048 1.282-1.118-.285-.722a1.171 1.171 0 01-.137-.71c.03-.247.136-.475.3-.641l1.83-1.584c.158-.177.354-.305.568-.37.214-.065.439-.066.653-.002l3.844.931a7.26 7.26 0 01-.773-1.956l-3.62-.536a1.43 1.43 0 00-.696.115 1.622 1.622 0 00-.586.444l-2.583 2.236zm24.632 13.091h1.445l2.339-6.592c.085-.178.18-.349.285-.513a15.97 15.97 0 01-2.543-1.397c.59.908 1.037 1.281.793 2.119l-2.319 6.383zm1.221-89.14l2.685-17.748-10.17 3.983v18.307l7.485-4.542zm-5.797-11.972l6.794-2.865s-1.323 1.235-2.889 2.47a25.443 25.443 0 01-3.885 2.328l-.02-1.933zm0 4.286l6.102-2.539a16.176 16.176 0 01-2.319 2.143 26.147 26.147 0 01-3.885 2.33l.102-1.934zm0 4.658l5.451-2.329s0 .769-1.566 1.98a25.597 25.597 0 01-3.885 2.33v-1.98z" fill="#fff"/><path d="M201.638 67.547l.224.42h2.034v.418c.033.42.108.835.224 1.235.385 1.304 1.091 2.453 2.034 3.307 1.505 1.33 3.369 2.014 5.268 1.934 5.024 0 7.303-3.727 7.526-6.476v-.419h2.034l.224-.419c2.034-3.564 4.414-7.5 7.221-8.082l-7.689-5.101-9.194 5.846-9.418-5.87-7.668 5.101c2.807.56 5.228 4.519 7.221 8.083" fill="#fff"/><path d="M210.731 56.344V38.036l-10.171-3.983 2.685 17.749 7.486 4.542zm-1.709-5.753a25.844 25.844 0 01-3.885-2.33c-1.587-1.234-1.587-2.003-1.587-2.003l5.472 2.33v2.003zm0-10.761v1.886a25.435 25.435 0 01-3.885-2.329 47.817 47.817 0 01-2.909-2.469l6.794 2.912zm0 4.285v1.887a25.712 25.712 0 01-3.885-2.33 15.897 15.897 0 01-2.319-2.142l6.204 2.585zm2.522-17.888c-5.838 0-10.17 2.19-11.167 4.659l11.167 5.147 11.147-5.054c-.956-2.563-5.309-4.659-11.147-4.659m0-7.407c4.028.015 7.988 1.193 11.513 3.424.413-1.57.973-3.085 1.668-4.518l-2.644.466-2.034-5.218-4.068 2.33-4.435-4.892-4.393 4.984-4.069-2.329-2.095 5.125-2.644-.466a25.297 25.297 0 011.668 4.518c3.531-2.235 7.498-3.413 11.533-3.424m72.82 40.226c1.493-.206 2.904-.892 4.068-1.98-3.051-.932-9.438-3.564-14.889-2.33-1.81.28-2.807 1.119-2.156 1.585 3.911 3.614 7.031 8.224 9.113 13.462a10.012 10.012 0 001.427-4.298 10.392 10.392 0 00-.573-4.553c4.617 3.191 5.817 4.659 7.953 4.123a26.394 26.394 0 00-4.963-5.916M142.528 69.877c2.109-5.232 5.258-9.826 9.194-13.417.651-.465-.366-1.304-2.156-1.584-5.452-1.187-11.859 1.468-14.91 2.33 1.166 1.085 2.576 1.772 4.068 1.98a26.286 26.286 0 00-4.963 5.916c2.156.605 3.356-.932 7.953-4.123a10.563 10.563 0 00-.556 4.55 10.16 10.16 0 001.411 4.301" fill="#fff"/><path fill-rule="evenodd" clip-rule="evenodd" d="M174.483 125.778c2.034-1.934 3.885-2.889 3.804-7.547-3.193 1.863-12.204 1.77-16.008-4.193-1.078-1.7 0-2.538 1.098-1.211 2.584 3.354 7.384 1.84 9.113.862a8.247 8.247 0 00-1.627-3.401c.651-.745 2.502-1.84 2.888-3.726a20.432 20.432 0 00-4.922-1.049 3.928 3.928 0 001.016-1.911 4.323 4.323 0 00-.101-2.235c-3.926 1.375-8.747-.489-9.865-2.142-1.119-1.654 0-3.168.935-2.073 2.034 2.329 11.574 5.031 15.154.955-1.271-.403-2.366-1.333-3.071-2.61 3.315-.372 5.96-2.608 6.102-5.403a13.085 13.085 0 01-6.468-1.165 3.93 3.93 0 001.964-1.186 4.837 4.837 0 001.127-2.19c-6.102-.42-6.529-5.568-6.57-6.43 3.946 2.61 10.903 1.444 9.093-4.96-3.275-.21-6.591-6.29 2.441-11.856 8.136-5.078 17.533-10.575 16.699-19.59-.529-5.776-8.848-9.712-9.885-12.647-3.458 1.887-4.068 4.076-2.604 7.756 0 0-7.729.886-8.34-4.658a9.37 9.37 0 01.704-3.585 8.29 8.29 0 011.981-2.89c-.874 0-6.692-1.794-8.441 3.633-3.255-2.539-6.102-2.445-8.238.233 3.499 2.33 5.675 10.552 11.472 12.974-4.068 2.562-10.78 1.49-14.686-6.382-3.682 6.359-5.797 12.647 2.034 19.356-14.381 7.5-14.238 21.801-26.768 28.626 1.261 3.89 3.946 3.89 7.343 3.284-5.411 8.036-.794 16.468-9.357 19.892.814 3.284 2.42 5.892 5.573 4.937-.895 1.608-1.485 1.561-2.888 3.331 4.678 3.378 10.17.932 11.472-9.899.224-1.933 2.543-.722 1.749 1.165-5.329 12.624 8.137 22.127 3.377 31.374 4.211-.209 7.404-.582 9.153-2.189.874 1.745 1.284 3.745 1.18 5.753.872-.092 1.686-.536 2.297-1.253.612-.717.98-1.66 1.039-2.66 1.526 5.078 6.957 10.528 15.662 10.528-4.414-7.454-.081-15.117-6.631-23.618zm-8.604 9.317l-1.851 3.61a51.24 51.24 0 00-2.644-6.615c-1.485 3.54-3.865 3.61-6.102 3.61.467-8.548-8.828-17.05-4.76-26.693.208-.458.336-.96.375-1.475a4.49 4.49 0 00-.146-1.528 4.143 4.143 0 00-.646-1.346 3.567 3.567 0 00-1.048-.961c-6.224-3.611-3.336 11.39-9.56 11.855a20.786 20.786 0 001.811-5.59c-1.323.396-4.475 2.702-5.899-.256 1.455-.91 2.694-2.213 3.608-3.796a12.767 12.767 0 001.64-5.288 39.31 39.31 0 011.729-8.106 46.14 46.14 0 014.617-7.453c-.631 0-7.608 1.793-9.194.955 12.103-8.502 9.377-19.31 27.806-28.952-4.841-4.123-9.784-7.407-6.225-15.257 5.045 6.988 14.646 4.659 19.833 1.328-5.126-1.165-11.717-6.359-13.283-12.089 1.933-.35 4.434 2.05 5.879 3.168.691-2.12.976-4.658 3.214-5.124-2.991 7.337 2.929 11.18 8.563 11.203.875 0 4.536-.419 4.536-.419-.59-1.374-2.949-5.124-1.241-6.638 1.383 1.49 3.031 2.678 4.536 3.983 10.984 9.736-5.227 18.75-11.858 22.85-10.395 6.428-7.608 14.091-3.275 16.048 0 .862-.489 1.234-1.2 1.514-3.031 1.164-5.899-1.328-8.32-2.912.143 4.798-.142 9.317 4.495 12.066l-3.193 1.327c2.746 2.33 3.58 3.657 6.896 4.146a13.218 13.218 0 01-5.106 1.025 15.09 15.09 0 001.627 4.332c-6.773.932-9.479-3.493-11.574-3.33-4.475.372-4.19 10.015 6.814 10.015l-1.139 2.143a11.443 11.443 0 004.069 1.654c-.733.675-1.424 1.584-2.035 2.329l1.75 1.724c-4.496.931-5.757-4.659-8.665-1.91-4.435 4.029 5.349 12.531 14.726 11.273a31.488 31.488 0 01-3.946 3.727c7.648 8.269 3.865 16.072 7.018 21.778-2.949-.205-5.763-1.484-8.032-3.65-2.269-2.167-3.873-5.107-4.579-8.392" fill="#222220"/><path fill-rule="evenodd" clip-rule="evenodd" d="M153.837 104.815c1.587 1.91 3.519 2.096 7.16 1.84-4.068-.559-6.265-1.677-7.668-4.659a52.316 52.316 0 01-.387-5.054c.113-5.943 1.548-11.756 4.17-16.887.099 2.754 1.035 5.381 2.648 7.427 1.612 2.046 3.798 3.382 6.18 3.777-5.492-2.749-8.706-8.945-6.956-14.93 1.139-2.097 2.441-4.24 3.864-6.453a88.399 88.399 0 002.034-3.028c-.732 3.052 2.482 6.196 4.638 6.732-1.159-1.305-3.682-5.567 2.034-12.671a26.842 26.842 0 00-4.76 3.33c10.537-13.043 19.202-13.392 23.189-19.96-5.594 4.425-20.849 6.964-27.725 4.634 3.784 2.889 12.917 2.633 15.134 2.097-7.445 8.269-23.677 16.84-26.443 24.433 2.569-3.531 6.053-6.036 9.947-7.15a78.901 78.901 0 00-6.794 13.37c-4.312 10.737-10.171 10.877-10.476 19.751 2.034-6.871 5.96-8.618 8.747-13.113a50.794 50.794 0 00-.631 9.759 34.381 34.381 0 001.912 10.691c-.284 4.379 0 11.856 4.435 16.794-2.426-4.112-3.605-9.022-3.357-13.976 3.438 7.594 13.222 18.075 17.961 25.109-4.739-9.06-16.272-19.635-18.815-31.863m108.315-36.429c3.885 1.122 7.361 3.625 9.926 7.15-2.807-7.616-19.059-16.164-26.443-24.433 2.238.536 11.35.815 15.134-2.096-6.855 2.142-22.111-.303-27.888-4.822 4.069 6.569 12.652 6.988 23.189 19.962a26.349 26.349 0 00-4.78-3.331c5.797 7.104 3.295 11.366 2.034 12.67 2.156-.535 5.39-3.68 4.658-6.73.692.954 1.403 1.956 2.034 3.027a88.18 88.18 0 013.865 6.452c1.749 5.986-1.485 12.182-6.957 14.93 2.38-.395 4.564-1.732 6.173-3.778 1.609-2.047 2.541-4.674 2.635-7.425 2.629 5.129 4.071 10.941 4.19 16.887a51.095 51.095 0 01-.407 5.054c-1.403 3.051-3.661 4.169-7.668 4.659 3.661.256 5.573 0 7.16-1.841-2.482 12.206-14.096 22.804-18.816 31.864 4.74-6.987 14.524-17.516 17.961-25.109.246 4.954-.933 9.863-3.356 13.976 4.394-4.938 4.719-12.415 4.434-16.817a34.57 34.57 0 001.912-10.668 49.536 49.536 0 00-.63-9.76c2.766 4.519 6.773 6.243 8.746 13.114-.386-8.851-6.102-8.991-10.495-19.752a78.391 78.391 0 00-6.794-13.37" fill="#222220"/><path fill-rule="evenodd" clip-rule="evenodd" d="M280.988 88.51c3.397.606 6.102.606 7.343-3.284-12.51-6.824-12.388-21.126-26.769-28.626 7.892-6.708 5.777-12.997 2.034-19.356-3.885 7.873-10.577 8.944-14.686 6.382 5.777-2.329 7.974-10.598 11.472-12.973-2.054-2.702-4.922-2.702-8.156-.373-1.77-5.427-7.567-3.634-8.442-3.634a8.254 8.254 0 011.984 2.89 9.335 9.335 0 01.701 3.585c-.61 5.45-8.319 4.659-8.319 4.659 1.566-3.68.875-5.87-2.604-7.756-1.057 2.934-9.356 6.87-9.885 12.647-.834 9.038 8.502 14.511 16.7 19.59 9.031 5.59 5.715 11.645 2.44 11.855-1.81 6.428 5.126 7.57 9.093 4.961 0 .862-.529 6.01-6.57 6.429a4.826 4.826 0 001.132 2.177 3.92 3.92 0 001.96 1.177 13.112 13.112 0 01-6.469 1.164c.224 2.795 2.868 5.031 6.102 5.404-.699 1.278-1.785 2.215-3.051 2.632 3.58 4.076 13.201 1.398 15.154-.955.895-1.071 2.034.443.915 2.073-1.118 1.631-5.939 3.541-9.865 2.166a4.363 4.363 0 00-.039 2.274 3.899 3.899 0 001.097 1.896 20.27 20.27 0 00-4.821 1.048c.366 1.886 2.238 2.981 2.889 3.727a8.193 8.193 0 00-1.709 3.307c1.749.978 6.55 2.492 9.113-.862 1.037-1.327 2.176-.489 1.118 1.211-3.783 5.963-12.814 6.056-16.008 4.193 0 4.658 1.668 5.613 3.804 7.547-6.53 8.618-2.217 16.304-6.835 23.804 8.706 0 14.239-5.427 15.663-10.528.059 1 .427 1.943 1.038 2.66.612.717 1.426 1.162 2.298 1.253a11.784 11.784 0 011.179-5.753c1.77 1.631 4.984 2.003 9.174 2.19-4.76-9.317 8.726-18.751 3.377-31.375-.794-1.887 1.525-3.098 1.749-1.165 1.261 10.831 6.794 13.277 11.493 9.9-1.404-1.771-2.035-1.724-2.889-3.331 3.153.955 4.76-1.654 5.574-4.938-8.544-3.447-3.947-11.856-9.357-19.892h-.122zm.834 21.499a20.216 20.216 0 001.81 5.59c-6.224-.466-3.336-15.466-9.56-11.856-.806.474-1.416 1.292-1.698 2.278a4.456 4.456 0 00.193 2.987c4.068 9.642-5.208 18.144-4.679 26.599-2.298 0-4.678 0-6.102-3.61a52.296 52.296 0 00-2.644 6.615l-1.851-3.61c-.709 3.283-2.315 6.221-4.583 8.387-2.268 2.166-5.081 3.446-8.029 3.655 3.133-5.707-.63-13.487 7.018-21.779a31.27 31.27 0 01-3.946-3.726c9.397 1.257 19.181-7.244 14.727-11.274-2.909-2.632-4.191 2.842-8.666 1.91l1.75-1.723c-.611-.699-1.322-1.608-2.034-2.33a11.41 11.41 0 004.068-1.653l-1.139-2.143c10.984 0 11.269-9.643 6.814-10.016-2.034-.186-4.801 4.24-11.574 3.33a15.74 15.74 0 001.627-4.331 13.245 13.245 0 01-5.105-1.025c3.315-.49 4.068-1.747 6.895-4.146l-3.193-1.351c4.637-2.656 4.332-7.267 4.475-12.066-2.421 1.608-5.289 4.076-8.299 2.912-.733-.28-1.2-.652-1.2-1.514 4.352-1.957 7.119-9.62-3.275-16.048-6.631-4.1-22.843-13.114-11.859-22.85 1.505-1.328 3.132-2.516 4.516-3.983 1.729 1.514-.631 5.264-1.221 6.638 0 0 3.662.42 4.516.42 5.655 0 11.594-3.867 8.584-11.204 2.258.536 2.522 3.005 3.193 5.124 1.444-1.118 3.946-3.517 5.879-3.168-1.567 5.754-8.137 10.925-13.303 12.09 5.187 3.237 14.788 5.636 19.832-1.328 3.539 7.849-1.403 11.133-6.245 15.256 18.45 9.62 15.724 20.427 27.806 28.952-1.566.839-8.563-.838-9.194-.955a44.913 44.913 0 014.638 7.454 39.52 39.52 0 011.79 8.105 12.907 12.907 0 001.653 5.278c.913 1.582 2.147 2.887 3.595 3.806-1.424 2.958-4.577.652-5.899.256m-88.015 23.665l2.624-2.562-.406-.908c-.285-.652-.143-.699.162-.955l1.383-1.188c.15-.128.326-.21.511-.239a.974.974 0 01.547.076l4.068 1.118h-4.292a1.542 1.542 0 00-1.054.365 1.957 1.957 0 00-.634 1.032l-.305.699-1.139 2.656a3.383 3.383 0 00-.289 1.838c.077.632.328 1.22.716 1.679l.793 1.094-1.586 3.75h1.363l1.118-2.608c.934-.987 1.634-2.229 2.034-3.611-.467-.442-.813-.768-.549-1.374l.509-1.234c.163-.42.224-.583.712-.466l4.373 1.071c.326.193.703.242 1.059.139a1.52 1.52 0 00.873-.698c.59-1.048.672-.931 2.034-.768l2.238.279c2.517.371 5.072-.201 7.282-1.63.407 1.094 1.241 1.91 1.627 2.748.143.303 0 .746-.285 1.305l-2.42 6.847h3.865l2.176-6.265c.162-.489.412-.933.732-1.305l-1.24 7.57h3.742l.997-7.5c.224-1.653 0-2.212-.61-2.888-1.566-1.514-1.526-4.658-2.034-6.615a1.33 1.33 0 01.935-.21c.814 0 1.424 2.469 2.401 4.007 1.912 3.098 4.536 6.498 7.546 1.7a10.841 10.841 0 00-.976-1.514l-.834-1.118c-.489-.629-2.807-3.657-3.784-4.658-.895-1.021-2.063-1.667-3.317-1.836-1.254-.169-2.521.149-3.599.904-3.051-1.84-6.265 0-7.017 0l-5.248-.373a.935.935 0 01-.492-.166 1.127 1.127 0 01-.362-.416l.976-.373c-.915-4.355-3.214-7.989-7.221-8.618 0 0-.244-1.374-.854-1.63l-1.2 1.607a3.564 3.564 0 00-1.017.326l-5.126-2.19 3.946 4.403s-2.034 3.237-2.665 3.866a1.197 1.197 0 00-.223.379 1.328 1.328 0 000 .896c.052.142.128.271.223.379l.753 1.118c.386.582.813.559 1.424.186l.834-.512c.366-.349 1.606.349 2.034-.21a19.64 19.64 0 00-.346 3.494l-3.458-.466a1.525 1.525 0 00-.818-.005 1.646 1.646 0 00-.728.425l-2.949 2.585c-.481.429-.812 1.039-.935 1.722a3.311 3.311 0 00.263 2.005l1.139 2.841zm28.478.746l-2.34 6.591h-1.444l2.339-6.382c.244-.815-.223-1.211-.793-2.119a15.77 15.77 0 002.543 1.397c-.105.164-.2.335-.285.513h-.02zm-22.518-14.302l-.671.396c-.468.303-.692.443-1.098-.139l-.285-.42a.98.98 0 01-.108-.555.94.94 0 01.21-.516l2.868-3.82-2.645-2.492 3.357 1.42 1.24-1.77c.366.35.244 1.374.244 1.374 1.579.367 2.993 1.361 3.994 2.805 1.001 1.445 1.525 3.248 1.478 5.092.474.808 1.203 1.376 2.034 1.583l5.838.396c.976 0 3.377-2.119 6.489 0a5.894 5.894 0 012.481-1.094 6.843 6.843 0 013.584 1.162c1.09.724 2.005 1.75 2.661 2.984 1.098 1.584 2.603 4.029 2.603 4.029-.65.885-1.281 1.165-1.81.955a2.943 2.943 0 01-.9-.987 3.416 3.416 0 01-.422-1.342c-.43-1.199-1.132-2.244-2.034-3.028.437 1.114.745 2.288.915 3.494-2.278-2.586-2.705-5.73-4.312-6.173a2.076 2.076 0 00-1.297.199 2.438 2.438 0 00-1.001.966c.813 2.143.752 4.658 1.586 6.266.631 1.234.753 1.351 1.037 1.63.672.559.285 1.537.184 2.329l-.875 6.196h-1.444l.956-6.079c.284-1.84-4.231-1.84-6.57-5.381-2.034 2.656-7.526 1.98-9.927 1.584a1.794 1.794 0 00-1.378-.002 2.129 2.129 0 00-1.063 1.004c-.305.605-.834.419-1.159.349l-4.373-1.071a.938.938 0 00-.875.009 1.08 1.08 0 00-.356.309 1.255 1.255 0 00-.213.45l-.875 2.073a1.068 1.068 0 00-.119.652c.03.227.13.434.282.583l.406.512a4.237 4.237 0 01-1.037 1.747l-.956-1.234a2.372 2.372 0 01-.358-1.145c-.022-.412.06-.824.236-1.185l1.424-3.377c.088-.237.236-.438.424-.579a1.04 1.04 0 01.634-.213h5.41l-1.647-3.098c-1.241-2.329.813-6.452.508-8.408-.163 2.608-2.929 1.421-3.356 1.77l.081-.21zm-5.878 7.803l2.563-2.329c.162-.2.362-.356.583-.457.222-.1.46-.143.698-.125l3.621.535c.164.696.425 1.356.773 1.957l-3.845-.932a1.163 1.163 0 00-.651.009c-.213.065-.409.19-.569.364l-1.831 1.584a1.074 1.074 0 00-.306.64c-.03.249.021.502.144.711l.284.722-1.281 1.095-.488-1.049c-.488-1.118-.529-2.143.284-2.865m11.168-79.426a25.794 25.794 0 003.885 2.33V48.75l-5.472-2.33s0 .769 1.587 2.004m3.885-2.398v-1.887l-6.103-2.539c.71.8 1.486 1.518 2.319 2.143a26.062 26.062 0 003.885 2.33m-.101-4.333v-1.91l-6.794-2.865s1.322 1.234 2.909 2.469a25.386 25.386 0 003.885 2.329" fill="#222220"/><path fill-rule="evenodd" clip-rule="evenodd" d="M228.081 67.547h6.957c-.258-.766-.733-1.412-1.348-1.834a2.885 2.885 0 00-2.049-.495 3.539 3.539 0 00-2.066.59 4.27 4.27 0 00-1.494 1.74m-7.261-30.583l-6.794 2.864v1.887a25.483 25.483 0 003.885-2.33c1.586-1.233 2.888-2.468 2.888-2.468m-1.302 9.387l-5.471 2.33v1.886a25.961 25.961 0 003.885-2.33c1.586-1.234 1.586-2.003 1.586-2.003m.753-4.588l-6.102 2.539v1.886a25.67 25.67 0 003.885-2.329 15.998 15.998 0 002.319-2.143m-28.966 23.665a2.881 2.881 0 00-2.048.495c-.616.422-1.091 1.068-1.348 1.835h6.956a4.268 4.268 0 00-1.493-1.74 3.54 3.54 0 00-2.067-.59" fill="#222220"/><path fill-rule="evenodd" clip-rule="evenodd" d="M225.315 31.887c0-4.472-6.57-8.478-13.811-8.478-7.242 0-13.812 4.006-13.812 8.478l.143 1.095 2.888 19.006-13.588 9.13a8.851 8.851 0 00-2.402 2.773 10.183 10.183 0 00-1.198 3.656h2.502c.177-1.586.871-3.038 1.941-4.066 1.071-1.027 2.44-1.555 3.836-1.477 3.153.186 5.024 2.33 6.895 5.543l.468.839.692 1.234h-20.138c1.689 3.337 2.678 7.076 2.889 10.924v47.889c0 12.322 8.278 18.215 17.228 18.215 6.916 0 7.852-.35 11.676 4.006 3.804-4.379 4.739-4.006 11.676-4.006 8.949 0 17.228-5.87 17.228-18.215V80.498c.211-3.849 1.199-7.588 2.889-10.924h-20.138l.692-1.235.488-.838c1.851-3.145 3.722-5.357 6.895-5.544 1.395-.064 2.76.476 3.823 1.511 1.063 1.036 1.746 2.493 1.914 4.08h2.481a10.21 10.21 0 00-1.162-3.644 8.87 8.87 0 00-2.357-2.785l-13.689-9.13 2.888-19.007.163-1.095zm-24.816 2.19l10.171 3.983v18.307l-7.526-4.542-2.645-17.748zm2.522 38.828c1.507 2.232 3.68 3.75 6.103 4.262.253 1.297.875 2.46 1.769 3.308a6.729 6.729 0 00-.077 2.317c.108.77.349 1.508.708 2.171.36.664.831 1.238 1.386 1.691a4.856 4.856 0 001.848.948c.141.81.468 1.563.947 2.181a4.069 4.069 0 001.779 1.336l-2.034 2.819a3.227 3.227 0 01-1.24 1.051 2.791 2.791 0 01-1.527.253l-9.539-1.235c.406-1.21-.692-2.608-3.703-2.003l3.743-12.019-2.359-5.45-4.333 4.24-.325 12.6-1.851-1.048c-2.421-1.188-3.133 3.82-.834 3.843h.915a1.35 1.35 0 00.042.706c.077.224.211.417.385.552a.82.82 0 00-.262.314.957.957 0 000 .84.82.82 0 00.262.314.957.957 0 00-.313.322 1.157 1.157 0 00-.103.93c.049.153.129.29.233.401a2.633 2.633 0 00-.177 2.037c.108.333.281.633.505.877.225.245.495.427.791.534 1.363.419 2.217-1.282 2.502-2.33l14.848 5.264a4.44 4.44 0 002.862.186c.95-.256 1.814-.822 2.488-1.63l3.865-3.89a5.288 5.288 0 00.115 3.226c.373 1.025 1.054 1.863 1.919 2.365a27.038 27.038 0 00-.163 3.307h-38.647v-27.95a24.893 24.893 0 00-1.444-7.617l18.916-.023zm15.968 10.598a6.418 6.418 0 00-.553 2.887 6.324 6.324 0 00.777 2.82l-.631.721c-2.787-.396-3.885-5.147-3.885-5.147a8.835 8.835 0 000 1.28c-.822-.334-1.521-.975-1.986-1.82a4.974 4.974 0 01-.577-2.838 5.91 5.91 0 002.034.816l.183-1.398a3.995 3.995 0 01-2.203-1.114 4.956 4.956 0 01-1.316-2.31h-.264 1.037a10.228 10.228 0 003.194-.536 5.644 5.644 0 001.633 1.595c.633.4 1.329.65 2.048.734a7.695 7.695 0 00.509 4.147v.163zm4.068 12.414a5.18 5.18 0 00-.651 1.468l-1.546 1.63a9.692 9.692 0 00-.591-3.841 8.632 8.632 0 00-2.012-3.147l1.647-1.863.326.373a4.985 4.985 0 00-.074 1.718 4.77 4.77 0 00.514 1.617c.263.494.61.924 1.02 1.263.41.34.874.581 1.367.712v.07zm-7.445-.652l1.282-1.444c.883.842 1.571 1.92 2.004 3.139a9.078 9.078 0 01.477 3.849l-1.403 1.467a5.082 5.082 0 01-.895.769 9.907 9.907 0 00.091-4.093 9.249 9.249 0 00-1.556-3.687zm-2.746 1.211a2.38 2.38 0 001.404-.233 8.748 8.748 0 011.102 3.657 9.013 9.013 0 01-.533 3.82 5.86 5.86 0 01-1.912-.326l-.488-.163c.848-2.129.986-4.54.387-6.778l.04.023zm-3.274-.489l1.81.256c.329 2.17.029 4.403-.854 6.359l-2.035-.699c.911-1.787 1.309-3.856 1.14-5.916h-.061zm-3.723-.489l2.177.303a11.12 11.12 0 01-1.017 5.683l-2.218-.745c.858-1.561 1.23-3.407 1.058-5.241zm-8.848-.675a.889.889 0 01-1.024-.104 1.13 1.13 0 01-.332-.478 1.298 1.298 0 01-.068-.606 3.09 3.09 0 011.746-.465 3.137 3.137 0 011.712.604c.529.396.976 1.491 1.709 2.167a19.939 19.939 0 01-.672 3.19 1.874 1.874 0 01-1.074-.428 2.3 2.3 0 01-.705-1.023 2.64 2.64 0 01-.115-1.297c.07-.436.247-.84.511-1.164a1.352 1.352 0 00-.788-.565 1.209 1.209 0 00-.92.145l.02.024zm-1.444 4.635c.444.19.91.308 1.383.35-.01.125-.042.248-.095.359a.9.9 0 01-.215.285.745.745 0 01-.297.161.691.691 0 01-.329.009.714.714 0 01-.273-.175.836.836 0 01-.184-.289.931.931 0 01.01-.7zm-2.034-6.708a.618.618 0 01-.264-.315.742.742 0 01-.032-.435.657.657 0 01.215-.36.52.52 0 01.365-.125c.611 0 1.445.815 2.238 1.211a6.71 6.71 0 01-2.522 0v.024zm2.034 4.844c.447.49 1.769.303 1.769.303v.303c-.569.885-2.176.49-1.81-.606h.041zm1.749-1.001c-.936.419-1.912-.163-1.607-.862.448.466 1.668.233 1.668.233l-.061.629zm1.383-12.578l-1.81 7.547.61-12.182 2.807-2.749 1.424 3.587-3.478 11.786.956-7.966c0-.559-.305-.605-.387 0l-.122-.023zm.244 9.154a10.18 10.18 0 012.584.14c.427.21.142 1.001-.407.908a10.693 10.693 0 01-2.177-1.048zm3.153 1.84l2.197.303a9.327 9.327 0 01-.936 5.008l-2.034-.7a17.58 17.58 0 00.875-4.658l-.102.047zm35.515 33.447c.098 2.579-.437 5.137-1.545 7.385-1.107 2.248-2.742 4.095-4.72 5.333l1.404-3.261h-1.363l-1.79 4.193a15.709 15.709 0 01-6.326 1.257c-7.14 0-9.031.327-11.676 3.355-2.644-3.005-4.536-3.355-11.675-3.355a15.765 15.765 0 01-6.367-1.281l1.81-4.192h-1.322l-1.586 3.68c-.387-.21-.733-.419-1.099-.652l1.302-3.005h-1.342l-.957 2.329c-1.568-1.35-2.828-3.114-3.675-5.141a15.724 15.724 0 01-1.186-6.505v-18.494h52.011l.102 18.354zm1.444-55.528a24.223 24.223 0 00-1.444 7.617v27.95h-2.848a20.44 20.44 0 01-2.379-6.196 8.84 8.84 0 00-.145 3.202 8.474 8.474 0 00.999 2.994h-3.661a27.049 27.049 0 01-1.689-6.359c-1.098 1.421-.407 5.288.285 6.359h-2.421a16.183 16.183 0 01.346-4.146c-1.281-.279-2.624-1.025-2.624-2.655.224.276.507.481.821.595.313.114.647.134.969.057l1.038-.932c-3.418.117-3.58-4.169-.875-6.195-2.726 0-4.739-1.747-3.763-5.055a4.383 4.383 0 01-1.156-1.282 5.038 5.038 0 01-.632-1.695 5.305 5.305 0 01-.008-1.842 5.048 5.048 0 01.616-1.703 6.058 6.058 0 01-.919-2.676 6.301 6.301 0 01.37-2.844c-1.4.017-2.75-.593-3.763-1.7h-.224c1.618-.747 3.025-1.987 4.068-3.587l19.039.093zm-10.353-13.463c-2.827.559-5.248 4.519-7.221 8.082l-.224.42h-2.034v.419c-.224 2.748-2.502 6.475-7.526 6.475-1.898.069-3.759-.614-5.268-1.933-.944-.854-1.651-2.003-2.034-3.308-.115-.4-.19-.814-.224-1.234v-.42h-2.034l-.509-.419c-2.034-3.563-4.414-7.5-7.221-8.082l7.669-5.101 9.458 5.846 9.418-5.87 7.75 5.125zm-8.787-7.64l-7.526 4.542v-18.33l10.17-3.984-2.644 17.772zm-8.381-15.792l-11.187-5.054c.956-2.563 5.329-4.659 11.167-4.659s10.17 2.19 11.147 4.659l-11.127 5.054z" fill="#222220"/><path fill-rule="evenodd" clip-rule="evenodd" d="M236.34 90.956v-1.398c-3.763 0-4.618-5.17-4.618-5.17a5.877 5.877 0 00-.09 2.437c.141.81.45 1.568.901 2.212a4.624 4.624 0 001.689 1.488 3.997 3.997 0 002.097.43M231.6 99.55l-.366-1.327c-3.193.932-4.861-4.868-4.861-4.868-.214.84-.23 1.73-.047 2.578.184.85.56 1.628 1.091 2.257a4.264 4.264 0 001.931 1.325 3.805 3.805 0 002.252.036m2.319-5.381c-3.824.7-5.39-4.402-5.39-4.402a5.67 5.67 0 00.012 2.017 5.35 5.35 0 00.712 1.844 4.633 4.633 0 001.295 1.367c.508.35 1.074.576 1.663.665a4.367 4.367 0 00.131 2.169c.225.693.62 1.297 1.137 1.74a3.109 3.109 0 001.78.755 3.008 3.008 0 001.854-.471l-.366-1.258a2.188 2.188 0 01-1.59.072 2.512 2.512 0 01-1.3-1.048 3.131 3.131 0 01-.479-1.737 3.114 3.114 0 01.541-1.713m-2.38-14.558v-1.397c-5.044-1.188-4.637-5.171-4.637-5.171a5.889 5.889 0 00-.08 2.434c.143.806.452 1.563.902 2.205a4.644 4.644 0 001.683 1.488 4.022 4.022 0 002.092.441m-31.976 58.278l-1.811 4.216h1.363l1.811-4.216h-1.363zm2.726 0l-1.79 4.216h1.362l1.79-4.216h-1.362zm10.943 0l-1.81 4.216h1.362l1.811-4.216h-1.363zm2.746 0l-1.81 4.216h1.362l1.79-4.216h-1.342zm-5.472 0l-1.81 4.216h1.363l1.81-4.216h-1.363zm15.968 4.216h1.363l1.81-4.216h-1.363l-1.81 4.216zm-21.439-4.216l-1.811 4.216h1.363l1.81-4.216h-1.362zm2.725 0l-1.81 4.216h1.383l1.79-4.216h-1.363zm-6.183-22.571a.49.49 0 00-.324.058.588.588 0 00-.238.259.71.71 0 00.062.713c.073.098.17.168.278.2a.484.484 0 00.327-.016.567.567 0 00.261-.228.686.686 0 00.101-.357.662.662 0 00-.125-.42.518.518 0 00-.342-.209m10.007-94.752c4.498-.147 8.914 1.4 12.571 4.402a31.301 31.301 0 013.254-9.573l-4.515.583-2.36-5.753-4.536 2.701-4.414-4.984-4.393 5.008-4.577-2.726-2.36 5.754-4.515-.583c1.583 2.939 2.685 6.183 3.254 9.573 3.663-3.006 8.087-4.552 12.591-4.402zm-10.536-2.329l2.115-5.194 4.068 2.33 4.353-4.869 4.414 4.984 4.068-2.329 2.034 5.218 2.645-.466a24.95 24.95 0 00-1.668 4.519c-3.519-2.25-7.483-3.432-11.513-3.432-4.031 0-7.994 1.182-11.513 3.432a25.481 25.481 0 00-1.668-4.52l2.665.327z" fill="#222220"/><path fill-rule="evenodd" clip-rule="evenodd" d="M216.141 10.272a1.1 1.1 0 00.873-.31c.244-.231.398-.564.429-.924a9.309 9.309 0 00-.895-2.749s-1.444 1.77-1.485 2.516c-.023.357.077.71.279.984.201.274.488.448.799.483m7.384 3.074a1.036 1.036 0 00.91.096c.15-.055.289-.142.408-.259.12-.116.218-.259.289-.42a9.565 9.565 0 00.102-2.934s-1.912.978-2.218 1.654a1.56 1.56 0 00-.075 1.04c.095.344.305.631.584.8m-16.618-3.051c.314-.03.606-.2.812-.475.206-.275.308-.631.286-.992 0-.746-1.485-2.516-1.485-2.516a9.439 9.439 0 00-.895 2.749c.031.356.182.684.422.915.239.23.548.345.86.319m-7.404 3.074c.275-.172.48-.462.572-.806a1.557 1.557 0 00-.084-1.034c-.305-.675-2.217-1.653-2.217-1.653a9.474 9.474 0 00.122 2.934c.07.16.169.303.288.42.12.116.259.204.408.258a1.04 1.04 0 00.911-.095m88.746 46.538c1.543-.758 2.763-2.18 3.397-3.96-4.068-.652-14.665-5.776-23.432-1.607 3.275-3.564 6.224-4.03 6.509-9.154a3.09 3.09 0 001.242.813c.463.16.951.195 1.428.105.477-.09.929-.303 1.323-.624.394-.32.719-.74.95-1.226-.895-3.05-3.174-.582-3.499-1.42-.326-.839 2.868.349 3.58-3.61-2.583-1.026-3.356 1.397-3.824.838-.468-.56 1.647-1.56.122-4.659-2.685 1.794-1.282 3.843-1.851 4.053-.57.21-.142-2.166-3.112-2.05-.285 3.657 2.786 3.774 2.278 4.356-.509.582-1.424-2.096-3.661-.675a4.277 4.277 0 00.274 1.797c.218.565.553 1.06.975 1.444a3.14 3.14 0 001.451.755c.53.113 1.077.077 1.591-.107-.345 5.614-4.841 4.659-8.136 10.901 7.099 4.17 10.293 11.437 14.666 16.444a29.285 29.285 0 003.905-6.382 5.758 5.758 0 001.865 1.434 5.117 5.117 0 002.203.504 5.11 5.11 0 002.204-.504 5.758 5.758 0 001.865-1.434c-1.628-1.91-1.689-3.354-4.17-5.962l-.143-.07zm-6.732 1.094c.527 1.437.725 3.004.576 4.553a9.983 9.983 0 01-1.431 4.298c-2.104-5.228-5.245-9.822-9.173-13.416-.631-.466.345-1.304 2.156-1.584 5.451-1.188 11.838 1.468 14.889 2.33-1.165 1.082-2.577 1.761-4.068 1.956a26.696 26.696 0 014.963 5.916c-2.136.606-3.356-.955-7.973-4.123m-45.625 93.635v-6.872c-5.755 2.917-11.907 4.674-18.185 5.194l-.345 2.446c.651 0 1.464.186 2.542.28-5.588.87-11.254.87-16.842 0 1.078 0 1.892-.163 2.543-.28l-.346-2.446c-6.236-.533-12.346-2.29-18.063-5.194v6.848l-6.102 2.958a70.063 70.063 0 0016.273 6.848l-.733 2.865c9.895 3.208 20.373 3.208 30.267 0l-.732-2.865a70.272 70.272 0 0016.273-6.848l-6.55-2.934zm-51.543 3.097l4.23-1.956v-5.59a64.873 64.873 0 0011.412 3.61l-2.401 8.944a63.736 63.736 0 01-13.241-5.077v.069zm27.256 10.319a50.389 50.389 0 01-13.425-1.933l2.543-9.317a57.548 57.548 0 0021.785 0l2.542 9.317a50.61 50.61 0 01-13.445 1.933zm13.974-5.241l-2.42-9.014a64.871 64.871 0 0011.411-3.657v5.59l4.231 1.957a63.125 63.125 0 01-13.242 5.077m-86.835-96.848a29.455 29.455 0 003.906 6.359c4.373-5.008 7.587-12.275 14.665-16.445-3.356-6.312-7.851-5.264-8.136-10.9a2.914 2.914 0 001.585.096 3.14 3.14 0 001.442-.758c.42-.382.753-.876.97-1.438a4.289 4.289 0 00.275-1.79c-2.258-1.42-3.052 1.397-3.662.675-.61-.722 2.584-.698 2.278-4.355-2.969 0-2.42 2.329-3.132 2.05-.712-.28.834-2.33-1.851-4.053-1.526 3.214.549 4.216.122 4.658-.427.443-1.241-1.863-3.824-.838.691 3.96 4.068 2.329 3.58 3.61-.488 1.28-2.604-1.63-3.499 1.42.228.49.551.913.945 1.237a2.95 2.95 0 001.326.628c.478.09.968.053 1.431-.109a3.091 3.091 0 001.241-.824c.285 5.148 3.234 5.567 6.509 9.154-8.767-4.17-19.405.955-23.432 1.607.643 1.776 1.87 3.19 3.417 3.937-2.604 2.748-2.604 4.192-4.19 6.102 0 0 3.315 4.17 8.136 0l-.102-.023zm-4.861-.769a26.353 26.353 0 014.983-5.916c-1.492-.208-2.902-.894-4.068-1.98 3.051-.931 9.459-3.563 14.91-2.329 1.79.28 2.807 1.118 2.156 1.584-3.959 3.591-7.128 8.194-9.255 13.44a10.172 10.172 0 01-1.41-4.302c-.15-1.546.041-3.11.556-4.55-4.597 3.191-5.818 4.659-7.974 4.123m73.979-3.121v3.028a3.242 3.242 0 011.235-.841 2.902 2.902 0 011.43-.16v4.355a7.199 7.199 0 01-.732 3.075h3.804a7.23 7.23 0 01-.733-3.075V64.03a2.88 2.88 0 011.431.158c.461.173.882.461 1.234.844v-3.028h-7.669v.023z" fill="#222220"/></svg>