<svg width="197" height="82" fill="none" xmlns="http://www.w3.org/2000/svg"><path d="M7.84 71.453H0v-3.614h21.39v3.62h-7.84v9.978H7.84v-9.984zm35.472-3.613v13.54h-5.518v-7.875l-9.515 7.897h-4.872V67.86h5.519v7.896l9.515-7.896 4.871-.022zm9.506 13.561h-5.519v-13.54h5.519v4.988h8.868V67.86h5.519v13.541h-5.52v-5.046h-8.867v5.046zm18.364 0v-13.54H76.7v3.648h5.709a15.514 15.514 0 014.034.37c1.254.317 2.338.93 3.086 1.748.748.817 1.121 1.795 1.063 2.785.047 1.074-.4 2.128-1.265 2.984-.867.857-2.1 1.464-3.493 1.72a16.6 16.6 0 01-3.463.314l-11.19-.029zm5.519-3.278h4.757a6.834 6.834 0 002.17-.2c.42-.13.78-.351 1.031-.636.251-.285.382-.619.377-.96.008-.337-.133-.667-.401-.938-.27-.27-.65-.467-1.084-.559a8.5 8.5 0 00-2.13-.17h-4.758l.038 3.463zm21.913 3.278h-5.519v-13.54h5.519v5.102h1.522l6.661-5.103h6.927l-8.83 6.5 9.172 7.07h-7.345l-6.585-5.132h-1.522v5.103z" fill="#222220"/><path d="M137.387 74.645c0 4.048-4.453 7.184-11.836 7.184-7.384 0-11.875-3.136-11.875-7.184s4.453-7.176 11.922-7.176c7.47 0 11.789 3.128 11.789 7.176zm-5.785 0c0-2.223-2.397-3.848-6.051-3.848-3.654 0-6.052 1.625-6.052 3.848 0 2.224 2.36 3.877 6.052 3.877 3.692 0 6.051-1.653 6.051-3.877zm35.092-.028c0 3.876-4.149 5.9-11.114 6.014V82h-5.519v-1.368c-6.926-.115-11.075-2.139-11.075-6.016 0-3.876 4.149-6.071 11.075-6.186v-1.36h5.519v1.346c6.965.129 11.114 2.324 11.114 6.2zm-16.633-3.25c-3.806.114-5.48 1.425-5.48 3.25 0 1.824 1.674 2.993 5.48 3.107v-6.357zm11 3.25c0-1.825-1.637-3.136-5.481-3.25v6.357c3.844-.114 5.481-1.283 5.481-3.108zm34.949 0c0 3.876-4.149 5.9-11.114 6.014V82h-5.519v-1.368c-6.927-.115-11.075-2.139-11.075-6.016 0-3.876 4.148-6.071 11.075-6.186v-1.36h5.519v1.346c6.955.129 11.114 2.324 11.114 6.2zm-16.633-3.25c-3.806.114-5.48 1.425-5.48 3.25 0 1.824 1.674 2.993 5.48 3.107v-6.357zm11 3.25c0-1.825-1.637-3.136-5.481-3.25v6.357c3.835-.114 5.471-1.283 5.471-3.108h.01z" fill="#222220"/><path fill-rule="evenodd" clip-rule="evenodd" d="M81.62 38.449c.951-.592 1.817-.884 1.78-2.31-1.495.57-5.71.542-7.49-1.282-.503-.52 0-.777.515-.37 1.208 1.026 3.444.562 4.262.263a2.351 2.351 0 00-.76-1.012c.304-.228 1.17-.563 1.35-1.14a13.99 13.99 0 00-2.302-.321 1.17 1.17 0 00.48-.584.887.887 0 00-.043-.685c-1.836.42-4.1-.15-4.614-.655-.514-.506 0-.97.437-.642.952.713 5.414 1.547 7.089.293-.595-.12-1.11-.398-1.446-.784 1.55-.114 2.788-.799 2.854-1.654a9.014 9.014 0 01-3.026-.356 2.17 2.17 0 00.92-.363 1.41 1.41 0 00.527-.67c-2.855-.129-3.064-1.704-3.074-1.968 1.846.799 5.1.442 4.254-1.517-1.532-.065-3.083-1.925 1.141-3.635 3.806-1.554 8.202-3.236 7.822-5.994-.257-1.767-4.14-2.972-4.634-3.87-1.618.578-1.903 1.248-1.218 2.374 0 0-3.616.27-3.901-1.426 0-.379.112-.754.33-1.096.216-.343.533-.645.926-.885-.41 0-3.13-.549-3.949 1.12-1.532-.778-2.854-.756-3.863.07 1.637.713 2.655 3.229 5.367 3.97-1.903.784-5.053.456-6.87-1.953-1.723 1.946-2.712 3.87.951 5.922-6.727 2.295-6.66 6.671-12.522 8.76.6 1.19 1.846 1.19 3.435 1.004-2.53 2.459-.37 5.039-4.377 6.086.371 1.005 1.123 1.803 2.608 1.511-.42.492-.695.478-1.352 1.02 2.189 1.033 4.758.284 5.376-3.03.105-.591 1.19-.22.819.357-2.493 3.862 3.806 6.77 1.58 9.607 1.969-.065 3.463-.179 4.29-.677.41.536.601 1.15.552 1.767a2.002 2.002 0 001.075-.384c.286-.219.458-.507.486-.813.713 1.553 3.254 3.214 7.336 3.214-2.16-2.302-.152-4.647-3.207-7.284l.086.022zm-4.11 2.829l-.876 1.112a12.924 12.924 0 00-1.237-2.024c-.695 1.083-1.808 1.104-2.854 1.104.304-2.572-4.035-5.173-2.132-8.124a.988.988 0 00.179-.451.915.915 0 00-.068-.469 1.156 1.156 0 00-.303-.412 1.61 1.61 0 00-.493-.293c-2.912-1.105-1.56 3.485-4.472 3.62a5 5 0 00.847-1.703c-.619.121-2.103.827-2.769-.078.68-.279 1.26-.677 1.688-1.162.428-.484.691-1.04.767-1.618.14-.848.414-1.68.818-2.48a14.762 14.762 0 012.16-2.28c-.295 0-3.568.549-4.3.292 5.66-2.601 4.386-5.915 13.006-8.859-2.264-1.261-4.576-2.259-2.92-4.668 2.359 2.138 6.86 1.426 9.276.4-2.397-.357-5.49-1.939-6.222-3.7.951-.106 2.074.628 2.75.97.323-.649.456-1.425 1.503-1.568-1.399 2.252 1.37 3.42 4.015 3.428.41 0 2.122-.128 2.122-.128-.276-.42-1.38-1.568-.571-2.038.647.456 1.418.82 2.122 1.218 5.138 2.98-2.446 5.737-5.547 6.991-4.872 1.968-3.569 4.312-1.532 4.91 0 .264-.229.386-.562.464-1.417.356-2.759-.406-3.891-.89.066 1.467-.067 2.85 2.103 3.69l-1.494.414c1.284.713 1.674 1.12 3.225 1.269a9.146 9.146 0 01-2.388.313c.152.471.409.92.761 1.326-3.168.285-4.434-1.076-5.414-1.02-2.093.115-1.96 3.065 3.188 3.065l-.533.663a7.24 7.24 0 001.903.506c-.343.207-.676.485-.952.713l.819.527c-2.103.285-2.693-1.425-4.054-.584-2.074 1.233 2.503 3.834 6.899 3.449-.572.42-1.19.804-1.846 1.147 3.577 2.53 1.817 4.918 3.282 6.664-1.38-.061-2.7-.452-3.763-1.115-1.063-.663-1.815-1.563-2.145-2.57" fill="#DEE0E1"/><path fill-rule="evenodd" clip-rule="evenodd" d="M71.953 32.07c.742.578 1.646.642 3.349.556-1.903-.17-2.93-.513-3.587-1.425a10.326 10.326 0 01-.19-1.547c.057-1.819.732-3.597 1.96-5.166.046.842.484 1.646 1.238 2.272.754.626 1.777 1.035 2.891 1.155-2.569-.84-4.082-2.736-3.254-4.568a27.997 27.997 0 011.817-1.974c.343-.328.666-.634.952-.926-.343.933 1.16 1.902 2.179 2.06-.552-.4-1.723-1.704.951-3.878-.788.28-1.534.622-2.226 1.02 4.928-3.992 8.982-4.106 10.847-6.115-2.702 1.382-9.839 2.138-13.045 1.475 1.77.884 6.042.805 7.079.641-3.483 2.537-11.076 5.153-12.37 7.483 1.202-1.082 2.831-1.85 4.653-2.195a22.737 22.737 0 00-3.178 4.091c-2.017 3.285-4.757 3.328-4.9 6.044.951-2.139 2.797-2.637 4.091-4.013a10.23 10.23 0 00-.294 2.986 7.341 7.341 0 00.894 3.272c-.133 1.34 0 3.627 2.084 5.145-1.135-1.258-1.686-2.76-1.57-4.276 1.608 2.323 6.184 5.53 8.401 7.683-2.216-2.773-7.611-6.008-8.81-9.75m50.743-11.21c1.822.345 3.451 1.113 4.653 2.195-1.313-2.33-8.916-4.946-12.369-7.483 1.046.164 5.318.25 7.088-.642-3.206.656-10.352-.092-13.045-1.475 1.903 2.01 5.918 2.138 10.847 6.115a13.585 13.585 0 00-2.226-1.02c2.711 2.174 1.541 3.471.951 3.878 1.009-.164 2.522-1.126 2.179-2.06.324.292.657.606.952.927.675.67 1.275 1.332 1.808 1.974.818 1.831-.695 3.727-3.255 4.568 1.114-.121 2.135-.53 2.888-1.156.752-.627 1.188-1.43 1.232-2.272 1.23 1.57 1.905 3.348 1.96 5.167a10.251 10.251 0 01-.19 1.546c-.656.934-1.713 1.276-3.577 1.426 1.703.078 2.597 0 3.349-.556-1.171 3.734-6.594 6.977-8.811 9.75 2.217-2.139 6.794-5.36 8.402-7.684.115 1.516-.437 3.018-1.57 4.277 2.045-1.511 2.207-3.799 2.074-5.146a7.417 7.417 0 00.894-3.271 9.99 9.99 0 00-.295-2.986c1.294 1.382 3.169 1.91 4.092 4.012-.171-2.715-2.855-2.758-4.9-6.043a22.518 22.518 0 00-3.178-4.091" fill="#DEE0E1"/><path fill-rule="evenodd" clip-rule="evenodd" d="M131.45 27.082c1.589.185 2.855.185 3.435-1.005-5.852-2.088-5.804-6.464-12.522-8.759 3.692-2.053 2.702-3.984.952-5.922-1.818 2.409-4.948 2.736-6.87 1.952 2.712-.712 3.73-3.242 5.366-3.97-.97-.826-2.302-.876-3.825-.113-.828-1.66-3.539-1.12-3.948-1.12.392.24.709.543.926.885.218.343.33.718.33 1.097-.286 1.668-3.892 1.425-3.892 1.425.723-1.125.409-1.795-1.218-2.373-.495.898-4.377 2.103-4.624 3.87-.39 2.765 3.977 4.44 7.812 5.994 4.224 1.71 2.673 3.563 1.141 3.634-.847 1.967 2.408 2.317 4.254 1.518 0 .264-.238 1.839-3.074 1.967.09.256.272.488.528.67.255.183.573.309.918.364a9.075 9.075 0 01-3.025.356c.104.855 1.341 1.54 2.854 1.653-.328.394-.84.68-1.437.806 1.675 1.247 6.176.427 7.089-.293.419-.327.952.143.438.635-.514.491-2.779 1.083-4.615.663a.893.893 0 00-.045.683c.076.226.241.43.473.585-.765.047-1.521.154-2.255.32.171.578 1.047.913 1.351 1.141-.373.283-.648.63-.799 1.012.818.3 3.064.763 4.263-.264.485-.406 1.018-.15.523.371-1.77 1.824-5.994 1.853-7.488 1.283 0 1.425.78 1.717 1.779 2.316-3.054 2.637-1.037 4.989-3.197 7.283 4.072 0 6.661-1.66 7.336-3.214.028.306.2.595.486.814.286.22.667.356 1.075.384-.045-.617.146-1.23.551-1.768.828.5 2.332.613 4.292.677-2.227-2.85 4.082-5.737 1.579-9.607-.371-.577.714-.947.818-.356.581 3.307 3.188 4.062 5.376 3.029-.656-.542-.951-.527-1.351-1.02 1.475.293 2.227-.505 2.607-1.51-4.005-1.055-1.845-3.627-4.376-6.086l.009-.007zm.324 6.585c.152.6.435 1.178.837 1.71-2.912-.142-1.561-4.732-4.472-3.627a1.612 1.612 0 00-.493.292 1.164 1.164 0 00-.303.413.913.913 0 00-.068.468c.019.158.08.311.179.451 1.903 2.951-2.436 5.552-2.189 8.14-1.075 0-2.188 0-2.854-1.105a12.93 12.93 0 00-1.237 2.024l-.876-1.112c-.332 1.005-1.084 1.905-2.147 2.568-1.063.663-2.381 1.054-3.761 1.116 1.465-1.746-.295-4.126 3.282-6.663a14.039 14.039 0 01-1.846-1.148c4.396.392 8.973-2.216 6.889-3.449-1.36-.805-1.96.87-4.053.585l.818-.528c-.285-.214-.618-.492-.951-.712a7.198 7.198 0 001.903-.507l-.533-.662c5.147 0 5.271-2.95 3.187-3.065-.951-.057-2.255 1.297-5.414 1.02.349-.409.606-.856.762-1.326a9.167 9.167 0 01-2.389-.314c1.551-.15 1.903-.541 3.226-1.268l-1.494-.414c2.169-.812 2.036-2.223 2.093-3.691-1.132.491-2.474 1.247-3.882.89-.333-.085-.561-.2-.561-.463 2.036-.598 3.33-2.943-1.532-4.91-3.14-1.276-10.733-4.027-5.585-6.977.704-.4 1.465-.763 2.112-1.219.809.463-.295 1.61-.571 2.038 0 0 1.713.129 2.112.129 2.645 0 5.424-1.183 4.025-3.428 1.056.164 1.18.92 1.494 1.568.676-.342 1.846-1.076 2.75-.97-.733 1.76-3.806 3.343-6.223 3.7 2.426.99 6.917 1.724 9.277-.4 1.656 2.402-.647 3.407-2.921 4.668 8.63 2.95 7.355 6.257 13.017 8.859-.733.256-4.016-.257-4.301-.293a14.575 14.575 0 012.169 2.28c.41.8.691 1.632.838 2.481.079.577.344 1.131.772 1.615.427.484 1.004.884 1.682 1.165-.666.905-2.14.199-2.759.078m-41.086 7.212l1.228-.784-.19-.285c-.134-.2-.067-.214.076-.292l.646-.364a.675.675 0 01.495-.05l1.903.342h-2.007a.987.987 0 00-.492.11.63.63 0 00-.298.31l-.143.222-.533.812a.726.726 0 00-.135.563.856.856 0 00.335.513l.371.328-.742 1.162h.638l.523-.798c.438-.301.766-.682.951-1.105-.218-.135-.38-.228-.257-.42l.238-.378c.076-.128.105-.178.333-.143l2.046.335a.933.933 0 00.494.04.75.75 0 00.41-.21c.285-.322.323-.286.951-.236l1.047.086c1.178.113 2.373-.062 3.407-.5.234.293.488.576.761.849.066.092 0 .228-.133.399l-1.133 2.08h1.808l1.028-1.916c.074-.15.191-.287.342-.4l-.59 2.317h1.751l.466-2.295c.105-.506 0-.67-.285-.884-.733-.463-.714-1.425-.952-2.024a.909.909 0 01.438-.064c.381 0 .666.763 1.123 1.226.894.948 2.122 1.988 3.53.52a3.676 3.676 0 00-.457-.463l-.39-.342c-.228-.192-1.313-1.119-1.77-1.425-.42-.313-.968-.511-1.556-.563a3.383 3.383 0 00-1.688.278c-1.428-.556-2.931 0-3.293 0l-2.454-.114a.611.611 0 01-.23-.051.444.444 0 01-.17-.128l.457-.114c-.428-1.332-1.504-2.451-3.378-2.637 0 0-.114-.42-.39-.506l-.562.5a2.413 2.413 0 00-.475.1l-2.398-.67 1.798 1.36s-.894.97-1.19 1.17a.323.323 0 00-.136.252c0 .095.049.185.137.253l.352.342c.18.178.38.171.666.057l.39-.15c.171-.106.752.108.951-.064-.1.35-.154.705-.161 1.062l-1.618-.142a1.086 1.086 0 00-.387-.003.943.943 0 00-.346.131l-1.38.791c-.224.131-.379.318-.436.527a.705.705 0 00.123.613l.542.87zm13.321.228l-1.094 2.017h-.676l1.095-1.953c.114-.25-.105-.37-.371-.648.379.167.777.31 1.189.427a1.02 1.02 0 00-.133.157h-.01zm-10.533-4.376l-.314.121c-.219.093-.323.136-.514-.043l-.133-.128a.213.213 0 01-.053-.17.245.245 0 01.1-.158l1.342-1.175-1.237-.763 1.58.435.58-.542c.171.107.114.42.114.42.739.113 1.4.417 1.869.859.468.442.713.993.691 1.557.22.251.56.428.951.492l2.731.121c.447 0 1.58-.648 3.036 0a3.55 3.55 0 011.16-.335 4.471 4.471 0 011.681.355c.512.222.942.536 1.25.914a36.198 36.198 0 011.218 1.233c-.305.27-.599.356-.847.292a1.188 1.188 0 01-.423-.301.806.806 0 01-.195-.412c-.2-.369-.529-.691-.952-.933.201.34.342.7.419 1.069-1.066-.791-1.266-1.76-2.017-1.889a1.43 1.43 0 00-.607.061 1.078 1.078 0 00-.469.296c.381.655.362 1.425.743 1.917.295.377.352.413.485.498.314.172.133.47.085.713l-.409 1.896h-.685l.447-1.86c.134-.563-1.988-.563-3.073-1.646-.951.812-3.52.605-4.643.477a1.253 1.253 0 00-.645 0 .94.94 0 00-.497.306c-.143.193-.39.136-.542.107l-2.046-.327a.64.64 0 00-.41.002.508.508 0 00-.166.095.356.356 0 00-.1.138l-.409.634a.23.23 0 00-.059.2.28.28 0 00.135.178l.2.157a1.318 1.318 0 01-.485.534l-.447-.378a.574.574 0 01-.166-.35.537.537 0 01.109-.362l.666-1.034a.46.46 0 01.2-.173.671.671 0 01.294-.062h2.531l-.78-.948c-.58-.712.38-1.974.238-2.572-.076.798-1.36.434-1.57.541l.038-.057zm-2.76 2.388l1.2-.713a.785.785 0 01.272-.14.969.969 0 01.327-.038l1.694.164c.076.215.198.42.361.605l-1.798-.285a.822.822 0 00-.305.003.696.696 0 00-.266.111l-.856.485a.308.308 0 00-.14.196.258.258 0 00.064.217l.142.221-.6.335-.227-.32c-.229-.343-.248-.656.133-.877m5.224-24.323c.578.274 1.186.512 1.817.712v-.577l-2.56-.713s0 .235.743.613m1.817-.734v-.577l-2.902-.777a7.15 7.15 0 001.085.656c.578.275 1.186.513 1.817.712m0-1.325v-.585l-3.178-.876s.618.378 1.36.755c.58.274 1.187.513 1.818.713" fill="#DEE0E1"/><path fill-rule="evenodd" clip-rule="evenodd" d="M106.701 20.668h3.255c-.122-.234-.345-.431-.632-.56a1.943 1.943 0 00-.957-.153 2.33 2.33 0 00-.968.18 1.67 1.67 0 00-.698.532m-3.406-9.364l-3.178.877v.584a14.065 14.065 0 001.817-.713 22.347 22.347 0 001.361-.755m-.618 2.864l-2.56.713v.578a14.39 14.39 0 001.817-.713c.743-.378.743-.613.743-.613m.352-1.411l-2.855.777v.577a13.98 13.98 0 001.818-.713c.389-.19.753-.41 1.084-.655m-13.559 7.255a1.929 1.929 0 00-.958.151c-.288.13-.51.327-.63.561h3.254a1.674 1.674 0 00-.699-.532 2.338 2.338 0 00-.967-.18" fill="#DEE0E1"/><path fill-rule="evenodd" clip-rule="evenodd" d="M105.398 9.742c0-1.368-3.073-2.594-6.46-2.594-3.388 0-6.462 1.226-6.462 2.594l.077.335 1.35 5.816-6.365 2.8a3.49 3.49 0 00-1.125.852c-.29.34-.48.723-.559 1.123h1.17c.083-.486.408-.93.909-1.244.5-.315 1.141-.476 1.794-.453 1.474.057 2.35.713 3.225 1.697l.229.256.323.378h-9.42c.79 1.02 1.253 2.165 1.351 3.342v14.653c0 3.777 3.873 5.573 8.07 5.573 3.234 0 3.672-.107 5.46 1.226 1.78-1.34 2.218-1.226 5.462-1.226 4.187 0 8.06-1.796 8.06-5.573V24.623c.095-1.177.554-2.321 1.341-3.343h-9.429l.323-.377.229-.257c.866-.962 1.741-1.632 3.225-1.696.654-.02 1.294.147 1.791.465.498.319.816.766.893 1.253h1.17a2.455 2.455 0 00-.546-1.12 3.457 3.457 0 00-1.11-.854l-6.403-2.794 1.351-5.816.076-.342zm-11.608.67l4.757 1.219v5.602l-3.52-1.39-1.237-5.43zM94.96 22.3c.704.685 1.72 1.152 2.855 1.31.118.398.41.753.827 1.013a1.363 1.363 0 00-.036.709c.05.236.163.462.332.664.168.203.388.38.648.518s.553.237.864.29c.067.248.221.48.447.669.226.189.515.33.838.407l-.999.862a1.504 1.504 0 01-.579.324c-.226.07-.472.096-.715.075l-4.463-.377c.19-.371-.323-.806-1.732-.62l1.751-3.67-1.075-1.711-2.027 1.297-.152 3.855-.856-.32c-1.133-.364-1.466 1.169-.39 1.176h.428a.279.279 0 00.02.215.406.406 0 00.18.17.317.317 0 00-.123.095.215.215 0 00-.045.129c0 .045.015.09.045.129a.32.32 0 00.122.096.401.401 0 00-.146.098.272.272 0 00-.07.138c-.008.05 0 .1.022.147.023.047.06.089.109.122a.602.602 0 00-.138.305.549.549 0 00.055.319c.05.101.131.193.236.268.105.075.232.13.37.163.638.129 1.037-.392 1.17-.712l6.946 1.61c.43.115.895.134 1.339.056a2.645 2.645 0 001.164-.498l1.808-1.19c-.14.323-.121.673.054.987.174.314.492.57.897.724a5.292 5.292 0 00-.076 1.012H86.787V24.6c-.04-.8-.268-1.59-.676-2.33l8.849.029zm7.469 3.25a1.4 1.4 0 00-.257.883c.018.306.143.603.362.862l-.295.221c-1.304-.12-1.817-1.575-1.817-1.575a1.769 1.769 0 000 .385c-.385-.102-.712-.298-.93-.557a1.1 1.1 0 01-.27-.868c.297.122.619.206.952.25l.086-.428a2.356 2.356 0 01-1.03-.342 1.534 1.534 0 01-.616-.706h-.124.485c.509 0 1.015-.052 1.504-.157a2.4 2.4 0 00.758.508c.296.128.624.21.964.24a1.61 1.61 0 00.228 1.27v.013zm1.903 3.834a1.337 1.337 0 00-.304.448l-.723.5a2.055 2.055 0 00-.276-1.176 2.833 2.833 0 00-.942-.963l.77-.57.153.114a1.01 1.01 0 00-.032.525c.036.175.118.343.241.494.123.151.285.283.476.387.191.104.407.178.637.22v.02zm-3.473-.243l.6-.434c.413.257.736.587.938.96.203.372.279.777.223 1.177l-.647.45a2.34 2.34 0 01-.41.235c.146-.41.158-.84.037-1.253a2.47 2.47 0 00-.731-1.128l-.01-.007zm-1.275.378c.224.021.451-.004.657-.071.293.336.47.722.517 1.122.046.4-.04.803-.251 1.172a4.255 4.255 0 01-.894-.1l-.229-.05c.395-.651.46-1.388.181-2.073h.02zm-1.532-.143l.847.079c.153.664.013 1.347-.4 1.945l-.951-.213c.432-.548.622-1.184.542-1.818l-.038.007zm-1.75-.156l1.018.092c.077.602-.09 1.208-.476 1.74l-1.037-.229c.4-.478.574-1.042.495-1.603zm-4.14-.207a.604.604 0 01-.479-.032.39.39 0 01-.155-.146.27.27 0 01-.032-.186c.251-.1.533-.15.817-.142.284.008.56.072.801.185.247.121.457.456.8.663a4.552 4.552 0 01-.315.976 1.17 1.17 0 01-.502-.13.79.79 0 01-.33-.314.548.548 0 01-.054-.397.669.669 0 01.24-.356.693.693 0 00-.37-.173.83.83 0 00-.43.045l.01.007zm-.675 1.418c.207.062.425.1.647.114a.23.23 0 01-.045.11.321.321 0 01-.1.088.492.492 0 01-.293.052.392.392 0 01-.128-.056.28.28 0 01-.086-.09.208.208 0 01-.029-.11.218.218 0 01.034-.108zm-.951-2.045a.24.24 0 01-.124-.096.154.154 0 01-.015-.134.21.21 0 01.1-.11.34.34 0 01.172-.038c.285 0 .666.25 1.046.37-.39.049-.789.049-1.18 0v.008zm.951 1.482c.2.15.818.093.818.093v.093c-.266.27-1.018.15-.847-.186h.029zm.8-.306c-.448.135-.895-.05-.753-.264.2.143.78.071.78.071l-.028.193zm.646-3.849l-.847 2.31.286-3.728 1.313-.84.666 1.097-1.684 3.62.447-2.437c0-.171-.143-.193-.18 0v-.022zm.133 2.794a7.07 7.07 0 011.209.043c.2.064.066.306-.19.285a6.435 6.435 0 01-1.018-.328zm1.475.563l1.028.093c.065.514-.081 1.031-.419 1.482l-.951-.214c.23-.457.364-.938.4-1.425l-.058.064zm16.623 10.184c.046.789-.205 1.572-.723 2.26-.518.687-1.283 1.252-2.208 1.631l.657-.998h-.638l-.837 1.283c-.947.262-1.95.393-2.959.385-3.34 0-4.225.1-5.462 1.026-1.246-.919-2.121-1.026-5.461-1.026a10.983 10.983 0 01-2.95-.378l.837-1.282h-.647l-.742 1.126a15.008 15.008 0 01-.514-.2l.61-.92h-.629l-.456.713c-.734-.413-1.324-.953-1.72-1.573a3.393 3.393 0 01-.555-1.99v-5.623h24.34l.057 5.566zm.676-16.997a5.257 5.257 0 00-.685 2.33v8.552h-1.333a5.236 5.236 0 01-1.113-1.895 1.8 1.8 0 00-.067.98c.069.326.228.638.467.915h-1.713a6.22 6.22 0 01-.79-1.945c-.513.434-.19 1.618.134 1.945h-1.133a3.254 3.254 0 01.162-1.268c-.59-.086-1.227-.32-1.227-.813a.95.95 0 00.381.187c.147.037.304.043.456.02l.485-.285c-1.608.036-1.674-1.276-.409-1.896-1.265 0-2.217-.534-1.751-1.546a1.782 1.782 0 01-.541-.393 1.272 1.272 0 01-.295-.518 1.078 1.078 0 01-.004-.564c.049-.186.147-.363.288-.52a1.494 1.494 0 01-.429-.82 1.32 1.32 0 01.172-.87c-.654.005-1.286-.181-1.76-.52h-.104c.756-.229 1.414-.608 1.903-1.098l8.906.022zm-4.844-4.12c-1.322.172-2.454 1.383-3.387 2.474l-.105.128h-.951v.128c-.105.841-1.17 1.981-3.52 1.981-.889.022-1.76-.187-2.465-.591-.444-.26-.775-.612-.951-1.012a1.39 1.39 0 01-.105-.378v-.128h-.952l-.238-.071c-.951-1.09-2.064-2.295-3.377-2.473l3.587-1.561 4.424 1.782 4.406-1.796 3.634 1.518zm-4.12-2.337l-3.52 1.39v-5.56l4.757-1.218-1.237 5.388zm-3.92-4.79l-5.233-1.538c.438-.784 2.493-1.426 5.224-1.426 2.731 0 4.757.67 5.224 1.426l-5.215 1.539z" fill="#DEE0E1"/><path fill-rule="evenodd" clip-rule="evenodd" d="M110.555 27.794v-.427c-1.751 0-2.16-1.583-2.16-1.583a1.2 1.2 0 00-.037.747c.067.247.213.48.424.676.212.197.483.353.791.455.309.102.645.147.982.132m-2.217 2.666l-.181-.407c-1.494.285-2.264-1.489-2.264-1.489-.103.257-.113.53-.029.791.085.261.261.5.51.693.249.194.562.333.908.406a2.67 2.67 0 001.056.006m1.085-1.654c-1.789.214-2.522-1.347-2.522-1.347-.054.204-.052.414.006.617.058.203.172.395.333.565.162.169.368.311.606.418.238.107.502.176.778.203a.896.896 0 00.059.667c.105.214.291.4.535.535.244.136.535.216.838.23.303.015.606-.037.87-.149l-.171-.385a1.529 1.529 0 01-.743.022 1.212 1.212 0 01-.609-.32.734.734 0 01-.224-.532.756.756 0 01.253-.524m-1.122-4.454v-.428c-2.36-.363-2.16-1.582-2.16-1.582a1.195 1.195 0 00-.038.745c.067.247.212.478.422.675.21.196.48.352.788.455.307.103.642.149.978.135M93.333 42.19l-.847 1.283h.638l.846-1.283h-.637zm1.275 0l-.847 1.283h.647l.837-1.283h-.637zm5.119 0l-.847 1.283h.638l.846-1.283h-.637zm1.285 0l-.847 1.283h.637l.837-1.283h-.627zm-2.56 0l-.847 1.283h.638l.847-1.283h-.638zm7.469 1.283h.638l.847-1.283h-.638l-.847 1.283zM95.892 42.19l-.846 1.283h.637l.847-1.283h-.638zm1.275 0l-.846 1.283h.647l.837-1.283h-.638zm-2.892-6.913a.349.349 0 00-.159.015.255.255 0 00-.118.08.161.161 0 00-.036.117c.004.04.025.08.06.111a.285.285 0 00.133.066.36.36 0 00.16-.004.274.274 0 00.128-.072.17.17 0 00.05-.113.156.156 0 00-.055-.133.279.279 0 00-.163-.067m4.681-28.998c2.105-.043 4.171.432 5.881 1.354.268-1.037.784-2.03 1.522-2.93l-2.112.179-1.104-1.76-2.122.826-2.065-1.532-2.055 1.532-2.14-.826-1.114 1.76-2.103-.178c.74.899 1.256 1.891 1.523 2.929 1.711-.923 3.78-1.399 5.89-1.354zm-4.928-.713l1.008-1.596 1.903.712L98.956 3.2l2.065 1.525 1.903-.713.952 1.597 1.236-.143c-.323.44-.584.903-.78 1.383-1.646-.689-3.5-1.05-5.385-1.05-1.886 0-3.74.361-5.386 1.05a6.383 6.383 0 00-.78-1.383l1.246.1z" fill="#DEE0E1"/><path fill-rule="evenodd" clip-rule="evenodd" d="M101.107 3.129a.736.736 0 00.218-.018.637.637 0 00.193-.08.465.465 0 00.137-.129.345.345 0 00.061-.158 2.26 2.26 0 00-.419-.841s-.676.541-.695.77a.354.354 0 00.131.3.635.635 0 00.374.149m3.454.948c.131.05.284.059.424.026a.55.55 0 00.327-.205c.085-.293.101-.594.048-.89 0 0-.895.299-1.037.505a.331.331 0 00-.032.317.481.481 0 00.27.246m-7.774-.94a.641.641 0 00.38-.146.358.358 0 00.134-.303c0-.236-.695-.77-.695-.77a2.28 2.28 0 00-.419.84.402.402 0 00.195.286.691.691 0 00.405.1m-3.464.934a.472.472 0 00.268-.247.327.327 0 00-.04-.317C93.41 3.3 92.516 3 92.516 3a1.95 1.95 0 00.057.891c.033.05.079.093.135.128.056.036.12.063.19.08a.728.728 0 00.426-.03m41.523 14.254c.721-.233 1.292-.668 1.589-1.212-1.903-.207-6.86-1.767-10.961-.492 1.532-1.09 2.911-1.232 3.044-2.8.166.116.366.202.583.252.218.05.448.06.672.033.224-.027.437-.093.622-.192s.337-.229.445-.378c-.419-.934-1.494-.179-1.636-.435-.143-.257 1.341.114 1.684-1.105-1.209-.313-1.57.428-1.789.257-.219-.171.771-.478.057-1.426-1.256.55-.599 1.176-.866 1.24-.266.065-.067-.662-1.465-.627-.133 1.12 1.313 1.155 1.065 1.333-.247.178-.656-.641-1.712-.207a.906.906 0 00.128.55c.102.173.259.325.456.442.198.117.431.197.679.231.248.035.504.024.744-.033-.161 1.718-2.264 1.426-3.806 3.336 3.321 1.276 4.815 3.499 6.861 5.031a9.313 9.313 0 001.827-1.952c.249.188.546.337.872.438a3.48 3.48 0 001.031.155c.353 0 .704-.053 1.03-.155a2.87 2.87 0 00.873-.438c-.762-.585-.79-1.027-1.951-1.825l-.076-.021zm-3.14.335c.247.44.339.919.269 1.393-.069.474-.3.926-.669 1.315-.985-1.6-2.454-3.005-4.291-4.105-.304-.143.162-.406 1.009-.485 2.559-.363 5.547.45 6.974.713a4.392 4.392 0 01-1.903.599c.888.515 1.67 1.125 2.322 1.81-1.009.185-1.57-.285-3.73-1.262m-21.371 28.65V45.19a32.882 32.882 0 01-8.506 1.59l-.162.748c.304 0 .685.057 1.189.086a38.555 38.555 0 01-7.878 0c.504 0 .885-.05 1.19-.086l-.162-.748a32.768 32.768 0 01-8.45-1.59v2.096l-2.854.905a43.773 43.773 0 007.612 2.095l-.343.877a34.6 34.6 0 0014.159 0l-.343-.877a43.763 43.763 0 007.612-2.095l-3.064-.905zm-24.11.955l1.978-.599v-1.71c1.736.478 3.521.848 5.338 1.104L92.4 49.78a40.831 40.831 0 01-6.194-1.554v.015zm12.75 3.157a35.326 35.326 0 01-6.29-.592l1.19-2.85c3.373.422 6.816.422 10.19 0l1.189 2.85a35.43 35.43 0 01-6.29.592h.01zm6.536-1.604l-1.132-2.758a42.326 42.326 0 005.338-1.119v1.71l1.979.6a40.336 40.336 0 01-6.194 1.553m-40.63-29.64a9.34 9.34 0 001.827 1.953c2.046-1.532 3.55-3.756 6.86-5.032-1.57-1.931-3.672-1.61-3.805-3.335.24.053.493.062.74.026a1.85 1.85 0 00.671-.232c.196-.117.352-.268.454-.439a.919.919 0 00.133-.545c-1.056-.435-1.427.427-1.713.207-.285-.222 1.209-.214 1.066-1.333-1.39 0-1.133.712-1.466.627-.333-.086.39-.713-.865-1.24-.714.983.257 1.29.057 1.425-.2.136-.58-.57-1.79-.256.324 1.211 1.904.712 1.675 1.104-.228.392-1.217-.499-1.636.435.106.15.258.28.442.378.184.1.396.165.62.193.224.027.453.016.67-.034.216-.05.415-.136.58-.252.133 1.575 1.513 1.703 3.045 2.8-4.101-1.275-9.087.293-10.961.493.298.542.869.974 1.589 1.204-1.161.805-1.19 1.247-1.903 1.825 0 0 1.55 1.275 3.806 0l-.096.028zm-2.226-.27a10.207 10.207 0 012.331-1.811 4.43 4.43 0 01-1.903-.606c1.427-.285 4.425-1.09 6.975-.712.837.085 1.313.342 1.008.484-1.84 1.1-3.313 2.505-4.3 4.105-.369-.389-.599-.841-.668-1.315-.07-.474.022-.953.268-1.393-2.16.976-2.721 1.425-3.73 1.261m34.539-.912v.927a1.72 1.72 0 01.578-.257c.216-.053.444-.07.669-.05v1.333a1.62 1.62 0 01-.333.94h1.78a1.632 1.632 0 01-.343-.94v-1.34c.225-.02.453-.004.669.05.215.052.412.14.577.257v-.927h-3.597v.007z" fill="#DEE0E1"/><path d="M137.863 19.363a3.273 3.273 0 01-.523-.527l-.305-.342c.317-.276.577-.586.771-.92l.799-1.354-1.95-.213c-.333-.036-.866-.143-1.485-.264a37.945 37.945 0 00-4.415-.67c.598-.204 1.09-.55 1.399-.984l.324-.434s-.086-.606-.4-.798a2.28 2.28 0 00.276-.62l.266-.97-1.246-.32a4.441 4.441 0 00-.58-.107 2.654 2.654 0 00-.314-.563l-.762-1.012-1.341.584a3.599 3.599 0 00-.838.499 4.58 4.58 0 00-.637-.043 5.185 5.185 0 00-1.608.164l-1.075-.834-1.275-1.019c-.543-.464-1.267-.789-2.069-.928a5.166 5.166 0 00-2.403.151 4.641 4.641 0 00-1.452-.673 5.545 5.545 0 00-1.688-.189 12.07 12.07 0 00-1.237.071c-1.197.17-2.321.557-3.274 1.126l-1.427-.513c-.624.697-1.537 1.22-2.597 1.49a2.47 2.47 0 00-.581-.92l.095-.399a6.673 6.673 0 011.304-2.508l1.703-1.989-2.417.228a3.816 3.816 0 000-.641l-.219-1.547-1.903.642c-.209.071-.39.142-.551.207l-.372-.6-.865.336a4.864 4.864 0 00-.352-.549L101.611 0l-1.418 1.147a32.26 32.26 0 00-.38.328l-.866-.641-.866.648a4.118 4.118 0 00-.371-.327L96.283 0l-1.01 1.383c-.13.177-.247.36-.351.548l-.866-.335-.38.599-.552-.207-1.903-.641-.21 1.554a3.733 3.733 0 000 .641l-2.426-.207 1.713 1.989c.625.774 1.06 1.626 1.284 2.515l.086.4a2.449 2.449 0 00-.58.926c-1.006-.349-1.894-.863-2.598-1.504l-1.466.52c-1.28-.766-2.862-1.192-4.5-1.211a5.335 5.335 0 00-1.68.186 4.423 4.423 0 00-1.432.683 5.168 5.168 0 00-2.39-.15c-.8.139-1.52.46-2.063.92 0 0-.742.656-1.275 1.012-.37.273-.782.512-1.227.713a7.071 7.071 0 00-2.103 0 3.714 3.714 0 00-.894-.5l-1.294-.57-.742 1.027a2.548 2.548 0 00-.315.556 4.475 4.475 0 00-.58.107l-1.237.32.257.963c.055.217.148.428.276.627a2.084 2.084 0 00-.19.328l-.21.47.324.435c.306.437.798.786 1.398.99a37.863 37.863 0 00-4.414.67c-.619.121-1.152.228-1.485.264l-1.96.214.447.755.362.599c.202.341.472.658.8.94-.256.3-.533.591-.829.87l-.951.755.951.784c.38.292.832.524 1.332.684.5.16 1.037.245 1.58.25.48 0 .956-.064 1.408-.185.396.511.904.969 1.503 1.354-.937.86-2.117 1.556-3.453 2.038l-1.247.442.533 1.062c.19.389.5.738.905 1.02a3.92 3.92 0 001.426.597 8.938 8.938 0 00-.6 1.732c-.285 1.262-.399 1.782-1.902 2.138l-1.332.35.38 1.011c.193.664.624 1.275 1.247 1.768l-.885.712c1.227.675 2.648 1.127 4.148 1.319a4.41 4.41 0 001.378-.128 3.714 3.714 0 001.191-.535c.331.81.754 1.597 1.266 2.352.951 1.461 1.427 2.33.8 3.122l-1.4 1.781 2.76-.085a22.56 22.56 0 003.35-.264.723.723 0 010 .114l-.239 1.54 2.417-.386c.247-.054.487-.129.714-.22.944.773 2.103 1.383 3.394 1.787 1.292.404 2.686.592 4.084.55h.2l-3.948 1.212 2.854 1.119a42.64 42.64 0 006.385 1.881l-.333.862 1.446.314a36.448 36.448 0 0015.005 0l1.437-.314-.352-.862a42.559 42.559 0 006.422-1.896l2.855-1.119-3.949-1.211h.2c1.397.04 2.789-.147 4.079-.551 1.29-.404 2.447-1.014 3.39-1.787.228.091.467.165.714.221l2.417.385-.219-1.532v-.114c1.083.17 2.186.26 3.292.27l2.759.086-1.389-1.774c-.628-.791-.123-1.66.8-3.122a12.78 12.78 0 001.265-2.352 5.015 5.015 0 001.675.578c.282.06.572.096.866.106.961.032 1.908-.19 2.673-.627l1.523-.712-.895-.713c.617-.476 1.054-1.066 1.266-1.71l.38-1.02-1.332-.349c-1.484-.392-1.598-.912-1.903-2.138a8.651 8.651 0 00-.533-1.753 3.925 3.925 0 001.427-.598 2.71 2.71 0 00.905-1.02l.532-1.062-1.246-.442c-1.337-.48-2.516-1.177-3.454-2.038a6.043 6.043 0 001.513-1.354c.449.121.922.184 1.399.185a5.327 5.327 0 001.58-.248c.5-.16.952-.393 1.331-.685l.952-.784-.952-.827z" fill="#fff"/><path fill-rule="evenodd" clip-rule="evenodd" d="M86.777 33.19v-8.553a5.33 5.33 0 00-.675-2.323h8.858a5.265 5.265 0 001.781 1.03 6.664 6.664 0 002.196.365 6.66 6.66 0 002.196-.366 5.266 5.266 0 001.782-1.03h8.868a5.218 5.218 0 00-.676 2.324v8.552h-24.33zm12.18 11.708c-1.238-.926-2.123-1.026-5.462-1.026-3.987 0-6.66-1.753-6.66-4.554v-5.63h24.329v5.609c0 2.8-2.702 4.554-6.66 4.554-3.34 0-4.225.1-5.462 1.026" fill="#FCE527"/><path d="M88.185 45.939v1.71l-1.979.599A40.599 40.599 0 0092.4 49.8l1.123-2.765a42.805 42.805 0 01-5.338-1.119m10.771 2.332a35.352 35.352 0 01-5.1-.32l-1.19 2.85c4.124.791 8.447.791 12.57 0l-1.189-2.85a35.365 35.365 0 01-5.09.32zm10.743-2.309a42.858 42.858 0 01-5.338 1.097l1.123 2.737a40.298 40.298 0 006.184-1.554l-1.979-.598.01-1.682zM84.046 18.38c3.102-1.276 10.676-4.012 5.538-6.977-.704-.407-1.475-.77-2.122-1.219-.8.463.305 1.61.58 2.031 0 0-1.712.129-2.121.129-2.646 0-5.414-1.184-4.006-3.428-1.056.163-1.18.919-1.504 1.567-.675-.342-1.845-1.076-2.75-.969.733 1.76 3.807 3.343 6.224 3.699-2.427.99-6.918 1.725-9.278-.406-1.655 2.401.657 3.406 2.912 4.668-8.62 2.943-7.355 6.25-13.007 8.858.733.257 4.006-.256 4.3-.292a15.085 15.085 0 00-2.207 2.266 8.69 8.69 0 00-.837 2.48c-.076.579-.34 1.134-.767 1.618-.428.485-1.007.883-1.688 1.162.666.905 2.14.2 2.76.078a5 5 0 01-.847 1.71c2.902-.142 1.56-4.731 4.472-3.627.19.071.359.17.498.29.138.12.244.26.31.411.067.151.093.31.076.47a.986.986 0 01-.17.454c-1.904 2.95 2.425 5.552 2.197 8.139 1.066 0 2.17 0 2.855-1.105.48.65.894 1.327 1.237 2.024l.866-1.105c.33 1.006 1.083 1.905 2.146 2.567 1.064.662 2.382 1.051 3.762 1.11-1.474-1.745.295-4.125-3.282-6.655.657-.34 1.275-.722 1.846-1.14-4.387.384-8.973-2.217-6.89-3.45 1.361-.805 1.951.87 4.054.584l-.818-.527c.285-.214.618-.492.951-.713a7.186 7.186 0 01-1.903-.506l.533-.655c-5.138 0-5.271-2.95-3.187-3.065.951-.057 2.245 1.297 5.414 1.02a3.819 3.819 0 01-.762-1.326 9.052 9.052 0 002.389-.314c-1.542-.15-1.903-.534-3.226-1.268l1.494-.414c-2.065-.805-1.96-2.223-2.065-3.691 1.133.491 2.465 1.247 3.892.89.342-.085.552-.2.561-.463-2.036-.598-3.33-2.943 1.532-4.91h.038zm-3.749.228c-2.712 2.174-1.541 3.478-.951 3.877-1.009-.164-2.522-1.126-2.18-2.06-.323.292-.646.599-.95.927a27.783 27.783 0 00-1.808 1.974c-.819 1.831.685 3.727 3.254 4.568-1.115-.12-2.14-.528-2.894-1.154-.754-.626-1.192-1.431-1.236-2.274-1.226 1.57-1.898 3.348-1.95 5.167.024.518.088 1.034.19 1.546.656.934 1.712 1.276 3.587 1.426-1.703.078-2.607 0-3.35-.563 1.162 3.734 6.585 6.977 8.802 9.75-2.207-2.139-6.794-5.36-8.402-7.684-.116 1.516.435 3.019 1.57 4.277-2.055-1.511-2.207-3.799-2.074-5.139a7.344 7.344 0 01-.894-3.271c-.05-1 .05-2.002.295-2.986-1.294 1.383-3.169 1.91-4.092 4.012.18-2.708 2.855-2.75 4.9-6.043a22.753 22.753 0 013.178-4.091c-1.817.344-3.442 1.11-4.643 2.188 1.313-2.33 8.906-4.946 12.37-7.476-1.047.164-5.31.25-7.08-.641 3.207.648 10.353-.093 13.046-1.476-1.903 2.003-5.91 2.138-10.848 6.108a13.99 13.99 0 012.236-1.02m51.705 12.238a8.695 8.695 0 00-.837-2.48 14.497 14.497 0 00-2.17-2.281c.295 0 3.568.549 4.301.292-5.661-2.601-4.386-5.908-13.007-8.858 2.265-1.262 4.577-2.267 2.921-4.668-2.36 2.138-6.86 1.425-9.277.406 2.398-.357 5.481-1.946 6.223-3.699-.952-.107-2.074.627-2.75.97-.324-.65-.447-1.426-1.494-1.569 1.408 2.252-1.37 3.421-4.015 3.428-.409 0-2.113-.128-2.113-.128.276-.42 1.38-1.568.571-2.031-.647.456-1.408.82-2.112 1.219-5.138 2.979 2.445 5.737 5.547 6.99 4.862 1.968 3.568 4.277 1.532 4.911 0 .264.229.378.562.463 1.417.357 2.749-.406 3.882-.89-.067 1.468.066 2.85-2.094 3.691l1.494.414c-1.284.712-1.674 1.119-3.216 1.268a9.085 9.085 0 002.388.314c-.156.47-.413.917-.761 1.325 3.169.285 4.444-1.069 5.414-1.019 2.084.114 1.96 3.065-3.187 3.065l.533.655a7.15 7.15 0 01-1.903.506c.342.207.675.485.951.713l-.818.527c2.093.285 2.693-1.425 4.053-.584 2.075 1.233-2.502 3.834-6.889 3.45.572.418 1.189.8 1.846 1.14-3.577 2.53-1.817 4.917-3.282 6.663 1.38-.063 2.697-.455 3.76-1.117 1.062-.663 1.815-1.562 2.148-2.568l.866 1.105c.345-.697.758-1.373 1.237-2.024.695 1.084 1.808 1.105 2.855 1.105-.238-2.587 4.091-5.188 2.188-8.139a.992.992 0 01-.175-.451.92.92 0 01.068-.468c.064-.15.167-.29.302-.412.136-.12.303-.22.49-.294 2.912-1.104 1.561 3.485 4.472 3.628a4.866 4.866 0 01-.847-1.71c.619.12 2.094.826 2.76-.08-.678-.28-1.256-.68-1.683-1.163-.427-.484-.692-1.038-.772-1.615h.038zm-5.481-3.75c.249.985.348 1.986.295 2.987a7.417 7.417 0 01-.894 3.271c.133 1.34 0 3.628-2.074 5.139 1.132-1.26 1.683-2.761 1.57-4.277-1.608 2.324-6.185 5.53-8.402 7.683 2.217-2.772 7.612-6.008 8.801-9.75-.751.585-1.646.642-3.349.564 1.903-.171 2.921-.513 3.578-1.426a10.25 10.25 0 00.19-1.546c-.056-1.82-.73-3.598-1.96-5.167-.044.843-.482 1.648-1.236 2.274-.755.626-1.779 1.035-2.894 1.154 2.56-.841 4.073-2.737 3.254-4.568a29.318 29.318 0 00-1.807-1.974c-.333-.321-.666-.635-.952-.927.343.934-1.161 1.896-2.179 2.06.552-.4 1.722-1.704-.951-3.877.791.28 1.54.622 2.236 1.019-4.929-3.991-8.982-4.098-10.847-6.108 2.702 1.383 9.838 2.138 13.045 1.476-1.77.883-6.042.805-7.08.641 3.473 2.53 11.085 5.153 12.37 7.476-1.201-1.078-2.826-1.844-4.643-2.188a22.629 22.629 0 013.178 4.09c2.026 3.286 4.757 3.329 4.909 6.044-.951-2.138-2.797-2.637-4.091-4.012" fill="#fff"/><path d="M102.924 22.307a4.905 4.905 0 01-1.762 1.066c-.691.248-1.45.37-2.215.359-.38 0-.76-.03-1.133-.085.115.395.407.75.828 1.004a1.363 1.363 0 00-.036.71c.05.235.163.46.332.664.168.203.388.379.648.517.26.139.553.237.864.29.067.249.221.48.447.669.226.19.515.33.838.407l-.952.863a1.528 1.528 0 01-.58.32c-.226.07-.471.097-.714.079l-4.462-.378c.19-.37-.324-.798-1.732-.613l1.75-3.677-1.113-1.697-2.026 1.298-.153 3.855-.875-.32c-1.123-.364-1.456 1.168-.38 1.175h.428a.28.28 0 00.02.221c.038.07.104.13.189.171a.318.318 0 00-.13.095.21.21 0 00-.047.13c0 .046.017.09.048.13.03.04.075.072.129.094a.402.402 0 00-.142.1.277.277 0 00-.068.137.245.245 0 00.02.146.325.325 0 00.104.123.602.602 0 00-.137.305.549.549 0 00.054.319.75.75 0 00.237.268c.105.075.231.13.37.163.647.128 1.046-.392 1.18-.713l6.945 1.611c.43.115.895.134 1.339.055a2.644 2.644 0 001.164-.497l1.808-1.19c-.14.323-.121.673.054.987.174.313.493.57.897.723a4.587 4.587 0 00-.076 1.005h6.251v-8.552c.035-.8.264-1.59.676-2.33h-8.868l-.019-.007zm-10.4 14.396l.133.128c.19.17.295.135.514.043l.314-.129c.2-.114 1.494.257 1.56-.548.143.598-.808 1.867-.237 2.572l.77.955h-2.53a.669.669 0 00-.297.065.454.454 0 00-.198.178l-.666 1.026a.566.566 0 00-.1.362c.01.125.064.246.157.35l.447.378c.22-.146.388-.333.485-.541l-.2-.15a.28.28 0 01-.135-.178.23.23 0 01.06-.2l.408-.634a.35.35 0 01.098-.14.503.503 0 01.166-.097.637.637 0 01.412-.005l2.046.327c.152 0 .39.086.542-.107a.94.94 0 01.497-.307 1.26 1.26 0 01.645.001c1.123.128 3.72.328 4.643-.484 1.085 1.083 3.207 1.083 3.074 1.646l-.467 1.917h.676l.409-1.896c0-.22.228-.527-.095-.712-.133-.079-.19-.115-.485-.5-.391-.505-.362-1.26-.743-1.917.115-.129.275-.232.464-.296.188-.064.397-.087.602-.067.752.135.952 1.105 2.017 1.896a3.439 3.439 0 00-.428-1.07c.422.24.751.56.952.927.022.147.09.287.197.41.107.125.252.228.421.303.247.071.552 0 .847-.292l-1.218-1.233a3.244 3.244 0 00-1.244-.915 4.429 4.429 0 00-1.677-.354 3.488 3.488 0 00-1.161.328c-1.456-.613-2.588 0-3.035 0l-2.722-.121c-.39-.066-.73-.242-.951-.492.022-.564-.223-1.116-.691-1.558-.469-.442-1.13-.745-1.869-.858 0 0 .058-.313-.104-.42l-.571.534-1.58-.434 1.237.762-1.341 1.19a.249.249 0 00-.098.158c-.009.06.009.12.05.17" fill="#fff"/><path d="M90.735 39.126c-.38.22-.361.527-.133.876l.228.321.6-.342-.133-.221a.258.258 0 01-.064-.217.308.308 0 01.14-.196l.856-.485a.672.672 0 01.266-.113c.1-.02.205-.02.305-.001l1.798.285a1.866 1.866 0 01-.361-.599l-1.694-.163a.984.984 0 00-.325.035.806.806 0 00-.274.136l-1.209.684zm11.523 4.004h.676l1.094-2.016c.04-.054.084-.107.133-.157a9.181 9.181 0 01-1.189-.428c.276.278.485.392.371.65l-1.085 1.952zm.571-27.273l1.256-5.43-4.758 1.218v5.602l3.502-1.39zm-2.712-3.663l3.178-.877s-.618.378-1.351.755a14.11 14.11 0 01-1.817.713l-.01-.591zm0 1.311l2.855-.777a7.321 7.321 0 01-1.085.656c-.579.274-1.187.512-1.817.713l.047-.592zm0 1.425l2.55-.712s0 .235-.733.605c-.578.275-1.186.513-1.817.713v-.606z" fill="#fff"/><path d="M94.322 20.668l.105.128h.952v.128c.015.129.05.255.104.378.18.399.51.75.952 1.012.704.407 1.576.616 2.464.591 2.35 0 3.416-1.14 3.521-1.98v-.13h.951l.105-.127c.951-1.09 2.065-2.295 3.378-2.473l-3.597-1.561-4.3 1.789-4.406-1.796-3.587 1.56c1.313.171 2.445 1.383 3.377 2.473" fill="#fff"/><path d="M98.576 17.24v-5.602l-4.758-1.219 1.256 5.43 3.502 1.39zm-.8-1.76c-.63-.2-1.238-.44-1.817-.713-.742-.378-.742-.613-.742-.613l2.56.712v.613zm0-3.293v.577c-.63-.2-1.239-.438-1.817-.713a22.591 22.591 0 01-1.36-.755l3.177.89zm0 1.31v.578c-.63-.2-1.238-.438-1.817-.712a7.194 7.194 0 01-1.085-.656l2.902.79zm1.18-5.472c-2.73 0-4.757.67-5.224 1.425l5.224 1.575 5.214-1.546c-.447-.784-2.483-1.426-5.214-1.426m0-2.266c1.884.004 3.737.365 5.386 1.047.193-.48.455-.943.78-1.382l-1.237.142-.951-1.596-1.903.713-2.075-1.497-2.055 1.525-1.903-.712-.98 1.567-1.237-.142c.324.439.586.902.78 1.382 1.652-.683 3.508-1.044 5.395-1.047m34.064 12.308a4.43 4.43 0 001.903-.606c-1.427-.285-4.415-1.09-6.965-.713-.847.086-1.313.342-1.009.485 1.83 1.106 3.289 2.516 4.263 4.12.368-.39.598-.843.668-1.316a2.176 2.176 0 00-.268-1.393c2.16.976 2.721 1.425 3.72 1.261a10.22 10.22 0 00-2.321-1.81M66.672 21.38c.987-1.6 2.46-3.006 4.3-4.105.305-.142-.17-.399-1.008-.484-2.55-.364-5.547.448-6.974.712a4.453 4.453 0 001.902.606 10.166 10.166 0 00-2.321 1.81c1.008.186 1.57-.285 3.72-1.261-.24.44-.33.919-.26 1.392.07.473.297.925.66 1.316" fill="#fff"/><path fill-rule="evenodd" clip-rule="evenodd" d="M81.62 38.484c.951-.591 1.817-.883 1.78-2.309-1.495.57-5.71.542-7.49-1.283-.503-.52 0-.776.515-.37 1.208 1.026 3.454.563 4.262.264a2.315 2.315 0 00-.76-1.041c.304-.228 1.17-.563 1.35-1.14a13.99 13.99 0 00-2.302-.321c.233-.155.399-.358.475-.585a.888.888 0 00-.047-.684c-1.837.42-4.092-.15-4.615-.655-.523-.506 0-.97.438-.634.951.712 5.414 1.539 7.088.292-.594-.123-1.106-.408-1.436-.799 1.55-.114 2.788-.798 2.854-1.653a9.028 9.028 0 01-3.026-.356 2.17 2.17 0 00.92-.363 1.41 1.41 0 00.527-.67c-2.855-.129-3.055-1.704-3.074-1.968 1.846.799 5.1.442 4.254-1.517-1.532-.065-3.083-1.925 1.141-3.628 3.806-1.554 8.202-3.236 7.812-5.994-.247-1.767-4.139-2.971-4.624-3.87-1.618.578-1.903 1.248-1.218 2.374 0 0-3.616.27-3.901-1.426 0-.379.112-.754.33-1.096.216-.343.533-.645.926-.885-.41 0-3.13-.549-3.949 1.112-1.522-.777-2.854-.748-3.853.071 1.636.713 2.654 3.229 5.366 3.97-1.903.784-5.043.456-6.87-1.953-1.722 1.946-2.712 3.87.952 5.922-6.727 2.295-6.66 6.671-12.522 8.76.59 1.19 1.846 1.19 3.435 1.004-2.531 2.459-.371 5.039-4.377 6.086.38 1.005 1.132 1.803 2.607 1.511-.419.492-.695.478-1.351 1.02 2.188 1.033 4.757.284 5.366-3.03.105-.591 1.19-.22.819.357-2.493 3.862 3.806 6.77 1.58 9.6 1.969-.065 3.463-.179 4.28-.67.41.534.601 1.145.553 1.76a2.002 2.002 0 001.074-.384c.286-.22.459-.508.486-.813.714 1.553 3.254 3.22 7.327 3.22-2.065-2.28-.038-4.624-3.102-7.226zm-4.025 2.851l-.866 1.105a13.215 13.215 0 00-1.237-2.024c-.694 1.083-1.808 1.104-2.854 1.104.218-2.615-4.13-5.217-2.227-8.167a.992.992 0 00.176-.451.922.922 0 00-.069-.468 1.16 1.16 0 00-.302-.412 1.616 1.616 0 00-.49-.294c-2.912-1.105-1.56 3.485-4.472 3.628a5 5 0 00.847-1.71c-.619.12-2.093.826-2.76-.08.681-.278 1.26-.676 1.688-1.16.428-.485.692-1.04.767-1.619.137-.847.409-1.68.81-2.48a14.846 14.846 0 012.16-2.28c-.296 0-3.56.549-4.302.292 5.662-2.601 4.387-5.908 13.007-8.858-2.264-1.262-4.576-2.267-2.911-4.668 2.36 2.138 6.85 1.425 9.277.406-2.398-.357-5.48-1.946-6.213-3.7.904-.106 2.074.628 2.75.97.323-.648.456-1.425 1.503-1.568-1.399 2.245 1.37 3.421 4.006 3.428.409 0 2.121-.128 2.121-.128-.276-.42-1.38-1.568-.58-2.031.647.456 1.418.82 2.122 1.219 5.138 2.979-2.446 5.736-5.547 6.99-4.863 1.968-3.559 4.313-1.532 4.911 0 .264-.229.378-.562.463-1.417.357-2.759-.406-3.891-.89.066 1.468-.067 2.85 2.103 3.691l-1.494.406c1.284.713 1.674 1.12 3.225 1.269a9.086 9.086 0 01-2.388.314c.152.47.409.919.761 1.325-3.168.285-4.434-1.069-5.414-1.02-2.093.115-1.96 3.065 3.188 3.065l-.533.656c.59.25 1.234.422 1.903.506-.343.207-.666.485-.952.713l.819.527c-2.103.285-2.693-1.425-4.054-.584-2.074 1.233 2.503 3.834 6.89 3.45-.572.418-1.19.799-1.847 1.14 3.578 2.53 1.808 4.917 3.283 6.663-1.38-.063-2.696-.454-3.757-1.117-1.062-.663-1.812-1.563-2.142-2.568" fill="#222220"/><path fill-rule="evenodd" clip-rule="evenodd" d="M71.962 32.07c.742.585 1.646.642 3.35.563-1.904-.17-2.931-.513-3.588-1.425a10.57 10.57 0 01-.18-1.547c.052-1.818.724-3.597 1.95-5.167.046.843.484 1.647 1.239 2.273.754.626 1.776 1.035 2.89 1.155-2.569-.84-4.072-2.736-3.254-4.568a32.205 32.205 0 011.808-1.974c.343-.32.666-.634.952-.926-.343.933 1.16 1.895 2.17 2.06-.543-.4-1.723-1.704.95-3.878-.786.282-1.532.623-2.226 1.02 4.929-3.991 8.982-4.098 10.847-6.108-2.616 1.354-9.753 2.13-12.969 1.418 1.77.884 6.042.805 7.08.642-3.483 2.53-11.076 5.152-12.37 7.475 1.202-1.08 2.831-1.846 4.653-2.188a22.749 22.749 0 00-3.178 4.091c-2.017 3.286-4.758 3.328-4.9 6.044.951-2.103 2.787-2.637 4.091-4.013a10.275 10.275 0 00-.295 2.986 7.358 7.358 0 00.894 3.272c-.133 1.34 0 3.627 2.075 5.138-1.135-1.258-1.687-2.76-1.57-4.276 1.608 2.323 6.185 5.53 8.402 7.682-2.217-2.772-7.612-6.007-8.802-9.749m50.668-11.146c1.817.343 3.443 1.11 4.643 2.188-1.313-2.33-8.916-4.946-12.37-7.476 1.047.164 5.31.25 7.08-.641-3.207.655-10.343-.093-13.045-1.476 1.903 2.01 5.918 2.138 10.847 6.108a13.816 13.816 0 00-2.236-1.02c2.711 2.174 1.541 3.479.951 3.878 1.009-.164 2.522-1.126 2.179-2.06.324.292.657.599.952.927.675.67 1.275 1.332 1.807 1.974.819 1.831-.694 3.727-3.254 4.568 1.114-.121 2.135-.53 2.888-1.156.752-.626 1.188-1.43 1.232-2.272 1.23 1.57 1.905 3.348 1.96 5.167a10.38 10.38 0 01-.19 1.546c-.656.934-1.713 1.276-3.587 1.426 1.713.078 2.607 0 3.349-.563-1.161 3.734-6.594 6.977-8.801 9.749 2.217-2.138 6.794-5.36 8.402-7.683.115 1.516-.437 3.018-1.57 4.276 2.055-1.51 2.207-3.798 2.074-5.145a7.415 7.415 0 00.894-3.264 9.99 9.99 0 00-.295-2.986c1.294 1.382 3.169 1.91 4.092 4.012-.181-2.708-2.855-2.75-4.91-6.043a22.529 22.529 0 00-3.178-4.091" fill="#222220"/><path fill-rule="evenodd" clip-rule="evenodd" d="M131.441 27.082c1.589.185 2.854.185 3.434-1.005-5.851-2.088-5.794-6.464-12.521-8.759 3.692-2.053 2.702-3.977.951-5.922-1.817 2.409-4.948 2.736-6.87 1.952 2.703-.712 3.73-3.242 5.367-3.97-.961-.826-2.303-.826-3.816-.113-.828-1.66-3.539-1.112-3.948-1.112.393.24.71.541.927.884.218.343.33.718.329 1.097-.286 1.668-3.892 1.426-3.892 1.426.733-1.126.409-1.796-1.218-2.374-.495.898-4.377 2.103-4.624 3.87-.39 2.765 3.977 4.44 7.812 5.994 4.224 1.71 2.673 3.563 1.141 3.627-.847 1.967 2.398 2.317 4.254 1.518 0 .264-.248 1.839-3.074 1.967.091.255.274.485.53.666.255.182.572.306.916.36a9.036 9.036 0 01-3.025.357c.104.855 1.341 1.54 2.854 1.653-.327.391-.835.678-1.427.806 1.675 1.247 6.175.427 7.089-.293.418-.327.951.136.428.635-.524.498-2.779 1.083-4.615.662a.894.894 0 00-.018.696c.088.228.267.43.513.58-.765.046-1.521.154-2.255.32.171.578 1.046.913 1.351 1.141-.374.283-.648.63-.799 1.012.818.3 3.063.763 4.262-.264.486-.406 1.018-.15.524.371-1.77 1.824-5.995 1.853-7.489 1.283 0 1.425.781 1.717 1.78 2.309-3.055 2.637-1.037 4.989-3.197 7.283 4.072 0 6.66-1.66 7.326-3.22.028.305.2.593.486.813.286.22.667.355 1.075.383-.045-.614.147-1.225.552-1.76.827.499 2.331.613 4.291.67-2.227-2.85 4.082-5.737 1.579-9.6-.371-.577.714-.948.819-.356.59 3.314 3.178 4.062 5.376 3.029-.657-.542-.952-.528-1.352-1.02 1.475.293 2.227-.505 2.608-1.51-3.997-1.055-1.846-3.628-4.377-6.086h-.057zm.39 6.578c.156.6.442 1.178.847 1.71-2.912-.142-1.561-4.732-4.473-3.627-.377.144-.662.395-.794.696a.935.935 0 00.09.914c1.903 2.95-2.436 5.552-2.188 8.139-1.075 0-2.189 0-2.855-1.105-.479.65-.892 1.327-1.237 2.024l-.865-1.105c-.332 1.005-1.083 1.904-2.144 2.567-1.061.663-2.377 1.054-3.756 1.118 1.466-1.746-.295-4.126 3.283-6.663a13.937 13.937 0 01-1.846-1.14c4.396.384 8.973-2.217 6.889-3.45-1.361-.805-1.96.87-4.054.584l.819-.527c-.286-.214-.619-.492-.952-.713a7.15 7.15 0 001.903-.506l-.533-.655c5.139 0 5.272-2.95 3.188-3.065-.952-.057-2.246 1.297-5.414 1.02.348-.409.605-.856.761-1.326a9.105 9.105 0 01-2.388-.314c1.551-.15 1.903-.534 3.225-1.268l-1.493-.414c2.169-.812 2.026-2.223 2.093-3.691-1.132.491-2.474 1.247-3.882.89-.343-.085-.562-.2-.562-.463 2.037-.598 3.331-2.943-1.532-4.91-3.101-1.254-10.685-4.012-5.547-6.991.704-.407 1.466-.77 2.113-1.22.808.464-.295 1.612-.571 2.032 0 0 1.712.128 2.112.128 2.645 0 5.424-1.183 4.015-3.428 1.056.164 1.18.92 1.494 1.568.676-.342 1.846-1.076 2.75-.969-.733 1.76-3.806 3.342-6.223 3.699 2.426.99 6.918 1.724 9.277-.406 1.656 2.401-.656 3.406-2.921 4.668 8.63 2.943 7.355 6.25 13.007 8.858-.732.257-4.006-.256-4.301-.292a14.497 14.497 0 012.17 2.28c.409.8.69 1.632.837 2.48.081.578.346 1.132.773 1.615.428.484 1.005.884 1.682 1.165-.666.905-2.141.2-2.759.078m-41.172 7.241l1.228-.784-.19-.278c-.134-.2-.067-.214.076-.292l.646-.364a.62.62 0 01.24-.073.677.677 0 01.255.023l1.903.343h-2.007a.986.986 0 00-.494.111.626.626 0 00-.296.316l-.143.214-.533.812a.726.726 0 00-.135.563.856.856 0 00.335.514l.371.334-.742 1.148h.638l.523-.798c.437-.302.764-.682.951-1.105-.218-.135-.38-.235-.256-.42l.237-.378c.076-.128.105-.178.333-.143l2.046.328a.918.918 0 00.495.043.738.738 0 00.409-.214c.276-.32.314-.285.951-.235l1.047.085c1.178.114 2.373-.061 3.407-.498.19.334.58.584.761.84.066.093 0 .229-.133.4l-1.133 2.095h1.808l1.018-1.917c.076-.15.193-.286.343-.4l-.581 2.317h1.751l.466-2.295c.105-.506 0-.677-.285-.884-.733-.463-.714-1.425-.952-2.024a.897.897 0 01.438-.064c.381 0 .666.756 1.123 1.226.894.948 2.122 1.988 3.53.52a3.571 3.571 0 00-.457-.463l-.39-.342c-.228-.192-1.313-1.119-1.77-1.425-.418-.313-.965-.51-1.551-.562a3.375 3.375 0 00-1.684.277c-1.427-.563-2.93 0-3.282 0l-2.455-.114a.612.612 0 01-.23-.051.445.445 0 01-.17-.128l.457-.114c-.428-1.332-1.504-2.444-3.378-2.637 0 0-.114-.42-.4-.498l-.561.491a2.34 2.34 0 00-.476.1l-2.398-.67 1.846 1.347s-.951.99-1.246 1.183a.372.372 0 00-.104.116.281.281 0 00-.037.137c0 .047.013.094.037.137a.37.37 0 00.104.116l.352.342c.18.178.38.171.666.057l.39-.157c.171-.106.752.107.951-.064a4.03 4.03 0 00-.161 1.07l-1.618-.143a1.073 1.073 0 00-.382-.002.933.933 0 00-.341.13l-1.38.791c-.224.131-.38.318-.437.527a.705.705 0 00.123.613l.533.87zm13.321.228l-1.094 2.017h-.676l1.095-1.953c.114-.25-.105-.37-.371-.648.379.167.777.31 1.189.427a1.4 1.4 0 00-.133.157h-.01zm-10.533-4.376l-.314.121c-.219.093-.323.136-.514-.043l-.133-.128a.218.218 0 01-.05-.17.249.249 0 01.098-.158l1.341-1.168-1.237-.763 1.57.435.58-.542c.172.107.115.42.115.42.738.113 1.4.417 1.868.859.468.442.713.994.692 1.558.221.247.562.42.951.484l2.731.121c.456 0 1.579-.648 3.035 0a3.618 3.618 0 011.161-.335c.59.012 1.166.134 1.676.356.51.222.938.536 1.245.913a36.198 36.198 0 011.218 1.233c-.305.27-.6.356-.847.292a1.195 1.195 0 01-.421-.302.815.815 0 01-.197-.41c-.202-.367-.53-.687-.952-.927.205.34.349.7.428 1.069-1.065-.791-1.265-1.753-2.017-1.889a1.433 1.433 0 00-.607.061c-.19.063-.353.166-.468.296.381.655.352 1.425.742 1.917.295.378.352.413.485.499.314.17.134.47.086.712l-.409 1.896h-.676l.447-1.86c.134-.563-1.979-.563-3.073-1.646-.951.812-3.52.605-4.643.484a1.254 1.254 0 00-.645 0 .94.94 0 00-.497.307c-.143.185-.39.128-.542.107l-2.046-.328a.642.642 0 00-.41.003.507.507 0 00-.166.094.356.356 0 00-.1.138l-.409.634c-.05.06-.07.13-.056.2.014.07.061.132.132.178l.19.157c-.097.206-.264.39-.485.534l-.447-.377a.57.57 0 01-.168-.35.533.533 0 01.111-.363l.666-1.034a.455.455 0 01.198-.177.67.67 0 01.297-.065h2.53l-.77-.948c-.58-.712.38-1.974.238-2.572-.076.798-1.37.434-1.57.541l.038-.064zm-2.75 2.388l1.2-.713a.796.796 0 01.272-.14.985.985 0 01.327-.038l1.693.164c.077.212.2.414.362.598l-1.799-.285a.82.82 0 00-.304.003.697.697 0 00-.266.111l-.857.485a.303.303 0 00-.143.196.254.254 0 00.067.217l.133.221-.6.335-.227-.32c-.229-.343-.248-.656.133-.877M95.95 14.78a14.43 14.43 0 001.817.713v-.577l-2.56-.712s0 .235.743.612m1.817-.734v-.577l-2.855-.777a7.08 7.08 0 001.085.656c.58.274 1.187.512 1.817.713m-.047-1.326v-.584l-3.178-.877s.618.378 1.36.755c.579.275 1.187.514 1.818.713" fill="#222220"/><path fill-rule="evenodd" clip-rule="evenodd" d="M106.692 20.667h3.254c-.121-.234-.343-.432-.63-.561a1.93 1.93 0 00-.959-.151 2.341 2.341 0 00-.967.18c-.293.126-.535.31-.698.532m-3.397-9.357l-3.178.877v.577c.631-.2 1.239-.438 1.817-.713a20.494 20.494 0 001.352-.755m-.609 2.872l-2.56.713v.577c.631-.2 1.239-.439 1.817-.713.743-.377.743-.613.743-.613m.352-1.404l-2.855.777v.577c.631-.2 1.239-.438 1.818-.712a7.201 7.201 0 001.084-.656m-13.549 7.241a1.929 1.929 0 00-.959.151c-.287.13-.51.327-.63.561h3.254a1.674 1.674 0 00-.698-.532 2.338 2.338 0 00-.967-.18" fill="#222220"/><path fill-rule="evenodd" clip-rule="evenodd" d="M105.398 9.756c0-1.368-3.073-2.594-6.46-2.594-3.388 0-6.462 1.226-6.462 2.594l.067.335 1.351 5.816-6.356 2.794c-.45.22-.833.509-1.123.848a2.45 2.45 0 00-.56 1.119h1.17c.082-.486.407-.93.907-1.245.501-.314 1.142-.475 1.795-.452 1.474.057 2.35.713 3.225 1.697l.22.256.323.378h-9.42c.79 1.02 1.252 2.165 1.35 3.342v14.653c0 3.77 3.874 5.573 8.06 5.573 3.235 0 3.673-.107 5.462 1.226 1.779-1.34 2.217-1.226 5.461-1.226 4.187 0 8.06-1.796 8.06-5.573V24.63c.098-1.178.561-2.322 1.351-3.342h-9.42l.323-.378.229-.257c.866-.962 1.741-1.639 3.225-1.696.653-.02 1.291.145 1.788.462.498.317.817.763.896 1.248h1.16a2.446 2.446 0 00-.543-1.114 3.45 3.45 0 00-1.103-.852l-6.403-2.794 1.351-5.816.076-.335zm-11.608.67l4.757 1.22v5.6l-3.52-1.39-1.237-5.43zm1.18 11.88c.704.684 1.72 1.148 2.854 1.305.118.397.41.753.828 1.012a1.363 1.363 0 00-.037.709c.051.235.164.461.332.664s.388.379.648.518c.26.138.554.237.865.29.066.248.218.478.443.667.224.19.511.33.832.409l-.952.862a1.525 1.525 0 01-.58.322 1.93 1.93 0 01-.714.077l-4.462-.378c.19-.37-.324-.798-1.732-.613l1.75-3.677-1.103-1.668-2.027 1.298-.152 3.855-.866-.32c-1.132-.364-1.465 1.168-.39 1.175h.428a.278.278 0 00.02.216.405.405 0 00.18.17.318.318 0 00-.123.095.214.214 0 00-.044.129c0 .045.015.089.044.128.03.04.072.073.123.096a.402.402 0 00-.147.099.272.272 0 00-.07.138c-.008.05 0 .1.022.146.023.047.06.09.11.123a.603.603 0 00-.138.305.549.549 0 00.054.318.744.744 0 00.237.269c.105.074.231.13.37.163.637.128 1.037-.392 1.17-.713l6.946 1.61c.429.116.894.136 1.339.058a2.63 2.63 0 001.163-.499l1.808-1.19a1.1 1.1 0 00.054.987c.175.313.493.57.898.723a5.374 5.374 0 00-.076 1.012H86.796v-8.552c-.04-.8-.268-1.59-.675-2.33l8.849-.007zm7.469 3.243a1.402 1.402 0 00-.259.884c.018.306.144.604.363.862l-.295.221c-1.303-.12-1.817-1.575-1.817-1.575-.014.13-.014.262 0 .392-.384-.102-.712-.298-.93-.557a1.1 1.1 0 01-.269-.868c.296.122.618.207.952.25l.085-.428a2.345 2.345 0 01-1.03-.341 1.524 1.524 0 01-.616-.707H98.5h.486a7.12 7.12 0 001.494-.164c.208.2.468.366.764.488s.622.199.958.225c-.101.43-.018.875.238 1.268v.05zm1.903 3.799a1.4 1.4 0 00-.305.449l-.723.499a2.061 2.061 0 00-.276-1.176 2.83 2.83 0 00-.942-.962l.771-.57.152.114a.998.998 0 00-.034.525c.035.175.117.344.24.495.123.151.285.283.477.386.192.104.409.178.64.218v.022zm-3.483-.2l.6-.442c.413.258.735.588.937.96a1.9 1.9 0 01.224 1.178l-.657.45a2.38 2.38 0 01-.419.235 2.01 2.01 0 00.043-1.253 2.46 2.46 0 00-.728-1.128zm-1.284.37c.223.022.45-.003.656-.07.292.335.469.72.516 1.119a1.9 1.9 0 01-.249 1.168c-.303 0-.605-.034-.895-.1l-.228-.05c.397-.65.46-1.389.18-2.073l.02.007zm-1.532-.149l.847.079c.154.663.013 1.347-.4 1.945l-.951-.214c.425-.546.612-1.18.532-1.81h-.028zm-1.741-.15l1.018.093c.077.602-.09 1.208-.476 1.74l-1.037-.229c.4-.478.575-1.043.495-1.604zm-4.14-.206a.604.604 0 01-.479-.032.39.39 0 01-.155-.146.27.27 0 01-.032-.186c.251-.1.533-.15.817-.142.284.008.56.072.801.185.247.121.457.456.8.663a4.34 4.34 0 01-.315.976 1.17 1.17 0 01-.502-.131.79.79 0 01-.33-.313.548.548 0 01-.054-.397.669.669 0 01.24-.356.693.693 0 00-.37-.173.83.83 0 00-.43.045l.01.007zm-.675 1.418c.208.058.426.094.647.107a.23.23 0 01-.045.11.321.321 0 01-.1.087.492.492 0 01-.293.052.385.385 0 01-.127-.053.275.275 0 01-.087-.089.203.203 0 01-.029-.107.211.211 0 01.034-.107zm-.951-2.052a.24.24 0 01-.124-.097.154.154 0 01-.015-.133.21.21 0 01.1-.11.34.34 0 01.172-.038c.285 0 .675.25 1.046.37-.39.05-.789.05-1.18 0v.008zm.951 1.482c.21.15.828.093.828.093v.092c-.267.271-1.018.15-.847-.185h.019zm.818-.306c-.437.128-.894-.05-.751-.264.209.142.78.071.78.071l-.029.193zm.647-3.849l-.847 2.31.286-3.728 1.313-.841.666 1.097-1.627 3.607.447-2.438c0-.17-.143-.185-.18 0l-.058-.007zm.115 2.8a7.385 7.385 0 011.208.044c.2.064.066.306-.19.278a6.427 6.427 0 01-1.018-.321zm1.474.564l1.028.093c.073.532-.08 1.068-.438 1.532l-.951-.214c.233-.457.37-.937.409-1.425l-.048.014zm16.614 10.234c.045.789-.205 1.571-.723 2.26-.518.687-1.283 1.252-2.208 1.631l.656-.998h-.637l-.837 1.283c-.947.262-1.95.393-2.96.385-3.339 0-4.224.1-5.461 1.026-1.237-.92-2.122-1.026-5.462-1.026a10.843 10.843 0 01-2.978-.392l.847-1.283h-.619l-.742 1.126a9.942 9.942 0 01-.514-.2l.61-.919h-.629l-.447.713c-.734-.413-1.323-.953-1.72-1.573a3.393 3.393 0 01-.554-1.99v-5.659h24.33l.048 5.616zm.675-16.99a5.205 5.205 0 00-.675 2.33v8.552h-1.333a5.22 5.22 0 01-1.113-1.895 1.8 1.8 0 00-.067.979c.069.326.228.639.467.916h-1.713a6.196 6.196 0 01-.79-1.945c-.513.434-.19 1.617.134 1.945h-1.133a3.312 3.312 0 01.162-1.268c-.599-.086-1.227-.314-1.227-.813a.968.968 0 00.383.182c.147.035.303.041.454.018l.485-.285c-1.598.035-1.674-1.276-.409-1.896-1.275 0-2.217-.535-1.76-1.547a1.77 1.77 0 01-.541-.392 1.274 1.274 0 01-.296-.518 1.078 1.078 0 01-.003-.564 1.25 1.25 0 01.288-.521 1.488 1.488 0 01-.43-.819 1.327 1.327 0 01.173-.87c-.655.005-1.287-.182-1.76-.52h-.105c.757-.229 1.415-.608 1.903-1.098l8.906.029zm-4.843-4.12c-1.323.172-2.455 1.383-3.378 2.474l-.105.128h-.951v.128c-.105.841-1.17 1.981-3.52 1.981-.888.021-1.759-.188-2.465-.591-.441-.261-.772-.613-.951-1.012a1.377 1.377 0 01-.105-.378v-.128h-.952l-.238-.128c-.951-1.09-2.064-2.295-3.377-2.473l3.587-1.561 4.424 1.789 4.406-1.796 3.625 1.568zm-4.111-2.337l-3.52 1.39v-5.61l4.757-1.218-1.237 5.438zm-3.92-4.832l-5.233-1.546c.447-.784 2.493-1.426 5.224-1.426 2.731 0 4.757.67 5.214 1.426l-5.205 1.546z" fill="#222220"/><path fill-rule="evenodd" clip-rule="evenodd" d="M110.555 27.83v-.428c-1.76 0-2.16-1.582-2.16-1.582a1.193 1.193 0 00-.042.746c.066.248.21.48.421.677.211.197.482.353.79.455.309.102.645.148.982.132m-2.208 2.63l-.171-.407c-1.494.285-2.274-1.489-2.274-1.489a1.15 1.15 0 00-.022.789c.086.26.262.498.51.69.248.193.56.333.904.406.343.073.707.077 1.053.01m1.085-1.646c-1.789.214-2.522-1.347-2.522-1.347-.054.204-.052.414.006.617.058.204.172.396.333.565.162.169.368.311.606.418.238.107.502.176.778.203a.897.897 0 00.061.664c.105.212.29.397.532.532a2.017 2.017 0 001.7.087l-.172-.385a1.53 1.53 0 01-.743.022 1.213 1.213 0 01-.608-.32.73.73 0 01-.224-.532.748.748 0 01.253-.524m-1.113-4.453v-.428c-2.36-.364-2.17-1.583-2.17-1.583a1.202 1.202 0 00-.037.745c.067.247.211.478.422.675.21.196.48.353.787.455.307.103.643.15.978.135M93.333 42.19l-.847 1.29h.638l.846-1.29h-.637zm1.275 0l-.837 1.29h.637l.837-1.29h-.637zm5.119 0l-.847 1.29h.638l.846-1.29h-.637zm1.285 0l-.847 1.29h.637l.837-1.29h-.627zm-2.56 0l-.847 1.29h.638l.847-1.29h-.638zm7.469 1.29h.638l.847-1.29h-.638l-.847 1.29zm-10.029-1.29l-.846 1.29h.637l.847-1.29h-.638zm1.275 0l-.846 1.29h.647l.837-1.29h-.638zm-2.892-6.906a.335.335 0 00-.152.018.241.241 0 00-.11.08.153.153 0 00-.032.112.172.172 0 00.06.105c.034.03.08.052.13.062a.34.34 0 00.153-.005.262.262 0 00.122-.07.159.159 0 00-.011-.238.28.28 0 00-.16-.064m4.681-28.991c2.104-.045 4.17.428 5.881 1.347.268-1.037.783-2.03 1.522-2.93l-2.112.179-1.104-1.76-2.122.826-2.065-1.525-2.055 1.532-2.14-.833-1.105 1.76-2.112-.178c.74.899 1.256 1.891 1.523 2.929 1.713-.92 3.782-1.393 5.89-1.347zm-4.928-.713l.989-1.59 1.903.714 2.036-1.49 2.065 1.525 1.903-.712.952 1.596 1.236-.143a6.268 6.268 0 00-.78 1.383c-1.646-.688-3.5-1.05-5.385-1.05-1.886 0-3.74.362-5.386 1.05a6.373 6.373 0 00-.78-1.383l1.246.1z" fill="#222220"/><path fill-rule="evenodd" clip-rule="evenodd" d="M101.107 3.143a.695.695 0 00.408-.095.405.405 0 00.201-.283 2.26 2.26 0 00-.419-.84s-.676.54-.695.769c-.01.11.036.217.131.301a.635.635 0 00.374.148m3.454.941a.723.723 0 00.425.03.626.626 0 00.191-.08.456.456 0 00.135-.128c.087-.295.103-.6.048-.898 0 0-.895.299-1.037.506a.325.325 0 00-.035.318.474.474 0 00.273.245m-7.774-.934a.641.641 0 00.38-.145.358.358 0 00.134-.304c0-.228-.695-.77-.695-.77-.203.26-.344.545-.419.841.015.11.086.21.198.28.112.07.256.106.402.098m-3.464.941a.472.472 0 00.268-.247.327.327 0 00-.04-.316c-.142-.207-1.036-.506-1.036-.506-.053.3-.033.603.057.898a.461.461 0 00.135.128.62.62 0 00.19.079.729.729 0 00.426-.03m41.514 14.24c.722-.232 1.293-.667 1.589-1.212-1.903-.2-6.86-1.767-10.961-.491 1.532-1.09 2.912-1.233 3.045-2.801.166.115.365.2.581.248.217.05.445.06.668.033.223-.028.435-.093.619-.191a1.3 1.3 0 00.444-.375c-.419-.934-1.484-.178-1.637-.435-.152-.257 1.342.107 1.675-1.105-1.208-.313-1.57.428-1.789.257-.219-.171.771-.478.057-1.425-1.256.548-.599 1.175-.865 1.24-.267.064-.067-.663-1.456-.628-.133 1.12 1.303 1.155 1.065 1.333-.237.178-.666-.641-1.712-.207a.905.905 0 00.128.55c.102.173.259.325.456.442.198.117.431.197.679.231.248.035.504.024.744-.032-.161 1.717-2.264 1.425-3.806 3.335 3.321 1.276 4.815 3.5 6.861 5.031a9.357 9.357 0 001.827-1.952c.249.188.545.337.872.438a3.48 3.48 0 001.031.154c.353 0 .704-.052 1.03-.154a2.87 2.87 0 00.873-.438c-.762-.585-.79-1.027-1.951-1.825l-.067-.021zm-3.149.335c.247.44.339.919.269 1.393s-.3.926-.669 1.315c-.984-1.6-2.453-3.006-4.291-4.105-.295-.143.162-.4 1.009-.485 2.55-.363 5.537.45 6.965.713a4.41 4.41 0 01-1.903.599 10.34 10.34 0 012.321 1.81c-.999.185-1.57-.292-3.73-1.262m-21.342 28.65V45.19a32.736 32.736 0 01-8.506 1.59l-.162.748c.304 0 .685.057 1.189.086a38.929 38.929 0 01-7.878 0c.504 0 .885-.05 1.19-.086l-.162-.748a32.646 32.646 0 01-8.45-1.59v2.096l-2.854.905a43.713 43.713 0 007.612 2.095l-.343.877c4.629.981 9.53.981 14.159 0l-.343-.877a43.831 43.831 0 007.612-2.095l-3.064-.898zm-24.11.948l1.978-.599v-1.71a42.72 42.72 0 005.338 1.104L92.4 49.773a40.57 40.57 0 01-6.194-1.554v.022zm12.75 3.157a35.304 35.304 0 01-6.28-.592l1.189-2.85c3.373.424 6.817.424 10.19 0l1.19 2.85a35.43 35.43 0 01-6.29.592zm6.536-1.604l-1.132-2.758a42.683 42.683 0 005.338-1.119v1.71l1.979.6a40.215 40.215 0 01-6.194 1.553m-40.62-29.633a9.426 9.426 0 001.827 1.946c2.046-1.532 3.549-3.756 6.86-5.032-1.57-1.931-3.673-1.61-3.806-3.335.24.055.495.065.742.03a1.84 1.84 0 00.674-.232 1.28 1.28 0 00.454-.44.91.91 0 00.128-.548c-1.056-.435-1.427.427-1.712.207-.286-.222 1.208-.214 1.065-1.333-1.389 0-1.132.712-1.465.627-.333-.086.39-.713-.866-1.24-.713.983.257 1.29.057 1.425-.2.136-.58-.57-1.789-.256.324 1.211 1.903.712 1.675 1.104-.228.392-1.218-.499-1.637.435.107.15.258.28.442.378.185.1.397.165.62.193.224.027.453.016.67-.034.217-.05.416-.136.58-.252.134 1.575 1.514 1.703 3.045 2.8-4.1-1.275-9.077.293-10.96.493.3.543.874.976 1.598 1.204-1.218.841-1.218 1.283-1.96 1.867 0 0 1.55 1.276 3.806 0l-.048-.007zm-2.274-.235a10.216 10.216 0 012.331-1.81 4.453 4.453 0 01-1.903-.606c1.427-.285 4.424-1.09 6.975-.713.837.086 1.313.342 1.008.485-1.852 1.099-3.334 2.507-4.33 4.112-.362-.39-.59-.843-.659-1.316-.07-.473.02-.952.26-1.392-2.15.976-2.721 1.425-3.73 1.261m34.606-.954v.926c.165-.117.362-.204.578-.258.215-.052.444-.07.669-.048v1.332a1.62 1.62 0 01-.343.941h1.78a1.626 1.626 0 01-.343-.94v-1.34a2 2 0 01.669.048 1.7 1.7 0 01.578.258v-.927h-3.588v.008z" fill="#222220"/></svg>