<svg width="38" height="38" fill="none" xmlns="http://www.w3.org/2000/svg"><path d="M.111 9.203c0-1.41.965-1.967 2.153-2.04l5.529.036a.79.79 0 01.742.557c1.262 4.082 2.82 6.605 4.676 9.463.111.222.297.334.482.334.149 0 .297-.075.409-.26l.11-.408.038-6.42c0-.928-.445-1.076-1.484-1.225a.83.83 0 01-.668-.816c0-.074 0-.149.037-.223.52-1.596 2.152-2.412 4.453-2.412l2.078-.037c1.707 0 3.266.742 3.266 2.932v8.423c.148.112.297.186.482.186.297 0 .668-.186.965-.668 1.93-2.709 4.119-5.938 4.416-7.645 0-.074.037-.11.074-.185.408-.816 1.447-1.373 1.893-1.522a.741.741 0 01.334-.074h5.752l.37.037c.557 0 .966.371 1.151.705.334.52.26 1.077.297 1.3V9.5c-.557 3.377-4.416 7.162-6.049 9.611-.223.297-.334.557-.334.817 0 .222.111.445.297.668l5.418 6.828c.297.408.445.89.445 1.299 0 1.224-1.15 1.93-2.263 2.04l-.631.038h-5.64c-.112 0-.186.037-.298.037-.63 0-1.15-.334-1.521-.705-1.188-1.447-2.338-2.932-3.488-4.38-.223-.296-.297-.333-.52-.482-.26 1.077-.482 2.19-.742 3.303l-.111.631c-.186.668-.668 1.373-1.56 1.559l-.519.037h-3.636c-6.42 0-12.172-9.13-16.217-20.522A3.268 3.268 0 01.11 9.203zm22.303 9.611c-.965 0-2.041-.556-2.041-1.595V8.684c0-1.002-.445-1.373-1.67-1.373l-2.115.074c-1.188 0-1.856.185-2.412.556.853.409 1.633.965 1.633 2.524v6.531c-.112 1.299-1.188 2.152-2.227 2.152-.705 0-1.336-.408-1.707-1.076-1.67-2.523-3.08-4.898-4.305-8.312l-.334-.965-4.935-.037c-.668 0-.594.037-.594.37 0 .224.037.52.074.706l.78 2.078c4.044 10.465 9.128 17.33 13.953 17.33h3.71c.52 0 .483-.63.594-1.002l.705-3.265c.149-.334.26-.631.52-.891a1.32 1.32 0 01.965-.408c.705 0 1.373.556 1.818 1.076l3.154 4.008c.26.408.483.482.631.482h6.123c.594 0 1.114-.185 1.114-.556a.716.716 0 00-.112-.372l-5.38-6.716c-.446-.557-.631-1.114-.631-1.67 0-.594.222-1.188.593-1.707 1.559-2.338 4.899-5.678 5.678-8.424l.111-.483c-.037-.185-.037-.334-.074-.52h-5.826a2.026 2.026 0 00-.89.669l-.223.705c-.854 2.375-3.192 5.64-4.862 7.904-.556.52-1.187.742-1.818.742z" fill="#fff"/></svg>