<svg width="196" height="47" fill="none" xmlns="http://www.w3.org/2000/svg"><path d="M186.868 40.925c3.845 0 6.569-.576 8.598-1.817v-5.632c-2.083 1.198-4.593 1.951-8.118 1.951-5.928 0-8.384-3.813-8.384-9.843 0-6.34 2.99-9.577 8.438-9.577 3.204 0 6.355.93 8.011 1.817v-5.852c-1.763-.798-4.807-1.375-8.973-1.375-10.627 0-16.128 6.34-16.128 15.209.053 9.71 5.447 15.12 16.556 15.12zm-51.964-2.571v-5.631c-2.564 1.463-6.943 2.749-10.949 2.749-6.088 0-8.384-2.395-8.758-7.272h20.08v-3.636c0-10.154-5.394-13.967-13.672-13.967-10.147 0-14.953 6.43-14.953 15.253 0 10.154 6.035 15.075 16.609 15.075 5.287 0 9.186-1.197 11.643-2.571zm-76.21-27.225v11.528h-11.11V11.13h-8.33v29.22h8.33V28.156h11.11v12.193h8.33V11.13h-8.33zm45.875 23.722h-3.685V11.129H76.638v2.483c0 7.139-.534 16.362-3.472 21.239h-2.67V47h7.69v-6.65h18.64V47h7.69V34.85h.053zm56.877 5.498h9.453l-13.351-15.74 11.749-13.48h-8.385l-11.749 13.48v-13.48h-8.331v29.22h8.331V25.983l12.283 14.366zm-40.054-24.342c4.112 0 5.394 2.837 5.394 6.517v.577h-11.589c.213-4.656 2.243-7.094 6.195-7.094zM92.552 34.85H80.804c2.297-4.39 2.938-12.37 2.938-17.425v-.887h8.812V34.85z" fill="#000"/><path d="M32.31 40.35h-8.49V5.453h-3.793c-6.943 0-10.574 2.882-10.574 7.183 0 4.877 2.51 7.139 7.69 10.02l4.273 2.395L9.132 40.349H0l11.055-13.656c-6.355-3.77-9.933-7.45-9.933-13.657C1.122 5.276 7.637 0 19.974 0h12.283v40.35h.054z" fill="#FC3F1D"/></svg>