<svg width="224" height="66" fill="none" xmlns="http://www.w3.org/2000/svg"><path d="M213.563 57.47c4.394 0 7.507-.81 9.827-2.553v-7.908c-2.381 1.681-5.249 2.74-9.278 2.74-6.775 0-9.582-5.355-9.582-13.823 0-8.904 3.418-13.449 9.643-13.449 3.662 0 7.264 1.308 9.156 2.553v-8.22c-2.015-1.12-5.494-1.93-10.254-1.93-12.146 0-18.433 8.904-18.433 21.356.061 13.636 6.226 21.232 18.921 21.232zm-59.388-3.612v-7.907c-2.929 2.054-7.934 3.86-12.512 3.86-6.958 0-9.582-3.362-10.01-10.211h22.95v-5.106c0-14.258-6.165-19.613-15.625-19.613-11.597 0-17.09 9.028-17.09 21.419 0 14.258 6.897 21.17 18.982 21.17 6.042 0 10.498-1.682 13.305-3.612zm-87.097-38.23v16.189H54.382V15.628h-9.521V56.66h9.522V39.538h12.695V56.66h9.521V15.628h-9.521zm52.429 33.311h-4.211V15.628h-27.71v3.487c0 10.024-.61 22.975-3.968 29.824h-3.051V66h8.789v-9.34h21.301V66h8.789V48.94h.061zm65.003 7.721h10.803l-15.258-22.104 13.427-18.928H183.9l-13.428 18.928V15.628h-9.522V56.66h9.522V36.487L184.51 56.66zm-45.776-34.183c4.699 0 6.164 3.985 6.164 9.153v.81h-13.245c.245-6.538 2.564-9.963 7.081-9.963zm-32.96 26.462H92.347c2.624-6.164 3.357-17.371 3.357-24.47v-1.245h10.07V48.94z" fill="#fff"/><path d="M36.926 56.66h-9.704V7.658h-4.334c-7.934 0-12.085 4.048-12.085 10.087 0 6.85 2.869 10.025 8.79 14.072l4.882 3.362L10.437 56.66H0l12.634-19.177C5.371 32.191 1.282 27.023 1.282 18.306 1.282 7.409 8.728 0 22.827 0h14.038v56.66h.061z" fill="#FC3F1D"/></svg>