<svg width="123" height="25" viewBox="0 0 123 25" fill="none" xmlns="http://www.w3.org/2000/svg">
<g clip-path="url(#clip0_16:90)">
<path d="M11.6437 15.5817L7.83418 17.9429L8.94034 13.6165L5.5029 10.768L9.97322 10.4406L11.6073 6.3328L13.3154 10.439L17.7108 10.7668L14.348 13.6169L15.3792 17.9415L11.6437 15.5817Z" fill="#FCC21B"/>
<path d="M17.6184 21.0704C17.6999 21.0122 17.7621 20.9311 17.7974 20.8374C17.8327 20.7438 17.8394 20.6417 17.8166 20.5443L16.3152 14.2622L21.1997 10.1258C21.276 10.0608 21.3313 9.97446 21.3584 9.87793C21.3855 9.78139 21.3833 9.67896 21.352 9.58369C21.2889 9.38957 21.1159 9.25232 20.9106 9.2361L14.5276 8.76076L12.0493 2.79445C12.0102 2.70215 11.9448 2.62344 11.8612 2.56818C11.7776 2.51291 11.6795 2.48356 11.5793 2.4838C11.3744 2.4886 11.1901 2.6119 11.1138 2.80251L8.7425 8.75938L2.25595 9.23628C2.05096 9.25086 1.87485 9.38938 1.81322 9.58499C1.77869 9.68888 1.78081 9.7955 1.81283 9.89402C1.84198 9.98373 1.89612 10.0653 1.96998 10.1275L6.95506 14.2615L5.35345 20.5357C5.30156 20.7363 5.37772 20.9457 5.54403 21.0672C5.62491 21.1268 5.72183 21.1608 5.82223 21.1647C5.92264 21.1686 6.0219 21.1423 6.10717 21.0891L11.6352 17.6622L17.0565 21.0871C17.141 21.1411 17.2398 21.1683 17.34 21.1653C17.4403 21.1623 17.5373 21.1293 17.6184 21.0704V21.0704ZM11.6437 15.5817L7.83466 17.9444L8.94034 13.6165L5.50389 10.766L9.97421 10.4386L11.6083 6.33085L13.3149 10.4376L17.7108 10.7668L14.348 13.6169L15.3807 17.941L11.6437 15.5817Z" fill="#F79329"/>
</g>
<g clip-path="url(#clip1_16:90)">
<path d="M35.9339 15.5817L32.1244 17.9429L33.2306 13.6165L29.7931 10.768L34.2634 10.4406L35.8975 6.3328L37.6056 10.439L42.0011 10.7668L38.6382 13.6169L39.6694 17.9415L35.9339 15.5817Z" fill="#FCC21B"/>
<path d="M41.9087 21.0704C41.9901 21.0122 42.0524 20.9311 42.0876 20.8374C42.1229 20.7438 42.1296 20.6417 42.1068 20.5443L40.6054 14.2622L45.4899 10.1258C45.5662 10.0608 45.6215 9.97446 45.6486 9.87793C45.6757 9.78139 45.6735 9.67896 45.6422 9.58369C45.5791 9.38957 45.4061 9.25232 45.2008 9.2361L38.8179 8.76076L36.3395 2.79445C36.3005 2.70215 36.235 2.62344 36.1514 2.56818C36.0678 2.51291 35.9697 2.48356 35.8695 2.4838C35.6646 2.4886 35.4803 2.6119 35.404 2.80251L33.0327 8.75938L26.5462 9.23628C26.3412 9.25086 26.1651 9.38938 26.1034 9.58499C26.0689 9.68888 26.071 9.7955 26.1031 9.89402C26.1322 9.98373 26.1863 10.0653 26.2602 10.1275L31.2453 14.2615L29.6437 20.5357C29.5918 20.7363 29.6679 20.9457 29.8342 21.0672C29.9151 21.1268 30.0121 21.1608 30.1125 21.1647C30.2129 21.1686 30.3121 21.1423 30.3974 21.0891L35.9254 17.6622L41.3467 21.0871C41.4312 21.1411 41.53 21.1683 41.6303 21.1653C41.7305 21.1623 41.8275 21.1293 41.9087 21.0704V21.0704ZM35.9339 15.5817L32.1249 17.9444L33.2306 13.6165L29.7941 10.766L34.2644 10.4386L35.8985 6.33085L37.6052 10.4376L42.0011 10.7668L38.6382 13.6169L39.6709 17.941L35.9339 15.5817Z" fill="#F79329"/>
</g>
<g clip-path="url(#clip2_16:90)">
<path d="M61.1238 15.5817L57.3143 17.9429L58.4204 13.6165L54.983 10.768L59.4533 10.4406L61.0874 6.3328L62.7955 10.439L67.1909 10.7668L63.8281 13.6169L64.8593 17.9415L61.1238 15.5817Z" fill="#FCC21B"/>
<path d="M67.0985 21.0704C67.18 21.0122 67.2422 20.9311 67.2775 20.8374C67.3128 20.7438 67.3195 20.6417 67.2967 20.5443L65.7953 14.2622L70.6798 10.1258C70.7561 10.0608 70.8114 9.97446 70.8385 9.87793C70.8656 9.78139 70.8634 9.67896 70.8321 9.58369C70.769 9.38957 70.596 9.25232 70.3907 9.2361L64.0077 8.76076L61.5294 2.79445C61.4903 2.70215 61.4249 2.62344 61.3413 2.56818C61.2577 2.51291 61.1596 2.48356 61.0594 2.4838C60.8545 2.4886 60.6702 2.6119 60.5939 2.80251L58.2226 8.75938L51.7361 9.23628C51.5311 9.25086 51.355 9.38938 51.2933 9.58499C51.2588 9.68888 51.2609 9.7955 51.2929 9.89402C51.3221 9.98373 51.3762 10.0653 51.4501 10.1275L56.4352 14.2615L54.8335 20.5357C54.7817 20.7363 54.8578 20.9457 55.0241 21.0672C55.105 21.1268 55.2019 21.1608 55.3023 21.1647C55.4027 21.1686 55.502 21.1423 55.5873 21.0891L61.1153 17.6622L66.5366 21.0871C66.6211 21.1411 66.7199 21.1683 66.8201 21.1653C66.9204 21.1623 67.0174 21.1293 67.0985 21.0704V21.0704ZM61.1238 15.5817L57.3148 17.9444L58.4204 13.6165L54.984 10.766L59.4543 10.4386L61.0884 6.33085L62.795 10.4376L67.1909 10.7668L63.8281 13.6169L64.8608 17.941L61.1238 15.5817Z" fill="#F79329"/>
</g>
<g clip-path="url(#clip3_16:90)">
<path d="M85.414 15.5817L81.6045 17.9429L82.7107 13.6165L79.2732 10.768L83.7435 10.4406L85.3776 6.3328L87.0857 10.439L91.4812 10.7668L88.1183 13.6169L89.1495 17.9415L85.414 15.5817Z" fill="#FCC21B"/>
<path d="M91.3888 21.0704C91.4702 21.0122 91.5325 20.9311 91.5677 20.8374C91.603 20.7438 91.6097 20.6417 91.5869 20.5443L90.0855 14.2622L94.97 10.1258C95.0464 10.0608 95.1016 9.97446 95.1287 9.87793C95.1558 9.78139 95.1536 9.67896 95.1223 9.58369C95.0592 9.38957 94.8862 9.25232 94.681 9.2361L88.298 8.76076L85.8196 2.79445C85.7806 2.70215 85.7151 2.62344 85.6315 2.56818C85.5479 2.51291 85.4498 2.48356 85.3496 2.4838C85.1447 2.4886 84.9604 2.6119 84.8841 2.80251L82.5128 8.75938L76.0263 9.23628C75.8213 9.25086 75.6452 9.38938 75.5835 9.58499C75.549 9.68888 75.5511 9.7955 75.5832 9.89402C75.6123 9.98373 75.6664 10.0653 75.7403 10.1275L80.7254 14.2615L79.1238 20.5357C79.0719 20.7363 79.148 20.9457 79.3144 21.0672C79.3952 21.1268 79.4922 21.1608 79.5926 21.1647C79.693 21.1686 79.7922 21.1423 79.8775 21.0891L85.4055 17.6622L90.8268 21.0871C90.9113 21.1411 91.0101 21.1683 91.1104 21.1653C91.2106 21.1623 91.3076 21.1293 91.3888 21.0704V21.0704ZM85.414 15.5817L81.605 17.9444L82.7107 13.6165L79.2742 10.766L83.7445 10.4386L85.3786 6.33085L87.0853 10.4376L91.4812 10.7668L88.1183 13.6169L89.151 17.941L85.414 15.5817Z" fill="#F79329"/>
</g>
<g clip-path="url(#clip4_16:90)">
<path d="M109.704 15.5817L105.895 17.9429L107.001 13.6165L103.563 10.768L108.034 10.4406L109.668 6.3328L111.376 10.439L115.771 10.7668L112.409 13.6169L113.44 17.9415L109.704 15.5817Z" fill="#FCC21B"/>
<path d="M115.679 21.0704C115.76 21.0122 115.823 20.9311 115.858 20.8374C115.893 20.7438 115.9 20.6417 115.877 20.5443L114.376 14.2622L119.26 10.1258C119.337 10.0608 119.392 9.97446 119.419 9.87793C119.446 9.78139 119.444 9.67896 119.413 9.58369C119.349 9.38957 119.176 9.25232 118.971 9.2361L112.588 8.76076L110.11 2.79445C110.071 2.70215 110.005 2.62344 109.922 2.56818C109.838 2.51291 109.74 2.48356 109.64 2.4838C109.435 2.4886 109.251 2.6119 109.174 2.80251L106.803 8.75938L100.317 9.23628C100.112 9.25086 99.9354 9.38938 99.8738 9.58499C99.8393 9.68888 99.8414 9.7955 99.8734 9.89402C99.9026 9.98373 99.9567 10.0653 100.031 10.1275L105.016 14.2615L103.414 20.5357C103.362 20.7363 103.438 20.9457 103.605 21.0672C103.685 21.1268 103.782 21.1608 103.883 21.1647C103.983 21.1686 104.082 21.1423 104.168 21.0891L109.696 17.6622L115.117 21.0871C115.202 21.1411 115.3 21.1683 115.401 21.1653C115.501 21.1623 115.598 21.1293 115.679 21.0704V21.0704ZM109.704 15.5817L105.895 17.9444L107.001 13.6165L103.564 10.766L108.035 10.4386L109.669 6.33085L111.376 10.4376L115.771 10.7668L112.409 13.6169L113.441 17.941L109.704 15.5817Z" fill="#F79329"/>
</g>
<defs>
<clipPath id="clip0_16:90">
<rect width="19.792" height="19.792" fill="white" transform="translate(0 6.11608) rotate(-18)"/>
</clipPath>
<clipPath id="clip1_16:90">
<rect width="19.792" height="19.792" fill="white" transform="translate(24.2902 6.11608) rotate(-18)"/>
</clipPath>
<clipPath id="clip2_16:90">
<rect width="19.792" height="19.792" fill="white" transform="translate(49.4801 6.11608) rotate(-18)"/>
</clipPath>
<clipPath id="clip3_16:90">
<rect width="19.792" height="19.792" fill="white" transform="translate(73.7703 6.11608) rotate(-18)"/>
</clipPath>
<clipPath id="clip4_16:90">
<rect width="19.792" height="19.792" fill="white" transform="translate(98.0606 6.11608) rotate(-18)"/>
</clipPath>
</defs>
</svg>
