<svg width="20" height="20" viewBox="0 0 20 20" fill="none" xmlns="http://www.w3.org/2000/svg">
<path fill-rule="evenodd" clip-rule="evenodd" d="M6.22084 0.888343C7.19834 0.843343 7.51001 0.833344 10 0.833344C12.49 0.833344 12.8017 0.844177 13.7783 0.888343C14.755 0.93251 15.4217 1.08834 16.005 1.31418C16.6158 1.54501 17.17 1.90584 17.6283 2.37251C18.095 2.83001 18.455 3.38334 18.685 3.99501C18.9117 4.57834 19.0667 5.24501 19.1117 6.22001C19.1567 7.19918 19.1667 7.51084 19.1667 10C19.1667 12.49 19.1558 12.8017 19.1117 13.7792C19.0675 14.7542 18.9117 15.4208 18.685 16.0042C18.455 16.6159 18.0944 17.1702 17.6283 17.6283C17.17 18.095 16.6158 18.455 16.005 18.685C15.4217 18.9117 14.755 19.0667 13.78 19.1117C12.8017 19.1567 12.49 19.1667 10 19.1667C7.51001 19.1667 7.19834 19.1558 6.22084 19.1117C5.24584 19.0675 4.57918 18.9117 3.99584 18.685C3.38411 18.455 2.82986 18.0944 2.37168 17.6283C1.90533 17.1706 1.54444 16.6166 1.31418 16.005C1.08834 15.4217 0.933343 14.755 0.888343 13.78C0.843343 12.8008 0.833344 12.4892 0.833344 10C0.833344 7.51001 0.844177 7.19834 0.888343 6.22168C0.93251 5.24501 1.08834 4.57834 1.31418 3.99501C1.54478 3.38341 1.90594 2.82944 2.37251 2.37168C2.83004 1.90543 3.38374 1.54455 3.99501 1.31418C4.57834 1.08834 5.24501 0.933343 6.22001 0.888343H6.22084ZM13.7042 2.53834C12.7375 2.49418 12.4475 2.48501 10 2.48501C7.55251 2.48501 7.26251 2.49418 6.29584 2.53834C5.40168 2.57918 4.91668 2.72834 4.59334 2.85418C4.16584 3.02084 3.86001 3.21834 3.53918 3.53918C3.23505 3.83505 3.00099 4.19525 2.85418 4.59334C2.72834 4.91668 2.57918 5.40168 2.53834 6.29584C2.49418 7.26251 2.48501 7.55251 2.48501 10C2.48501 12.4475 2.49418 12.7375 2.53834 13.7042C2.57918 14.5983 2.72834 15.0833 2.85418 15.4067C3.00084 15.8042 3.23501 16.165 3.53918 16.4608C3.83501 16.765 4.19584 16.9992 4.59334 17.1458C4.91668 17.2717 5.40168 17.4208 6.29584 17.4617C7.26251 17.5058 7.55168 17.515 10 17.515C12.4483 17.515 12.7375 17.5058 13.7042 17.4617C14.5983 17.4208 15.0833 17.2717 15.4067 17.1458C15.8342 16.9792 16.14 16.7817 16.4608 16.4608C16.765 16.165 16.9992 15.8042 17.1458 15.4067C17.2717 15.0833 17.4208 14.5983 17.4617 13.7042C17.5058 12.7375 17.515 12.4475 17.515 10C17.515 7.55251 17.5058 7.26251 17.4617 6.29584C17.4208 5.40168 17.2717 4.91668 17.1458 4.59334C16.9792 4.16584 16.7817 3.86001 16.4608 3.53918C16.1649 3.23507 15.8048 3.00102 15.4067 2.85418C15.0833 2.72834 14.5983 2.57918 13.7042 2.53834V2.53834ZM8.82918 12.8258C9.48306 13.098 10.2112 13.1348 10.8891 12.9298C11.5671 12.7248 12.1528 12.2908 12.5464 11.7019C12.9399 11.113 13.1167 10.4057 13.0467 9.70093C12.9767 8.99613 12.6642 8.33749 12.1625 7.83751C11.8427 7.51791 11.456 7.27319 11.0303 7.12097C10.6046 6.96874 10.1504 6.91281 9.70042 6.95719C9.25048 7.00157 8.81597 7.14516 8.42818 7.37762C8.04039 7.61008 7.70896 7.92563 7.45776 8.30155C7.20656 8.67747 7.04183 9.10442 6.97544 9.55164C6.90905 9.99887 6.94264 10.4553 7.07379 10.8879C7.20495 11.3206 7.43041 11.7189 7.73394 12.0539C8.03748 12.389 8.41153 12.6527 8.82918 12.8258ZM6.66834 6.66834C7.10586 6.23082 7.62528 5.88376 8.19692 5.64698C8.76857 5.41019 9.38126 5.28832 10 5.28832C10.6188 5.28832 11.2314 5.41019 11.8031 5.64698C12.3747 5.88376 12.8942 6.23082 13.3317 6.66834C13.7692 7.10586 14.1163 7.62528 14.353 8.19692C14.5898 8.76857 14.7117 9.38126 14.7117 10C14.7117 10.6188 14.5898 11.2314 14.353 11.8031C14.1163 12.3747 13.7692 12.8942 13.3317 13.3317C12.4481 14.2153 11.2496 14.7117 10 14.7117C8.75039 14.7117 7.55196 14.2153 6.66834 13.3317C5.78473 12.4481 5.28832 11.2496 5.28832 10C5.28832 8.75039 5.78473 7.55196 6.66834 6.66834V6.66834ZM15.7567 5.99001C15.8651 5.88773 15.9519 5.76474 16.0119 5.62832C16.072 5.4919 16.104 5.34482 16.1062 5.19578C16.1084 5.04675 16.0806 4.8988 16.0246 4.76068C15.9685 4.62257 15.8854 4.4971 15.78 4.39171C15.6746 4.28632 15.5491 4.20314 15.411 4.14711C15.2729 4.09107 15.1249 4.06332 14.9759 4.0655C14.8269 4.06767 14.6798 4.09972 14.5434 4.15976C14.4069 4.21979 14.284 4.30659 14.1817 4.41501C13.9828 4.62587 13.8739 4.90594 13.8781 5.19578C13.8823 5.48563 13.9993 5.76241 14.2043 5.96738C14.4093 6.17235 14.6861 6.28937 14.9759 6.29359C15.2657 6.29782 15.5458 6.18892 15.7567 5.99001V5.99001Z" fill="black"/>
</svg>
