<svg width="39" height="39" viewBox="0 0 39 39" fill="none" xmlns="http://www.w3.org/2000/svg">
<path d="M36.5333 29.4691V8.79753C36.5333 8.3208 36.3414 7.86359 35.9996 7.52648C35.6579 7.18938 35.1944 7 34.7111 7H2.82222C2.33894 7 1.87545 7.18938 1.53372 7.52648C1.19198 7.86359 1 8.3208 1 8.79753V29.4691C1 29.9459 1.19198 30.4031 1.53372 30.7402C1.87545 31.0773 2.33894 31.2667 2.82222 31.2667H34.7111C35.1944 31.2667 35.6579 31.0773 35.9996 30.7402C36.3414 30.4031 36.5333 29.9459 36.5333 29.4691Z" stroke="white" stroke-width="1.5" stroke-linecap="round" stroke-linejoin="round"/>
<path d="M34.6875 7L18.5 19L3 7" stroke="white" stroke-width="1.5" stroke-linecap="round" stroke-linejoin="round"/>
</svg>
