<svg width="146" height="112" viewBox="0 0 146 112" fill="none" xmlns="http://www.w3.org/2000/svg">
<path d="M20.3792 92.9678L11.6192 108.313L2.92 92.9678H0V111.502H2.7375V98.8966C2.7375 98.7471 2.7375 98.5478 2.7375 98.2987C2.7375 98.0496 2.7375 97.8005 2.67667 97.6012V97.3023C2.85917 97.651 3.1025 98.1991 3.4675 98.8468L10.5242 111.452H12.6533L19.6492 98.8468C19.71 98.7471 19.7708 98.5977 19.9533 98.3486C20.075 98.0994 20.1967 97.8503 20.2575 97.651C20.3183 97.4518 20.3183 97.3023 20.3792 97.3023V97.6012C20.3792 97.8005 20.3183 98.0496 20.3183 98.2987C20.3183 98.5478 20.3183 98.7471 20.3183 98.8966V111.502H23.2383V92.9678H20.3792V92.9678Z" fill="white"/>
<path d="M51.7692 95.2099C49.5183 93.3665 46.6592 92.4697 43.1917 92.4697C39.7242 92.4697 36.865 93.3665 34.6142 95.2099C32.3633 97.0534 31.2075 99.395 31.2075 102.235C31.2075 105.075 32.3633 107.416 34.6142 109.26C36.865 111.103 39.7242 112 43.1917 112C46.6592 112 49.5183 111.053 51.7692 109.26C54.02 107.416 55.1758 105.075 55.1758 102.235C55.1758 99.395 54.02 97.0534 51.7692 95.2099ZM49.5792 107.765C47.9367 109.21 45.8075 109.957 43.1917 109.957C40.5758 109.957 38.5075 109.21 36.8042 107.765C35.1617 106.32 34.31 104.477 34.31 102.235C34.31 99.9929 35.1617 98.0996 36.8042 96.7046C38.4467 95.2598 40.5758 94.5623 43.1917 94.5623C45.8075 94.5623 47.8758 95.3096 49.5792 96.7544C51.2217 98.1993 52.0733 100.043 52.0733 102.285C52.0733 104.527 51.2217 106.32 49.5792 107.765Z" fill="white"/>
<path d="M60.3467 92.9678L61.9892 95.0603H69.4717V111.502H72.5133V95.0603H79.9958L81.6383 92.9678H60.3467Z" fill="white"/>
<path d="M89.6075 92.9678V111.502H92.6492V92.9678H89.6075V92.9678Z" fill="white"/>
<path d="M118.442 95.0603L120.085 92.9678H105.485V111.502H108.527V102.783H116.192L117.834 100.74H108.527V95.1101H118.442V95.0603Z" fill="white"/>
<path d="M142.897 92.9678L135.719 102.534L128.541 92.9678H125.256L134.137 104.526V111.502H137.179V104.526L146 92.9678H142.897Z" fill="white"/>
<path d="M48.18 74.9823H29.9908L12.3492 46.6335L21.535 31.936L48.18 74.9823Z" fill="#97E545"/>
<path d="M87.9042 74.9822H58.1567L26.4017 24.0142L41.3667 0L73 50.8185L104.633 0L119.598 24.0142L87.9042 74.9822Z" fill="#97E545"/>
<path d="M133.651 46.6334L116.009 74.9822H96.36L123.796 30.8398L133.651 46.6334Z" fill="#97E545"/>
</svg>
