<svg width="358" height="60" viewBox="0 0 358 60" fill="none" xmlns="http://www.w3.org/2000/svg">
<path fill-rule="evenodd" clip-rule="evenodd" d="M30.3796 52.227H18.0385L4.89063 32.2408L8.23058 27.1647C9.42212 25.354 12.7629 25.354 13.9545 27.1647L24.2113 42.753L34.4638 27.1658C35.6551 25.3548 38.9961 25.3546 40.1881 27.1655L43.5274 32.2408L30.3796 52.227ZM13.9107 52.2583H6.30317L0.71507 43.7222C-0.238592 42.2769 -0.238309 40.5663 0.715634 39.1214L3.02681 35.6199L13.9107 52.2583ZM42.391 52.227L48.1985 43.3739C49.1433 41.9336 49.1433 40.2291 48.1985 38.7888L45.6244 34.8651L34.235 52.227H42.391Z" fill="white"/>
<path fill-rule="evenodd" clip-rule="evenodd" d="M115.908 25.8066L103.14 47.7603L90.3645 25.8066H86.0765V52.2583H90.0957V34.2259C90.0957 34.0282 90.0808 33.7434 90.0591 33.3945C90.0444 33.0393 90.0225 32.7134 89.9791 32.4223V32.0212C90.2112 32.5449 90.6113 33.2775 91.1784 34.2149L101.505 52.2583H104.593L114.847 34.2433C114.92 34.1097 115.058 33.8652 115.269 33.5045C115.464 33.1501 115.611 32.8178 115.683 32.5212C115.763 32.2246 115.814 32.0561 115.858 32.0212V32.4223C115.814 32.7134 115.791 33.0393 115.778 33.3945C115.748 33.7434 115.741 34.0282 115.741 34.2259V52.2583H119.985V25.8066H115.908Z" fill="white"/>
<path fill-rule="evenodd" clip-rule="evenodd" d="M155.055 46.5192C152.896 48.48 150.12 49.4602 146.747 49.4602C143.375 49.4602 140.599 48.48 138.42 46.5192C136.247 44.559 135.151 42.0641 135.151 39.0295C135.151 35.9731 136.247 33.467 138.42 31.5233C140.599 29.5788 143.375 28.5987 146.747 28.5987C150.12 28.5987 152.896 29.584 155.055 31.5398C157.216 33.5 158.292 35.9948 158.292 39.0295C158.292 42.0641 157.216 44.559 155.055 46.5192ZM157.948 29.5406C155.004 27.0511 151.268 25.8066 146.747 25.8066C142.226 25.8066 138.484 27.0511 135.527 29.5406C132.556 32.0294 131.071 35.1906 131.071 39.0295C131.071 42.8682 132.556 46.0294 135.527 48.5183C138.484 51.0079 142.226 52.2583 146.747 52.2583C151.268 52.2583 155.004 51.0079 157.948 48.5183C160.9 46.0294 162.372 42.8682 162.372 39.0295C162.372 35.1906 160.9 32.0294 157.948 29.5406Z" fill="white"/>
<path fill-rule="evenodd" clip-rule="evenodd" d="M168.24 25.8066L170.633 28.7628H181.67V52.2583H186.104V28.7628H197.148L199.541 25.8066H168.24Z" fill="white"/>
<path fill-rule="evenodd" clip-rule="evenodd" d="M210.627 52.2583H214.539V25.8066H210.627V52.2583Z" fill="white"/>
<path fill-rule="evenodd" clip-rule="evenodd" d="M249.237 28.7628L251.709 25.8066H229.537V52.2583H234.118V39.7832H245.828L248.299 36.8333H234.118V28.7628H249.237Z" fill="white"/>
<path fill-rule="evenodd" clip-rule="evenodd" d="M289.377 25.8066L278.561 39.4454L267.752 25.8066H262.794L276.172 42.3257V52.2583H280.731V42.3257L294.095 25.8066H289.377Z" fill="white"/>
<path d="M297.746 56.774C297.312 56.774 296.93 56.6755 296.599 56.4782C296.268 56.2811 296.104 55.9722 296.104 55.5516L296.129 55.3347C296.32 53.9809 296.547 52.5744 296.808 51.1154C297.085 49.6433 297.319 48.5129 297.511 47.7242L295.477 48.158L295.164 48.1974C294.833 48.1974 294.574 48.0988 294.382 47.9017C294.191 47.7045 294.095 47.481 294.095 47.2313L294.121 47.0538C294.155 46.8041 294.259 46.6004 294.434 46.4426C294.608 46.285 294.938 46.1272 295.425 45.9694C295.929 45.8117 296.677 45.6409 297.668 45.4568L298.764 45.2597C299.164 45.1939 299.493 45.1611 299.754 45.1611C300.258 45.1611 300.633 45.2597 300.876 45.4568C301.137 45.654 301.268 45.93 301.268 46.285C301.268 46.4426 301.241 46.6135 301.189 46.7976C300.91 47.8228 300.381 50.7408 299.598 55.5516C299.459 56.3665 298.842 56.774 297.746 56.774Z" fill="white" fill-opacity="0.88"/>
<path d="M314.947 52.2509C315.154 52.2509 315.312 52.3302 315.423 52.4889C315.55 52.6477 315.614 52.8659 315.614 53.1437C315.614 53.6728 315.462 54.0827 315.161 54.3737C314.48 55.0747 313.735 55.6501 312.926 56.0997C312.118 56.5495 311.191 56.7743 310.144 56.7743C306.909 56.7743 305.292 54.8763 305.292 51.0803C305.292 50.4984 305.317 49.9097 305.364 49.3146H304.437C303.961 49.3146 303.635 49.2419 303.461 49.0963C303.302 48.9508 303.224 48.7194 303.224 48.4019C303.224 47.6612 303.58 47.2909 304.293 47.2909H305.649C305.918 45.836 306.331 44.5067 306.886 43.3031C307.44 42.0995 308.107 41.1406 308.883 40.4264C309.676 39.7121 310.524 39.355 311.428 39.355C312.094 39.355 312.617 39.5997 312.998 40.089C313.378 40.5784 313.568 41.1934 313.568 41.9342C313.568 43.9842 312.538 45.7698 310.477 47.2909H313.14C313.394 47.2909 313.577 47.3372 313.687 47.4298C313.798 47.5223 313.854 47.6943 313.854 47.9456C313.854 48.8583 312.957 49.3146 311.166 49.3146H308.265C308.233 49.9759 308.218 50.4918 308.218 50.8621C308.218 52.2376 308.407 53.2031 308.788 53.7587C309.184 54.3141 309.802 54.5919 310.643 54.5919C311.324 54.5919 311.927 54.4201 312.451 54.0761C312.974 53.7322 313.591 53.2164 314.305 52.5287C314.496 52.3434 314.709 52.2509 314.947 52.2509ZM310.786 41.2596C310.548 41.2596 310.278 41.5109 309.977 42.0135C309.691 42.5029 309.414 43.1907 309.145 44.0769C308.891 44.9498 308.677 45.922 308.503 46.9933C309.439 46.3188 310.136 45.5649 310.596 44.7315C311.072 43.8851 311.31 43.1179 311.31 42.4302C311.31 41.6498 311.135 41.2596 310.786 41.2596Z" fill="white" fill-opacity="0.88"/>
<path d="M318.797 56.774C317.837 56.774 317.016 56.589 316.334 56.2191C315.667 55.8363 315.162 55.3388 314.821 54.7264C314.48 54.1141 314.31 53.457 314.31 52.7554C314.31 51.7858 314.537 50.9247 314.992 50.172C315.463 49.4066 316.098 48.8133 316.894 48.3924C317.692 47.9586 318.586 47.7417 319.578 47.7417C320.537 47.7417 321.358 47.9331 322.042 48.3158C322.725 48.6857 323.237 49.1769 323.578 49.7892C323.921 50.4016 324.091 51.0586 324.091 51.7603C324.091 52.7298 323.855 53.5974 323.384 54.3628C322.911 55.1155 322.269 55.7087 321.456 56.1424C320.659 56.5635 319.773 56.774 318.797 56.774ZM319.066 54.7073C319.619 54.7073 320.082 54.4713 320.457 53.9992C320.846 53.5272 321.042 52.8383 321.042 51.9326C321.042 51.2309 320.88 50.7015 320.554 50.3443C320.228 49.9871 319.838 49.8084 319.383 49.8084C318.797 49.8084 318.31 50.0444 317.919 50.5164C317.545 50.9758 317.358 51.6646 317.358 52.5831C317.358 53.3103 317.521 53.8461 317.846 54.1906C318.171 54.535 318.578 54.7073 319.066 54.7073Z" fill="white" fill-opacity="0.88"/>
<path d="M330.351 56.774C329.917 56.774 329.534 56.6755 329.204 56.4782C328.873 56.2811 328.708 55.9722 328.708 55.5516L328.734 55.3347C328.925 53.9809 329.152 52.5744 329.413 51.1154C329.691 49.6433 329.926 48.5129 330.117 47.7242L328.083 48.158L327.77 48.1974C327.439 48.1974 327.178 48.0988 326.987 47.9017C326.796 47.7045 326.699 47.481 326.699 47.2313L326.726 47.0538C326.76 46.8041 326.866 46.6004 327.039 46.4426C327.212 46.285 327.543 46.1272 328.031 45.9694C328.535 45.8117 329.282 45.6409 330.273 45.4568L331.368 45.2597C331.769 45.1939 332.099 45.1611 332.36 45.1611C332.864 45.1611 333.238 45.2597 333.481 45.4568C333.742 45.654 333.872 45.93 333.872 46.285C333.872 46.4426 333.846 46.6135 333.794 46.7976C333.517 47.8228 332.986 50.7408 332.203 55.5516C332.064 56.3665 331.447 56.774 330.351 56.774Z" fill="white" fill-opacity="0.88"/>
</svg>
