<svg width="196" height="48" viewBox="0 0 196 48" fill="none" xmlns="http://www.w3.org/2000/svg">
<path fill-rule="evenodd" clip-rule="evenodd" d="M50.3067 31.0484H54.8429C56.6128 31.0484 57.2858 31.6924 57.2858 33.2699C57.2858 34.7888 56.6124 35.4321 54.8429 35.4321H50.3067V31.0484ZM43.2793 47.0033H50.3071V40.5155H57.8345C62.8184 40.5155 64.6128 37.4195 64.6128 33.4167C64.6128 28.7702 62.7676 26.1409 57.7838 26.1409H43.2793V47.0033ZM66.9304 26.1409H85.8448V31.2239H73.9581V34.0291H84.9988V39.1143H73.9581V41.9192H85.8448V47.0033H66.9304V26.1409ZM95.8141 31.0484H100.35C102.119 31.0484 102.793 31.6924 102.793 33.2699C102.793 34.7888 102.119 35.4321 100.35 35.4321H95.8141V31.0484ZM88.7864 47.0033H95.8141V40.5155H103.34C108.325 40.5155 110.12 37.4195 110.12 33.4167C110.12 28.7702 108.275 26.1409 103.29 26.1409H88.7864V47.0033ZM116.923 38.1497C113.484 37.5351 112.064 35.1977 112.064 32.2765C112.064 26.87 116.575 25.4103 122.356 25.4103C130.28 25.4103 133.545 27.8346 133.795 32.2474H125.62C125.62 31.3998 125.196 30.8728 124.549 30.581C123.926 30.2604 123.129 30.1437 122.356 30.1437C120.262 30.1437 119.54 30.7565 119.54 31.6339C119.54 32.2173 119.764 32.5985 120.462 32.7149L128.86 34.1753C132.399 34.7888 134.593 36.7173 134.593 40.252C134.593 45.3379 131.054 47.7339 123.153 47.7339C117.745 47.7339 111.839 46.8576 111.814 40.7212H120.287C120.311 41.4216 120.537 41.889 121.036 42.2107C121.557 42.5033 122.331 42.6497 123.427 42.6497C125.619 42.6497 126.219 41.9479 126.219 40.9542C126.219 40.3407 125.894 39.7275 124.949 39.553L116.923 38.1497ZM136.884 26.1409H143.912V47.0033H136.884V26.1409ZM169.957 38.8803C169.508 41.627 168.709 43.8477 166.965 45.3666C165.246 46.8863 162.554 47.7339 158.268 47.7339C154.007 47.7339 146.107 47.3824 146.107 36.5726C146.107 25.7607 154.007 25.41 158.268 25.41C162.504 25.41 169.034 26.0522 169.957 34.3224H162.032C161.832 32.8308 160.983 30.6689 158.268 30.6689C155.401 30.6689 153.582 32.3343 153.582 36.5723C153.582 40.8092 155.352 42.4735 157.919 42.4735C160.137 42.4735 161.458 41.3925 162.031 38.8799L169.957 38.8803ZM179.152 36.573C179.152 32.3347 180.972 30.6696 183.838 30.6696C186.704 30.6696 188.524 32.335 188.524 36.573C188.524 40.8099 186.704 42.4742 183.838 42.4742C180.972 42.4738 179.152 40.8095 179.152 36.573ZM171.675 36.573C171.675 47.3824 179.575 47.7342 183.838 47.7342C188.1 47.7342 196 47.3828 196 36.573C196 25.7611 188.1 25.4103 183.838 25.4103C179.575 25.4103 171.675 25.7607 171.675 36.573ZM32.6601 26.3477C33.1139 16.3385 24.9287 5.06667 13.7699 3.6734L13.7889 3.53662C24.7898 3.53662 33.2231 14.2764 33.2231 22.7491C33.2126 24.5128 33.0805 25.6056 32.8449 26.399L32.6601 26.3477ZM31.9935 27.62C31.2616 28.5631 30.3411 29.5126 29.2626 30.414C27.2786 18.3808 18.8936 7.85859 12.9654 4.78737L12.8385 4.88071C18.8003 10.0406 25.9111 20.062 28.6764 30.8861C27.2659 31.9788 25.7423 32.8989 24.1348 33.6289C18.5089 26.8632 13.264 13.8151 11.5738 5.53516L11.4019 5.58973C11.44 13.627 16.8511 27.271 23.4499 33.9286C21.9364 34.5602 20.363 35.0186 18.7568 35.296C12.4313 32.6535 7.92884 24.1897 7.92884 15.5196C7.92884 9.85964 9.56527 6.35834 9.88186 5.64178L9.74705 5.58542C9.36407 6.19643 6.9668 9.69594 6.9668 15.8064C6.9668 25.6067 11.5499 33.0975 17.6347 35.4565C15.4588 35.7089 13.2588 35.6 11.1149 35.1338L11.0696 35.2831C11.7205 35.5359 13.9288 36.5134 17.2977 36.5134C24.9174 36.5134 30.0684 31.5208 32.1419 27.7259L31.9935 27.62Z" fill="#28458E"/>
<path fill-rule="evenodd" clip-rule="evenodd" d="M16.5358 0C10.7594 0 3.98633 4.39629 3.98633 8.41491C3.98633 9.96937 5.33475 11.2826 8.12556 11.2826C14.6042 11.2826 20.6233 6.58868 20.6233 2.93876C20.6233 1.01812 18.8742 0 16.5358 0V0ZM18.8418 2.82531C18.8418 5.90192 13.2394 9.66278 8.5562 9.66278C6.48709 9.66278 5.36914 8.80406 5.36914 7.3871C5.36914 4.26633 11.0352 0.56937 15.428 0.56937C18.292 0.56937 18.8418 2.10624 18.8418 2.82531V2.82531Z" fill="#0096D6"/>
<path fill-rule="evenodd" clip-rule="evenodd" d="M1.68503 10.2757C1.52265 10.5718 0.872437 11.9145 0.872437 13.2902C0.872437 15.8416 3.31703 18.2102 7.81337 18.2102C16.4632 18.2102 26.4568 11.4959 26.4568 5.26335C26.4568 2.46568 23.9455 0.944609 22.2018 0.630127L22.1691 0.739262C22.7114 0.920197 24.6981 1.89416 24.6981 4.38632C24.6981 9.35233 15.8747 16.1187 7.08554 16.1187C3.72078 16.1187 1.60095 14.3672 1.60095 11.8158C1.60095 11.0087 1.76027 10.4771 1.80248 10.3231L1.68503 10.2757Z" fill="#EB7B30"/>
<path fill-rule="evenodd" clip-rule="evenodd" d="M30.0231 5.72925C30.2604 5.91916 31.6851 7.17134 31.6851 9.53929C31.6851 17.6131 19.6892 25.5524 9.08389 25.5524C2.75946 25.5524 -0.123604 22.2593 0.00405564 19.3352H0.117417C0.365247 20.8538 2.41869 23.5711 7.95401 23.5711C18.5726 23.5711 30.4286 15.3561 30.4286 8.15858C30.4286 6.92399 30.1106 6.15466 29.9309 5.81254L30.0231 5.72925Z" fill="#00984A"/>
<path fill-rule="evenodd" clip-rule="evenodd" d="M34.0327 13.2666C34.0824 13.4386 34.3408 14.2115 34.3408 15.422C34.3408 24.4034 22.2009 32.0924 11.6426 32.0924C6.20836 32.0924 3.37057 29.3088 2.77142 28.1783L2.8681 28.1029C4.37176 29.4897 7.33346 30.5434 10.7898 30.5434C20.1147 30.5434 34.0289 23.0618 33.9047 13.2993L34.0327 13.2666Z" fill="#DF002C"/>
</svg>
