<svg width="788" height="201" viewBox="0 0 788 201" fill="none" xmlns="http://www.w3.org/2000/svg">
<path fill-rule="evenodd" clip-rule="evenodd" d="M202.335 125.117H220.568C227.681 125.117 230.386 128.046 230.386 135.22C230.386 142.127 227.68 145.053 220.568 145.053H202.335V125.117ZM174.09 197.676H202.337V168.171H232.592C252.623 168.171 259.835 154.091 259.835 135.887C259.835 114.756 252.419 102.799 232.388 102.799H174.09V197.676ZM269.151 102.799H345.173V125.915H297.397V138.673H341.773V161.799H297.397V174.555H345.173V197.676H269.151V102.799ZM385.243 125.117H403.473C410.586 125.117 413.292 128.046 413.292 135.22C413.292 142.127 410.586 145.053 403.473 145.053H385.243V125.117ZM356.996 197.676H385.243V168.171H415.492C435.529 168.171 442.743 154.091 442.743 135.887C442.743 114.756 435.327 102.799 415.291 102.799H356.996V197.676ZM470.083 157.412C456.263 154.617 450.557 143.987 450.557 130.702C450.557 106.115 468.688 99.4763 491.921 99.4763C523.77 99.4763 536.895 110.502 537.898 130.57H505.041C505.041 126.715 503.338 124.318 500.738 122.991C498.233 121.533 495.03 121.003 491.921 121.003C483.508 121.003 480.605 123.79 480.605 127.78C480.605 130.433 481.503 132.167 484.308 132.696L518.063 139.337C532.289 142.127 541.105 150.898 541.105 166.973C541.105 190.102 526.88 200.998 495.125 200.998C473.391 200.998 449.65 197.013 449.551 169.107H483.607C483.703 172.292 484.609 174.417 486.615 175.88C488.712 177.211 491.82 177.877 496.226 177.877C505.039 177.877 507.447 174.685 507.447 170.166C507.447 167.376 506.141 164.587 502.343 163.794L470.083 157.412ZM550.316 102.799H578.561V197.676H550.316V102.799ZM683.243 160.734C681.44 173.226 678.23 183.325 671.217 190.233C664.31 197.144 653.489 200.998 636.264 200.998C619.136 200.998 587.382 199.4 587.382 150.24C587.382 101.07 619.136 99.4747 636.264 99.4747C653.288 99.4747 679.534 102.395 683.243 140.006H651.39C650.588 133.223 647.177 123.391 636.264 123.391C624.739 123.391 617.428 130.965 617.428 150.238C617.428 169.507 624.542 177.075 634.858 177.075C643.775 177.075 649.084 172.16 651.388 160.733L683.243 160.734ZM720.201 150.241C720.201 130.967 727.516 123.394 739.037 123.394C750.554 123.394 757.87 130.968 757.87 150.241C757.87 169.51 750.554 177.079 739.037 177.079C727.516 177.077 720.201 169.508 720.201 150.241ZM690.149 150.241C690.149 199.4 721.902 201 739.036 201C756.165 201 787.918 199.402 787.918 150.241C787.918 101.071 756.165 99.4763 739.036 99.4763C721.902 99.4763 690.149 101.07 690.149 150.241ZM131.409 103.739C133.232 58.2197 100.334 6.95828 55.4834 0.622034L55.56 0C99.7755 0 133.672 48.8419 133.672 87.3736C133.629 95.3948 133.098 100.364 132.151 103.973L131.409 103.739ZM128.729 109.525C125.788 113.814 122.088 118.132 117.753 122.232C109.779 67.5077 76.0771 19.6553 52.2501 5.6881L51.7398 6.11258C75.7022 29.5784 104.283 75.1534 115.397 124.379C109.728 129.348 103.604 133.533 97.143 136.852C74.531 106.084 53.4501 46.7439 46.6567 9.08887L45.9657 9.33703C46.1189 45.8884 67.8675 107.938 94.39 138.215C88.307 141.088 81.9831 143.173 75.5271 144.434C50.1033 132.416 32.0066 93.9254 32.0066 54.4957C32.0066 28.7556 38.5839 12.8325 39.8564 9.57376L39.3145 9.31744C37.7752 12.0962 28.1399 28.0111 28.1399 55.8001C28.1399 100.369 46.5609 134.436 71.0173 145.164C62.2717 146.312 53.4293 145.817 44.8122 143.696L44.6302 144.375C47.2464 145.525 56.1223 149.97 69.6627 149.97C100.289 149.97 120.992 127.265 129.326 110.007L128.729 109.525Z" fill="white"/>
<path fill-rule="evenodd" clip-rule="evenodd" d="M66.4735 0C43.2527 0 16.0248 18.9866 16.0248 36.3422C16.0248 43.0555 21.4455 48.727 32.6645 48.727C58.7086 48.727 82.9052 28.4551 82.9052 12.6919C82.9052 4.39703 75.8738 0 66.4735 0V0ZM75.7438 12.2019C75.7438 25.4891 53.2222 41.7315 34.3957 41.7315C26.0779 41.7315 21.5837 38.0228 21.5837 31.9033C21.5837 18.4254 44.3612 2.45899 62.0204 2.45899C73.5336 2.45899 75.7438 9.0964 75.7438 12.2019V12.2019Z" fill="#0096D6"/>
<path fill-rule="evenodd" clip-rule="evenodd" d="M6.77377 44.3785C6.12099 45.6576 3.50714 51.4562 3.50714 57.3975C3.50714 68.4164 13.3344 78.6461 31.4097 78.6461C66.1821 78.6461 106.356 49.6484 106.356 22.7313C106.356 10.6488 96.2605 4.07961 89.251 2.72144L89.1196 3.19277C91.2997 3.97418 99.2863 8.18051 99.2863 18.9436C99.2863 40.3908 63.8159 69.6133 28.4838 69.6133C14.9574 69.6133 6.43575 62.0488 6.43575 51.0298C6.43575 47.5445 7.07621 45.2483 7.24591 44.5831L6.77377 44.3785Z" fill="#EB7B30"/>
<path fill-rule="evenodd" clip-rule="evenodd" d="M120.693 24.7432C121.647 25.5633 127.374 30.9713 127.374 41.1979C127.374 76.0671 79.1503 110.355 36.5172 110.355C11.093 110.355 -0.496887 96.1328 0.0163036 83.5045H0.472017C1.46829 90.0629 9.72313 101.798 31.9751 101.798C74.6616 101.798 122.323 66.3196 122.323 35.2349C122.323 29.903 121.044 26.5804 120.322 25.1029L120.693 24.7432Z" fill="#00984A"/>
<path fill-rule="evenodd" clip-rule="evenodd" d="M136.811 57.2947C137.011 58.0373 138.05 61.3754 138.05 66.6035C138.05 105.392 89.2473 138.599 46.8031 138.599C24.9576 138.599 13.5497 126.577 11.1411 121.695L11.5298 121.369C17.5745 127.359 29.4805 131.909 43.3749 131.909C80.8611 131.909 136.796 99.5982 136.297 57.4358L136.811 57.2947Z" fill="#DF002C"/>
</svg>
