<svg width="14" height="14" viewBox="0 0 14 14" fill="none" xmlns="http://www.w3.org/2000/svg">
<g clip-path="url(#clip0_17:111)">
<path d="M3.19719 1.16196C3.14553 1.09552 3.08033 1.04082 3.00592 1.00151C2.9315 0.962199 2.84957 0.939172 2.76557 0.933958C2.68157 0.928744 2.59742 0.941463 2.51871 0.97127C2.44 1.00108 2.36854 1.04729 2.30906 1.10684L1.40431 2.01246C0.981689 2.43596 0.825939 3.03534 1.01056 3.56121C1.77684 5.73785 3.02332 7.71405 4.65756 9.34321C6.28675 10.9774 8.26294 12.2239 10.4396 12.9902C10.9654 13.1748 11.5648 13.0191 11.9883 12.5965L12.8931 11.6917C12.9526 11.6322 12.9988 11.5608 13.0286 11.4821C13.0584 11.4034 13.0712 11.3192 13.0659 11.2352C13.0607 11.1512 13.0377 11.0693 12.9984 10.9949C12.9591 10.9204 12.9044 10.8552 12.8379 10.8036L10.8193 9.23384C10.7483 9.17878 10.6658 9.14056 10.5778 9.12207C10.4899 9.10358 10.399 9.10529 10.3118 9.12709L8.39556 9.60571C8.13978 9.66964 7.87181 9.66625 7.61773 9.59587C7.36365 9.52549 7.13212 9.39051 6.94569 9.20409L4.79669 7.05421C4.61011 6.86787 4.47497 6.63638 4.40444 6.3823C4.3339 6.12821 4.33037 5.86019 4.39419 5.60434L4.87369 3.68809C4.89548 3.60093 4.8972 3.50997 4.87871 3.42206C4.86021 3.33414 4.822 3.25158 4.76694 3.18059L3.19719 1.16196ZM1.64844 0.447088C1.80156 0.293919 1.98551 0.175077 2.18809 0.0984545C2.39066 0.0218315 2.60721 -0.0108194 2.82337 0.00266985C3.03953 0.0161591 3.25035 0.0754798 3.44182 0.176693C3.6333 0.277906 3.80105 0.418696 3.93394 0.589713L5.50369 2.60746C5.79156 2.97759 5.89306 3.45971 5.77931 3.91471L5.30069 5.83096C5.27594 5.93021 5.27728 6.03418 5.30457 6.13276C5.33186 6.23134 5.38418 6.32119 5.45644 6.39359L7.60631 8.54346C7.6788 8.61587 7.7688 8.66828 7.86755 8.69557C7.9663 8.72286 8.07043 8.72412 8.16981 8.69921L10.0852 8.22059C10.3097 8.16445 10.5441 8.16009 10.7706 8.20784C10.997 8.25559 11.2097 8.3542 11.3924 8.49621L13.4102 10.066C14.1356 10.6303 14.2021 11.7022 13.5528 12.3506L12.6481 13.2553C12.0006 13.9028 11.0328 14.1872 10.1307 13.8696C7.82172 13.0572 5.7253 11.7353 3.99694 10.0021C2.26382 8.27398 0.941971 6.17786 0.129439 3.86921C-0.187311 2.96796 0.097064 1.99934 0.744564 1.35184L1.64931 0.447088H1.64844Z" fill="#9174CE"/>
</g>
<defs>
<clipPath id="clip0_17:111">
<rect width="14" height="14" fill="white"/>
</clipPath>
</defs>
</svg>
