<svg width="35" height="35" viewBox="0 0 35 35" fill="none" xmlns="http://www.w3.org/2000/svg">
<path d="M34.3845 7.42998C34.1391 7.22085 33.8406 7.08132 33.5208 7.02631C33.201 6.97131 32.8721 7.0029 32.5692 7.11771L9.1352 16.1735C8.77564 16.3105 8.47114 16.5589 8.26764 16.8812C8.06414 17.2035 7.97269 17.5822 8.00709 17.9601C8.04148 18.338 8.19985 18.6946 8.45831 18.9762C8.71676 19.2577 9.06128 19.449 9.43987 19.521L15.5967 20.7326V28.252C15.5971 28.5965 15.7009 28.9332 15.8952 29.2199C16.0894 29.5066 16.3654 29.7304 16.6884 29.8633C16.9062 29.9506 17.1387 29.9972 17.3739 30.0007C17.6075 30.0021 17.839 29.9575 18.0549 29.8696C18.2707 29.7816 18.4665 29.6521 18.6307 29.4886L22.0962 26.0786L27.2756 30.5628C27.5964 30.8458 28.0126 31.0016 28.4435 30.9999C28.6292 31.0015 28.8137 30.9719 28.9893 30.9125C29.2825 30.8208 29.5459 30.6548 29.7532 30.4312C29.9604 30.2075 30.1041 29.9341 30.1699 29.6385L34.9557 9.14121C35.0273 8.83181 35.0119 8.50911 34.9112 8.20766C34.8106 7.90621 34.6285 7.63738 34.3845 7.42998V7.42998ZM9.54142 17.8222C9.53254 17.7696 9.543 17.7155 9.5709 17.6698C9.59881 17.624 9.64236 17.5895 9.69375 17.5724L29.3067 9.99057L16.1806 19.3211L9.74453 18.0471C9.68843 18.0409 9.63664 18.0145 9.59913 17.973C9.56163 17.9315 9.54107 17.8778 9.54142 17.8222V17.8222ZM17.5516 28.4269C17.5164 28.4632 17.4704 28.4876 17.4203 28.4965C17.3701 28.5055 17.3183 28.4986 17.2723 28.4768C17.2277 28.4577 17.1896 28.4263 17.1626 28.3864C17.1356 28.3466 17.1208 28.2999 17.12 28.252V21.7693L20.9411 25.0918L17.5516 28.4269ZM28.6974 29.3012C28.6887 29.3445 28.6685 29.3848 28.6388 29.418C28.6092 29.4511 28.5711 29.4759 28.5286 29.4899C28.486 29.5039 28.4404 29.5065 28.3965 29.4975C28.3525 29.4884 28.3118 29.4681 28.2785 29.4386L17.577 20.1705L33.4451 8.90388L28.6974 29.3012Z" fill="white"/>
</svg>
