<svg width="38" height="38" viewBox="0 0 38 38" fill="none" xmlns="http://www.w3.org/2000/svg">
<path d="M0.111328 9.20312C0.111328 7.79297 1.07617 7.23633 2.26367 7.16211L7.79297 7.19922C8.12695 7.19922 8.42383 7.42188 8.53516 7.75586C9.79688 11.8379 11.3555 14.3613 13.2109 17.2188C13.3223 17.4414 13.5078 17.5527 13.6934 17.5527C13.8418 17.5527 13.9902 17.4785 14.1016 17.293L14.2129 16.8848L14.25 10.4648C14.25 9.53711 13.8047 9.38867 12.7656 9.24023C12.3574 9.16602 12.0977 8.79492 12.0977 8.42383C12.0977 8.34961 12.0977 8.27539 12.1348 8.20117C12.6543 6.60547 14.2871 5.78906 16.5879 5.78906L18.666 5.75195C20.373 5.75195 21.9316 6.49414 21.9316 8.68359V17.1074C22.0801 17.2188 22.2285 17.293 22.4141 17.293C22.7109 17.293 23.082 17.1074 23.3789 16.625C25.3086 13.916 27.498 10.6875 27.7949 8.98047C27.7949 8.90625 27.832 8.86914 27.8691 8.79492C28.2773 7.97852 29.3164 7.42188 29.7617 7.27344C29.8359 7.23633 29.9473 7.19922 30.0957 7.19922H35.8477L36.2188 7.23633C36.7754 7.23633 37.1836 7.60742 37.3691 7.94141C37.7031 8.46094 37.6289 9.01758 37.666 9.24023V9.5C37.1094 12.877 33.25 16.6621 31.6172 19.1113C31.3945 19.4082 31.2832 19.668 31.2832 19.9277C31.2832 20.1504 31.3945 20.373 31.5801 20.5957L36.998 27.4238C37.2949 27.832 37.4434 28.3145 37.4434 28.7227C37.4434 29.9473 36.293 30.6523 35.1797 30.7637L34.5488 30.8008H28.9082C28.7969 30.8008 28.7227 30.8379 28.6113 30.8379C27.9805 30.8379 27.4609 30.5039 27.0898 30.1328C25.9023 28.6855 24.752 27.2012 23.6016 25.7539C23.3789 25.457 23.3047 25.4199 23.082 25.2715C22.8223 26.3477 22.5996 27.4609 22.3398 28.5742L22.2285 29.2051C22.043 29.873 21.5605 30.5781 20.6699 30.7637L20.1504 30.8008H16.5137C10.0938 30.8008 4.3418 21.6719 0.296875 10.2793C0.185547 9.98242 0.111328 9.57422 0.111328 9.20312ZM22.4141 18.8145C21.4492 18.8145 20.373 18.2578 20.373 17.2188V8.68359C20.373 7.68164 19.9277 7.31055 18.7031 7.31055L16.5879 7.38477C15.4004 7.38477 14.7324 7.57031 14.1758 7.94141C15.0293 8.34961 15.8086 8.90625 15.8086 10.4648V16.9961C15.6973 18.2949 14.6211 19.1484 13.582 19.1484C12.877 19.1484 12.2461 18.7402 11.875 18.0723C10.2051 15.5488 8.79492 13.1738 7.57031 9.75977L7.23633 8.79492L2.30078 8.75781C1.63281 8.75781 1.70703 8.79492 1.70703 9.12891C1.70703 9.35156 1.74414 9.64844 1.78125 9.83398L2.56055 11.9121C6.60547 22.377 11.6895 29.2422 16.5137 29.2422H20.2246C20.7441 29.2422 20.707 28.6113 20.8184 28.2402L21.5234 24.9746C21.6719 24.6406 21.7832 24.3438 22.043 24.084C22.3398 23.7871 22.6738 23.6758 23.0078 23.6758C23.7129 23.6758 24.3809 24.2324 24.8262 24.752L27.9805 28.7598C28.2402 29.168 28.4629 29.2422 28.6113 29.2422H34.7344C35.3281 29.2422 35.8477 29.0566 35.8477 28.6855C35.8477 28.5742 35.8105 28.4258 35.7363 28.3145L30.3555 21.5977C29.9102 21.041 29.7246 20.4844 29.7246 19.9277C29.7246 19.334 29.9473 18.7402 30.3184 18.2207C31.877 15.8828 35.2168 12.543 35.9961 9.79688L36.1074 9.31445C36.0703 9.12891 36.0703 8.98047 36.0332 8.79492H30.207C29.8359 8.94336 29.5391 9.16602 29.3164 9.46289L29.0938 10.168C28.2402 12.543 25.9023 15.8086 24.2324 18.0723C23.6758 18.5918 23.0449 18.8145 22.4141 18.8145Z" fill="white"/>
</svg>
