<svg width="196" height="47" viewBox="0 0 196 47" fill="none" xmlns="http://www.w3.org/2000/svg">
<path d="M186.868 40.9255C190.713 40.9255 193.437 40.3491 195.466 39.1075V33.4764C193.383 34.6736 190.873 35.4274 187.348 35.4274C181.42 35.4274 178.964 31.6142 178.964 25.584C178.964 19.2434 181.954 16.0066 187.402 16.0066C190.606 16.0066 193.757 16.9377 195.413 17.8245V11.9717C193.65 11.1736 190.606 10.5972 186.44 10.5972C175.813 10.5972 170.312 16.9377 170.312 25.8057C170.365 35.516 175.759 40.9255 186.868 40.9255ZM134.904 38.3538V32.7226C132.34 34.1859 127.961 35.4717 123.955 35.4717C117.867 35.4717 115.571 33.0774 115.197 28.2H135.277V24.5642C135.277 14.4104 129.883 10.5972 121.605 10.5972C111.458 10.5972 106.652 17.0264 106.652 25.85C106.652 36.0038 112.687 40.9255 123.261 40.9255C128.548 40.9255 132.447 39.7283 134.904 38.3538ZM58.6932 11.1292V22.6575H47.5848V11.1292H39.2534V40.3491H47.5848V28.1557H58.6932V40.3491H67.0245V11.1292H58.6932ZM104.569 34.8509H100.884V11.1292H76.6376V13.6123C76.6376 20.7509 76.1036 29.9736 73.1662 34.8509H70.4959V47H78.1864V40.3491H96.8251V47H104.516V34.8509H104.569ZM161.446 40.3491H170.899L157.548 24.6085L169.297 11.1292H160.912L149.163 24.6085V11.1292H140.832V40.3491H149.163V25.983L161.446 40.3491ZM121.392 16.0066C125.504 16.0066 126.786 18.8443 126.786 22.5245V23.1009H115.197C115.41 18.4453 117.44 16.0066 121.392 16.0066ZM92.5526 34.8509H80.8033C83.0997 30.4613 83.7406 22.4802 83.7406 17.4255V16.5387H92.5526V34.8509Z" fill="black"/>
<path d="M32.3106 40.3491H23.8191V5.45377H20.0272C13.0845 5.45377 9.45286 8.33585 9.45286 12.6368C9.45286 17.5142 11.9629 19.7755 17.1433 22.6575L21.4158 25.0519L9.13243 40.3491H0L11.055 26.6925C4.69973 22.9236 1.12153 19.2434 1.12153 13.0358C1.12153 5.27641 7.63706 0 19.9738 0H32.2572V40.3491H32.3106Z" fill="#FC3F1D"/>
</svg>
