<svg width="224" height="66" viewBox="0 0 224 66" fill="none" xmlns="http://www.w3.org/2000/svg">
<path d="M213.563 57.4695C217.957 57.4695 221.07 56.6601 223.39 54.9167V47.0092C221.009 48.6903 218.141 49.7488 214.112 49.7488C207.337 49.7488 204.53 44.3941 204.53 35.9261C204.53 27.0224 207.948 22.4771 214.173 22.4771C217.835 22.4771 221.437 23.7846 223.329 25.0299V16.811C221.314 15.6903 217.835 14.8809 213.075 14.8809C200.929 14.8809 194.642 23.7846 194.642 36.2375C194.703 49.8733 200.868 57.4695 213.563 57.4695ZM154.175 53.8582V45.9507C151.246 48.0054 146.241 49.811 141.663 49.811C134.705 49.811 132.081 46.4488 131.653 39.5997H154.603V34.4941C154.603 20.2356 148.438 14.8809 138.978 14.8809C127.381 14.8809 121.888 23.9092 121.888 36.2997C121.888 50.5582 128.785 57.4695 140.87 57.4695C146.912 57.4695 151.368 55.7884 154.175 53.8582ZM67.0779 15.628V31.8167H54.3825V15.628H44.861V56.6601H54.3825V39.5375H67.0779V56.6601H76.5994V15.628H67.0779ZM119.507 48.9393H115.296V15.628H87.5858V19.1148C87.5858 29.1394 86.9755 42.0903 83.6185 48.9393H80.5667V65.9997H89.3558V56.6601H110.657V65.9997H119.446V48.9393H119.507ZM184.51 56.6601H195.313L180.055 34.5563L193.482 15.628H183.9L170.472 34.5563V15.628H160.95V56.6601H170.472V36.4865L184.51 56.6601ZM138.734 22.4771C143.433 22.4771 144.898 26.462 144.898 31.6299V32.4393H131.653C131.898 25.9016 134.217 22.4771 138.734 22.4771ZM105.774 48.9393H92.3466C94.9711 42.7752 95.7035 31.5677 95.7035 24.4695V23.2243H105.774V48.9393Z" fill="white"/>
<path d="M36.9264 56.6604H27.2218V7.65849H22.8883C14.9537 7.65849 10.8033 11.7057 10.8033 17.7453C10.8033 24.5943 13.6719 27.7698 19.5924 31.817L24.4752 35.1792L10.4371 56.6604H0L12.6343 37.483C5.37112 32.1906 1.28174 27.0226 1.28174 18.3057C1.28174 7.40943 8.72807 0 22.8272 0H36.8654V56.6604H36.9264Z" fill="#FC3F1D"/>
</svg>
